<?xml version="1.0" standalone="no"?>
<!DOCTYPE svg PUBLIC "-//W3C//DTD SVG 1.1//EN" "http://www.w3.org/Graphics/SVG/1.1/DTD/svg11.dtd" >
<svg xmlns="http://www.w3.org/2000/svg" width="270" height="270" viewBox="0 0 270 270">
  <path fill="#FFF" stroke="#B9B9AF" stroke-width=".5" stroke-miterlimit="10" d="M0 0h270v270H0z"/>
  <path fill="#B9B9AF"
        d="M134.909 166.756c-17.511 0-31.758-14.246-31.758-31.757 0-17.51 14.247-31.756 31.758-31.756s31.758 14.246 31.758 31.756c0 17.512-14.248 31.757-31.758 31.757zm0-58.554c-14.778 0-26.8 12.021-26.8 26.798 0 14.777 12.022 26.799 26.8 26.799s26.8-12.021 26.8-26.799c-.001-14.777-12.022-26.798-26.8-26.798z"/>
  <path fill="#B9B9AF"
        d="M134.909 152.12c-9.44 0-17.121-7.68-17.121-17.121 0-9.44 7.681-17.12 17.121-17.12s17.121 7.68 17.121 17.12c0 9.441-7.681 17.121-17.121 17.121zm0-31.265c-7.799 0-14.146 6.346-14.146 14.145 0 7.8 6.347 14.146 14.146 14.146 7.8 0 14.147-6.346 14.147-14.146-.001-7.8-6.348-14.145-14.147-14.145zM99.527 108.95c0-.311-.178-.562-.401-.562h-2.173c-.221 0-.401.251-.401.562l-.265 14.588c-.25.491-.577.628-.889.628-.122 0-.238-.062-.36-.117-.327-.21-.376-.663-.37-.958h.025l-.004-.258v-.004l-.203-13.88c0-.311-.18-.562-.401-.562h-2.177c-.223 0-.401.251-.401.562l-.263 14.588c-.248.491-.581.628-.889.628-.31 0-.639-.137-.887-.628L89.2 108.95c0-.311-.18-.562-.401-.562H86.625c-.221 0-.401.251-.401.562l-.211 14.142h.07c-.004.043-.013.08-.013.12 0 .784.225 1.509.591 2.141h-.025c.846 1.895 2.467 3.336 4.445 3.898-.647 9.296-2.444 26.564-2.444 26.564l-.301 5.016-.003 1.205a4.648 4.648 0 0 0 4.633 4.648 4.65 4.65 0 0 0 4.631-4.648l-.012-1.315-.292-4.906s-1.805-17.305-2.448-26.597c1.919-.585 3.48-2.012 4.308-3.865h-.06a4.236 4.236 0 0 0 .593-2.141c0-.04-.012-.077-.015-.12h.07l-.214-14.142zm-6.562 54.117c-.335.004-.692-.145-.963-.678l.899-18.819.064-.031.062.031.899 18.819c-.27.533-.626.682-.961.678zM183.496 162.244l-.246-4.251-1.286-14.539c-.124-2.886-.335-7.912-.354-9.163l-.139-9.478.031-.436V107.73a.254.254 0 0 0-.19-.247c-.566-.146-1.648-.284-2.225-.284-2.775 0-5.322 1.692-6.49 4.31-.012.023-.014.048-.017.072a4.44 4.44 0 0 0-.558 2.118.264.264 0 0 0-.068.178l.186 10.88-.186 12.658c0 .045.023.087.054.126 0 .749.192 1.478.567 2.161.004.029.01.054.021.081.695 1.555 1.9 2.826 3.322 3.517.014.014 1.445 1.646 1.195 3.978-.111.934-.23 1.887-.352 2.843l-1.524 10.768-.054 1.364c0 .602.097 1.203.296 1.797a4.11 4.11 0 0 0 3.847 2.634c1.935 0 3.635-1.375 4.058-3.32.052-.263.08-.538.08-.821a.667.667 0 0 0 .021-.093 3.46 3.46 0 0 0 .011-.206zm-3.94-11.582c0-.056.048-.103.103-.103l.109.112.449 11.312a.673.673 0 0 0 0 .196c0 .486-.395.879-.879.879s-.881-.393-.881-.86l1.099-11.536zm-.881-12.752c0 .916-.748 1.662-1.664 1.662-.856 0-1.555-.657-1.728-1.662l-.014-12.224V115.967c-.021-.154-.484-3.798 2.684-4.691a.5.5 0 0 1 .209-.051h.019c.004 0 .043.043.043.215v10.001l.451 16.469z"/>
  <path fill="#B9B9AF"
        d="M175.27 125.422v.264a.249.249 0 0 1 .052.161l-.052-.425zM135 233a1 1 0 1 1 0 2 1 1 0 0 1 0-2zM135 239a1 1 0 1 1 0 2 1 1 0 0 1 0-2zM135 245a1 1 0 1 1 0 2 1 1 0 0 1 0-2zM135 251a1 1 0 1 1 0 2 1 1 0 0 1 0-2zM135 257a1 1 0 1 1 0 2 1 1 0 0 1 0-2zM135 263a1 1 0 1 1 0 2 1 1 0 0 1 0-2z"/>
</svg>
