<?xml version="1.0" encoding="iso-8859-1"?>
<!-- Generator: Adobe Illustrator 19.0.0, SVG Export Plug-In . SVG Version: 6.00 Build 0)  -->
<svg version="1.1" id="Layer_1" xmlns="http://www.w3.org/2000/svg" xmlns:xlink="http://www.w3.org/1999/xlink" x="0px" y="0px"
	 viewBox="0 0 491.52 491.52" style="enable-background:new 0 0 491.52 491.52;" xml:space="preserve">
<rect y="0.004" style="fill:#64798A;" width="491.52" height="121.953"/>
<path style="fill:#3A556A;" d="M388.093,40.037H103.427c-9.845,0-17.828,7.982-17.828,17.828s7.982,17.828,17.828,17.828h284.665
	c9.845,0,17.828-7.982,17.828-17.828S397.938,40.037,388.093,40.037z"/>
<polygon style="fill:#EBF0F3;" points="163.969,310.563 173.057,319.724 182.144,310.563 191.234,319.724 200.321,310.563 
	209.408,319.724 218.495,310.563 227.585,319.724 236.672,310.563 245.759,319.724 254.846,310.563 263.935,319.724 
	273.022,310.563 282.111,319.724 291.198,310.563 300.286,319.724 309.373,310.563 318.462,319.724 327.549,310.563 
	336.638,319.724 336.638,40.037 154.882,40.037 154.882,319.724 "/>
<g>
	<rect x="169.411" y="266.807" style="fill:#D5D6DB;" width="84.285" height="8.141"/>
	<rect x="169.421" y="238.98" style="fill:#D5D6DB;" width="93.542" height="8.141"/>
	<rect x="169.38" y="211.101" style="fill:#D5D6DB;" width="63.99" height="8.141"/>
</g>
<g>
	<rect x="169.38" y="181.308" style="fill:#27A2DB;" width="63.99" height="8.141"/>
	<rect x="291.773" y="181.308" style="fill:#27A2DB;" width="30.316" height="8.141"/>
</g>
<g>
	<rect x="291.773" y="211.101" style="fill:#D5D6DB;" width="30.316" height="8.141"/>
	<rect x="291.773" y="238.98" style="fill:#D5D6DB;" width="30.316" height="8.141"/>
	<rect x="291.773" y="266.807" style="fill:#D5D6DB;" width="30.316" height="8.141"/>
	<rect x="169.411" y="147.926" style="fill:#D5D6DB;" width="76.349" height="8.141"/>
</g>
<rect x="169.395" y="121.179" style="fill:#44C4A1;" width="152.704" height="8.141"/>
<circle style="fill:#E56353;" cx="245.76" cy="85.979" r="21.391"/>
<path style="opacity:0.5;fill:#3A556A;enable-background:new    ;" d="M405.92,57.865c0-9.846-7.982-17.828-17.828-17.828H103.427
	c-9.845,0-17.828,7.982-17.828,17.828"/>
<path style="fill:#FCD462;" d="M240.693,188.126c-6.758-4.572-15.717-4.186-22.056,0.948l-56.979,46.15
	c-7.45,6.034-18.83,2.756-21.59-6.418c-0.808-2.689-1.304-5.355-1.601-7.795c-0.75-6.184,2.996-12.038,8.851-14.191l7.565-2.783
	v-50.715l-47.763,8.039c-18.045,3.037-32.161,17.193-35.124,35.225L39.297,395.53l95.027,26.232
	c50.42-49.782,60.657-84.159,59.995-111.918c-0.377-15.818,4.734-31.269,13.979-44.119l37.049-51.494
	C251.433,205.773,249.328,193.967,240.693,188.126z"/>
<rect x="8.329" y="397.676" transform="matrix(-0.9609 -0.2767 0.2767 -0.9609 65.4177 875.9674)" style="fill:#64798A;" width="172.375" height="71.383"/>
<ellipse transform="matrix(-0.9609 -0.2767 0.2767 -0.9609 178.961 926.7524)" style="fill:#FFFFFF;" cx="154.872" cy="450.749" rx="12.995" ry="12.979"/>
<g>
</g>
<g>
</g>
<g>
</g>
<g>
</g>
<g>
</g>
<g>
</g>
<g>
</g>
<g>
</g>
<g>
</g>
<g>
</g>
<g>
</g>
<g>
</g>
<g>
</g>
<g>
</g>
<g>
</g>
</svg>
