<?xml version="1.0" encoding="iso-8859-1"?>
<!-- Generator: Adobe Illustrator 19.0.0, SVG Export Plug-In . SVG Version: 6.00 Build 0)  -->
<svg version="1.1" id="Layer_1" xmlns="http://www.w3.org/2000/svg" xmlns:xlink="http://www.w3.org/1999/xlink" x="0px" y="0px"
	 viewBox="0 0 512 512" style="enable-background:new 0 0 512 512;" xml:space="preserve">
<circle style="fill:#EFEFEF;" cx="256" cy="256" r="256"/>
<rect x="64" y="155.04" style="fill:#FFFFFF;" width="384" height="232"/>
<path style="fill:#999999;" d="M448,155.12v-24.56c0-12.96-10.56-23.52-23.52-23.52H87.52C74.56,107.04,64,117.6,64,130.56v24.56
	H448z"/>
<g>
	<circle style="fill:#FFFFFF;" cx="97.2" cy="131.04" r="6.72"/>
	<circle style="fill:#FFFFFF;" cx="117.28" cy="131.04" r="6.72"/>
	<circle style="fill:#FFFFFF;" cx="137.36" cy="131.04" r="6.72"/>
	<path style="fill:#FFFFFF;" d="M388.24,142.8H204.08c-6.48,0-11.76-5.28-11.76-11.76l0,0c0-6.48,5.28-11.76,11.76-11.76h184.16
		c6.48,0,11.76,5.28,11.76,11.76l0,0C400,137.52,394.72,142.8,388.24,142.8z"/>
</g>
<path style="fill:#00C454;" d="M348.16,331.68h-184c-3.44,0-6.24-2.8-6.24-6.24V215.52c0-3.44,2.8-6.24,6.24-6.24h184
	c3.44,0,6.24,2.8,6.24,6.24v110C354.4,328.88,351.6,331.68,348.16,331.68z"/>
<rect x="157.92" y="228.8" style="fill:#3B3B3B;" width="196.48" height="32.32"/>
<g>
	<rect x="182.8" y="282.64" style="fill:#FFFFFF;" width="80.72" height="5.36"/>
	<rect x="182.8" y="298.72" style="fill:#FFFFFF;" width="48.48" height="5.36"/>
</g>
<g>
</g>
<g>
</g>
<g>
</g>
<g>
</g>
<g>
</g>
<g>
</g>
<g>
</g>
<g>
</g>
<g>
</g>
<g>
</g>
<g>
</g>
<g>
</g>
<g>
</g>
<g>
</g>
<g>
</g>
</svg>
