<?xml version="1.0" encoding="iso-8859-1"?>
<!-- Generator: Adobe Illustrator 19.0.0, SVG Export Plug-In . SVG Version: 6.00 Build 0)  -->
<svg version="1.1" id="Layer_1" xmlns="http://www.w3.org/2000/svg" xmlns:xlink="http://www.w3.org/1999/xlink" x="0px" y="0px"
	 viewBox="0 0 512 512" style="enable-background:new 0 0 512 512;" xml:space="preserve">
<path style="fill:#415E72;" d="M0,355.2v-324c0.104-5.704,4.696-10.296,10.4-10.4h491.2c5.704,0.104,10.296,4.696,10.4,10.4v324H0z"
	/>
<g>
	<path style="fill:#CFDCE5;" d="M512,355.2v41.6c-0.104,5.704-4.696,10.296-10.4,10.4H10.4c-5.704-0.104-10.296-4.696-10.4-10.4
		v-41.6H512z"/>
	<rect x="146.4" y="480.8" style="fill:#CFDCE5;" width="219.2" height="10.4"/>
</g>
<polygon style="fill:#AAC1CE;" points="328.8,480.8 183.2,480.8 193.6,407.2 318.4,407.2 "/>
<rect x="20.8" y="41.6" style="fill:#FFFFFF;" width="470.4" height="292.8"/>
<polygon style="fill:#8BA0AE;" points="318.4,407.2 193.6,407.2 187.792,448.28 320.272,420.424 "/>
<circle style="fill:#25B6D2;" cx="256" cy="188" r="118.44"/>
<path style="fill:#FFFFFF;" d="M250.304,252.976v-15.912c-9.328-0.104-18.472-2.584-26.576-7.2l4.432-15.464
	c7.76,4.592,16.584,7.072,25.6,7.2c10.336,0,17.392-5.088,17.392-12.96c0-7.384-5.744-12.144-17.88-16.568
	c-17.224-6.232-28.384-14.112-28.384-29.368c0-14.112,9.84-24.936,26.4-27.888v-16.08h13.456v15.256
	c7.856,0.088,15.592,1.936,22.64,5.416l-4.432,15.096c-6.888-3.616-14.536-5.536-22.312-5.6c-11.488,0-15.584,5.904-15.584,11.488
	c0,6.728,5.904,10.504,19.848,16.08c18.4,6.888,26.576,15.752,26.576,30.352c-0.32,15.432-12.336,28.08-27.728,29.2v16.896
	L250.304,252.976z"/>
<g>
</g>
<g>
</g>
<g>
</g>
<g>
</g>
<g>
</g>
<g>
</g>
<g>
</g>
<g>
</g>
<g>
</g>
<g>
</g>
<g>
</g>
<g>
</g>
<g>
</g>
<g>
</g>
<g>
</g>
</svg>
