<?xml version="1.0" standalone="no"?>
<!DOCTYPE svg PUBLIC "-//W3C//DTD SVG 1.1//EN" "http://www.w3.org/Graphics/SVG/1.1/DTD/svg11.dtd" >
<svg xmlns="http://www.w3.org/2000/svg" width="16" height="13" viewBox="0 0 16 13">
  <title>Group</title>
  <g fill="none" fill-rule="evenodd">
    <path d="M0-2h16v16H0z"/>
    <path class="color-path"
          d="M14.211 3.7c0 4.3-3.28 9.3-9.242 9.3C3.08 13 1.39 12.5 0 11.5h.795c1.49 0 2.981-.5 4.075-1.4-1.392 0-2.584-1-3.081-2.3.199 0 .397.1.596.1.298 0 .596 0 .895-.1C1.789 7.5.696 6.2.696 4.6c.397.2.894.4 1.49.4-.894-.6-1.49-1.6-1.49-2.7 0-.6.198-1.2.397-1.7 1.59 2 3.975 3.3 6.758 3.4-.1-.2-.1-.5-.1-.7 0-1.8 1.491-3.3 3.28-3.3.894 0 1.789.4 2.385 1 .696-.1 1.49-.4 2.087-.8-.199.8-.795 1.4-1.391 1.8.695-.1 1.292-.3 1.888-.5-.596.7-1.193 1.3-1.789 1.8v.4z"
          fill="#FFF"/>
  </g>
</svg>
