<?xml version="1.0" standalone="no"?>
<!DOCTYPE svg PUBLIC "-//W3C//DTD SVG 1.1//EN" "http://www.w3.org/Graphics/SVG/1.1/DTD/svg11.dtd" >
<svg xmlns="http://www.w3.org/2000/svg" xmlns:xlink="http://www.w3.org/1999/xlink" width="827" height="332"
     viewBox="0 0 827 332">
  <title>banner</title>
  <defs>
    <path id="a" d="M0 0h827v332H0z"/>
    <path id="c" d="M0 115.484h167.294V.584H.001z"/>
    <path id="e" d="M28.338 25.228V.62H.65v24.61h27.688z"/>
    <path id="g" d="M41.803.624H.133v51.433h41.67V.624z"/>
  </defs>
  <g fill="none" fill-rule="evenodd">
    <mask id="b" fill="#fff">
      <use xlink:href="#a"/>
    </mask>
    <use fill="#D9F0F4" xlink:href="#a"/>
    <path
      d="M409.695 698.257c325.742 0 589.808-91.276 589.808-203.87 0-112.595-264.066-222.208-589.808-222.208s-589.808 109.613-589.808 222.208c0 112.594 264.066 203.87 589.808 203.87z"
      fill="#A6D8B8" mask="url(#b)"/>
    <path
      d="M962.72 702.448c325.741 0 612.639-98.302 612.639-203.87 0-105.57-301.831-257.278-627.573-257.278-325.742 0-692.827 144.683-692.827 257.278 0 112.594 382.018 203.87 707.76 203.87z"
      fill="#76C698" mask="url(#b)"/>
    <g opacity=".8" mask="url(#b)">
      <path
        d="M156.417 176.678c0 25.798-20.817 46.71-46.497 46.71-25.683 0-46.5-20.912-46.5-46.71 0-25.797 20.817-46.71 46.5-46.71 25.68 0 46.497 20.913 46.497 46.71"
        fill="#5AA97A"/>
      <path d="M156.417 176.678c0-25.797-20.817-46.71-46.497-46.71v93.422c25.68 0 46.497-20.914 46.497-46.712"
            fill="#367751"/>
      <path d="M109.919 147.584v112.564M109.919 207.742l-26.662-26.784M109.919 180.542l19.054-19.141" stroke="#603916"
            stroke-width="2.37" stroke-linecap="round"/>
    </g>
    <path
      d="M-227.5 660.26c325.742 0 662.335-91.275 662.335-203.87S98.242 216.613-227.5 216.613-857.442 343.795-857.442 456.39c0 112.595 304.2 203.87 629.942 203.87z"
      fill="#6AB389" mask="url(#b)"/>
    <path
      d="M153 94.056h4.928V62.248h.168c.28 2.688 1.288 7.336 2.128 11.032l4.312 20.776h4.648l4.256-20.328c.84-3.976 1.848-8.064 2.24-11.536h.112v31.864h5.544v-41.44h-7.504l-6.552 32.032h-.168l-6.608-32.032H153v41.44zm47.277.448c8.232 0 10.976-5.04 10.976-13.608v-28.28h-5.768v27.832c0 5.768-1.12 8.792-5.096 8.792-4.032 0-5.152-3.08-5.152-8.904v-27.72h-6.048v28.392c0 8.344 2.8 13.496 11.088 13.496zm18.773-.448h4.928V62.64h.168c.392 1.344 1.792 5.264 2.856 7.896l9.352 23.52h5.264v-41.44h-4.928v28.952h-.112c-.728-2.296-1.68-4.928-2.912-8.176l-8.008-20.776h-6.608v41.44zm41.789.448c7.56 0 10.472-6.216 11.536-14.504l-5.824-.56c-.784 7.056-2.296 9.688-5.712 9.688-4.424 0-6.272-5.152-6.272-15.848 0-10.416 1.792-15.568 6.216-15.568 3.248 0 4.648 2.8 5.32 9.296l5.824-.616c-.728-9.016-3.696-14.28-11.144-14.28-7.728 0-12.376 6.216-12.376 21.224 0 15.12 4.48 21.168 12.432 21.168zm17.709-.448h6.16V74.848h10.416v19.208h6.104v-41.44h-6.104v16.912h-10.416V52.616h-6.16v41.44zm30.757 0h18.76v-5.264h-12.6v-14h8.568V69.64h-8.568V58.048h11.984v-5.432h-18.144v41.44zm40.613-17.752c4.424-2.184 5.88-6.552 5.88-11.2 0-8.792-4.48-12.488-12.32-12.488h-9.072v41.44h5.992V77.928h4.032l5.824 16.128h6.104l-6.44-17.752zm-9.52-3.36V57.936h2.968c4.704 0 6.44 1.792 6.44 7.28 0 5.768-1.792 7.728-6.216 7.728h-3.192zm27.789 21.112h6.104V78.6l9.072-25.984h-5.768l-5.992 19.152h-.168l-6.048-19.152h-6.216l9.016 25.984v15.456zm30.49 0h4.928V62.248h.168c.28 2.688 1.288 7.336 2.128 11.032l4.312 20.776h4.648l4.256-20.328c.84-3.976 1.848-8.064 2.24-11.536h.112v31.864h5.544v-41.44h-7.504l-6.552 32.032h-.168l-6.608-32.032h-7.504v41.44zm36.413 0h18.76v-5.264h-12.6v-14h8.568V69.64h-8.568V58.048h11.984v-5.432H435.09v41.44zm25.1 0h4.929V62.248h.168c.28 2.688 1.288 7.336 2.128 11.032l4.312 20.776h4.648l4.256-20.328c.84-3.976 1.848-8.064 2.24-11.536h.112v31.864h5.544v-41.44h-7.504l-6.552 32.032h-.168l-6.608-32.032h-7.504v41.44zm36.413 0h10.64c6.888 0 11.48-3.36 11.48-11.256 0-6.776-2.968-9.128-6.608-10.08v-.112c3.024-.952 5.656-3.248 5.656-9.576 0-7.672-4.48-10.416-11.2-10.416h-9.968v41.44zm6.048-23.632V57.88h3.752c3.92 0 5.432 1.512 5.432 6.16 0 4.704-1.904 6.384-5.488 6.384h-3.696zm0 18.704V75.184h3.864c3.92 0 6.16 1.96 6.16 7 0 4.816-1.624 6.944-5.6 6.944h-4.424zm22.805 4.928h18.76v-5.264h-12.6v-14h8.568V69.64h-8.568V58.048H543.6v-5.432h-18.144v41.44zm40.613-17.752c4.424-2.184 5.88-6.552 5.88-11.2 0-8.792-4.48-12.488-12.32-12.488h-9.072v41.44h5.992V77.928h4.032l5.824 16.128h6.104l-6.44-17.752zm-9.52-3.36V57.936h2.968c4.704 0 6.44 1.792 6.44 7.28 0 5.768-1.792 7.728-6.216 7.728h-3.192zm32.325 21.728c6.384 0 10.752-4.2 10.752-10.36 0-11.312-15.344-14.448-15.344-22.736 0-2.688 1.512-4.144 4.088-4.144 2.912 0 4.368 2.24 5.488 6.72l5.432-1.4C597.778 56.256 594.922 52 588.594 52c-6.16 0-10.304 3.808-10.304 9.968 0 11.2 15.344 14.84 15.344 22.624 0 2.8-1.456 4.76-4.704 4.76-3.64 0-5.488-2.688-6.44-7.56l-5.6 1.064c1.344 7.056 4.648 11.816 11.984 11.816zm17.541-.616h6.16V74.848h10.416v19.208h6.104v-41.44h-6.104v16.912h-10.416V52.616h-6.16v41.44zm31.037 0h6.16v-41.44h-6.16v41.44zm14.461 0h6.048v-15.68h3.472c5.992 0 11.928-2.352 11.928-13.104 0-9.8-5.432-12.656-11.704-12.656h-9.744v41.44zm6.048-20.776V57.936h3.696c3.864 0 5.656 2.016 5.656 7.504 0 5.712-1.848 7.84-5.6 7.84h-3.752zM250.011 163.421c4.14 0 6.48-2.304 7.524-4.5h.072v3.996h2.772v-12.744h-9.18v2.664h6.12c-.072 4.932-2.88 7.74-7.02 7.74-4.716 0-8.208-3.744-8.208-11.196 0-7.488 3.924-10.692 8.1-10.692 3.708 0 5.688 1.8 6.948 6.084l2.952-.756c-1.404-5.58-4.824-8.244-9.864-8.244-6.66 0-11.34 5.256-11.34 13.716 0 8.064 3.924 13.932 11.124 13.932zm23.835-.108c3.564 0 5.976-1.512 7.74-4.032l-1.8-1.584c-1.44 1.98-2.988 3.096-5.724 3.096-3.132 0-5.616-2.304-5.724-6.588h13.428v-.648c0-6.876-3.42-10.044-7.92-10.044-3.996 0-8.604 2.988-8.604 9.9 0 6.624 4.104 9.9 8.604 9.9zm-5.436-11.52c.432-3.924 2.844-5.688 5.4-5.688 3.132 0 4.752 2.304 5.004 5.688H268.41zm24.842 11.376c.972 0 2.16-.108 2.7-.216v-2.556a7.721 7.721 0 0 1-1.944.252c-2.304 0-2.952-1.008-2.952-3.024v-11.16h4.932v-2.556h-4.932v-6.768h-3.096v6.768h-3.312v2.556h3.312v11.844c0 3.312 1.296 4.86 5.292 4.86zm22.793 0c.972 0 2.16-.108 2.7-.216v-2.556a7.721 7.721 0 0 1-1.944.252c-2.304 0-2.952-1.008-2.952-3.024v-11.16h4.932v-2.556h-4.932v-6.768h-3.096v6.768h-3.312v2.556h3.312v11.844c0 3.312 1.296 4.86 5.292 4.86zm10.443-.252v-13.68c1.98-1.872 3.888-3.06 6.156-3.06 2.412 0 3.492 1.188 3.492 3.708v13.032h3.096v-13.716c0-3.6-1.98-5.688-5.616-5.688-3.096 0-5.472 1.62-7.128 3.24v-10.476h-3.132v26.64h3.132zm25.959.396c3.564 0 5.976-1.512 7.74-4.032l-1.8-1.584c-1.44 1.98-2.988 3.096-5.724 3.096-3.132 0-5.616-2.304-5.724-6.588h13.428v-.648c0-6.876-3.42-10.044-7.92-10.044-3.996 0-8.604 2.988-8.604 9.9 0 6.624 4.104 9.9 8.604 9.9zm-5.436-11.52c.432-3.924 2.844-5.688 5.4-5.688 3.132 0 4.752 2.304 5.004 5.688H347.01zm36.04 11.412c4.645 0 8.065-3.204 8.065-9.828 0-6.624-3.384-9.864-7.74-9.864-2.844 0-4.824 1.44-6.264 3.06v-10.296h-3.096v26.64h3.096v-2.448c1.62 1.692 3.6 2.736 5.94 2.736zm-.431-2.52c-2.016 0-3.852-1.008-5.508-2.88v-8.712c1.584-1.728 3.348-2.916 5.544-2.916 3.06 0 5.364 2.376 5.364 7.236 0 5.04-2.088 7.272-5.4 7.272zm20.883 2.628c3.564 0 5.976-1.512 7.74-4.032l-1.8-1.584c-1.44 1.98-2.988 3.096-5.724 3.096-3.132 0-5.616-2.304-5.724-6.588h13.428v-.648c0-6.876-3.42-10.044-7.92-10.044-3.996 0-8.604 2.988-8.604 9.9 0 6.624 4.104 9.9 8.604 9.9zm-5.436-11.52c.432-3.924 2.844-5.688 5.4-5.688 3.132 0 4.752 2.304 5.004 5.688h-10.404zm24.23 11.484c4.32 0 7.596-1.944 7.596-5.58 0-3.924-2.952-4.968-7.236-6.012-2.988-.684-4.5-1.332-4.5-3.096 0-1.332 1.08-2.556 3.852-2.556 2.124 0 4.068.936 5.508 2.268l1.62-2.052c-1.764-1.656-3.924-2.736-7.272-2.736-4.14 0-6.66 2.304-6.66 5.184 0 3.672 2.772 4.752 6.804 5.724 3.24.756 4.896 1.476 4.896 3.384 0 1.944-1.62 2.988-4.572 2.988-2.592 0-4.5-1.08-5.94-2.628l-1.872 1.872c1.548 1.872 4.356 3.24 7.776 3.24zm18.723-.108c.972 0 2.16-.108 2.7-.216v-2.556a7.721 7.721 0 0 1-1.944.252c-2.304 0-2.952-1.008-2.952-3.024v-11.16h4.932v-2.556h-4.932v-6.768h-3.096v6.768h-3.312v2.556h3.312v11.844c0 3.312 1.296 4.86 5.292 4.86zm19.229 6.948v-9.648c1.62 1.692 3.6 2.736 5.94 2.736 4.644 0 8.064-3.204 8.064-9.828 0-6.624-3.384-9.864-7.74-9.864-2.844 0-4.824 1.44-6.264 3.024v-2.628h-3.096v26.208h3.096zm5.508-9.432c-2.016 0-3.852-1.008-5.508-2.88v-8.712c1.584-1.728 3.348-2.916 5.544-2.916 3.06 0 5.364 2.376 5.364 7.236 0 5.04-2.088 7.272-5.4 7.272zm16.455 2.232v-12.276c1.404-2.7 3.672-4.284 6.696-4.284.108 0 .792 0 .9.036l.216-2.88h-.396c-3.708 0-5.94 1.728-7.344 3.924h-.072v-3.528h-3.096v19.008h3.096zm15.014 0V143.91h-3.096v19.008h3.096zm.072-23.076v-3.024h-3.24v3.024h3.24zm13.395 23.472c4.104 0 6.3-2.232 7.776-5.4l-2.556-1.008c-1.224 2.772-2.7 3.816-5.112 3.816-3.204 0-5.436-2.628-5.436-7.308 0-5.364 2.772-7.272 5.508-7.272 2.484 0 3.96 1.332 4.896 3.78l2.628-1.08c-1.152-2.808-3.168-5.328-7.452-5.328-4.248 0-8.712 2.952-8.712 9.9 0 6.516 4.068 9.9 8.46 9.9zm15.626-.396V143.91h-3.096v19.008h3.096zm.072-23.076v-3.024h-3.24v3.024h3.24zm9.147 23.076v-13.68c1.98-1.872 3.888-3.06 6.156-3.06 2.412 0 3.492 1.188 3.492 3.708v13.032h3.096v-13.716c0-3.6-1.98-5.688-5.616-5.688-3.096 0-5.472 1.62-7.128 3.24v-2.844h-3.132v19.008h3.132zm25.49 7.308c5.509 0 9.289-1.908 9.289-5.508 0-3.06-2.448-4.608-7.272-4.932l-3.888-.324c-2.016-.18-2.628-.54-2.628-1.332 0-.648.54-1.116 1.332-1.476.972.288 1.908.468 3.024.468 4.428 0 7.668-2.664 7.668-6.768 0-1.296-.36-2.412-.972-3.276 1.116-.432 2.376-.612 3.42-.612v-2.736c-1.548.18-3.348.9-4.5 1.764-1.332-1.188-3.276-1.98-5.616-1.98-4.536 0-7.74 2.844-7.74 6.84 0 2.376 1.08 4.284 2.916 5.472-1.368.792-2.376 1.836-2.376 3.06 0 1.116.54 1.908 1.62 2.412-2.124.828-3.456 2.268-3.456 4.212 0 2.88 2.772 4.716 9.18 4.716zm-.107-15.372c-2.916 0-4.824-1.692-4.824-4.428 0-2.736 1.836-4.5 4.788-4.5 3.06 0 4.788 1.728 4.788 4.5 0 2.736-1.836 4.428-4.752 4.428zm.504 13.032c-4.716 0-6.696-.936-6.696-2.844 0-1.296.972-2.484 2.808-3.132l1.08.108 3.6.252c3.996.288 5.256 1.044 5.256 2.736 0 1.728-2.268 2.88-6.048 2.88zm-294.958 30.53l4.068-14.868h.072l4.032 14.868h2.88l5.796-19.008H280.4l-2.592 9.144c-.648 2.232-1.008 3.6-1.656 6.12h-.072c-.576-2.484-.936-3.924-1.584-6.192l-2.484-9.072h-2.7L266.9 188.3a177.076 177.076 0 0 0-1.656 6.372h-.072c-.576-2.448-1.008-3.996-1.656-6.336l-2.484-8.928h-3.204l5.796 19.008h2.844zm24.087 0v-19.008h-3.096v19.008h3.096zm.072-23.076v-3.024h-3.24v3.024h3.24zm12.675 23.328c.972 0 2.16-.108 2.7-.216v-2.556a7.721 7.721 0 0 1-1.944.252c-2.304 0-2.952-1.008-2.952-3.024v-11.16h4.932v-2.556h-4.932v-6.768h-3.096v6.768h-3.312v2.556h3.312v11.844c0 3.312 1.296 4.86 5.292 4.86zm10.442-.252v-13.68c1.98-1.872 3.888-3.06 6.156-3.06 2.412 0 3.492 1.188 3.492 3.708v13.032h3.096V184.7c0-3.6-1.98-5.688-5.616-5.688-3.096 0-5.472 1.62-7.128 3.24v-10.476h-3.132v26.64h3.132zm30.714 0v-21.672h.072c.575 2.124 1.007 3.24 1.656 5.004l6.372 16.668h2.844l6.371-16.668c.613-1.764 1.26-3.492 1.62-4.896h.072v21.564h3.132v-26.64h-4.212l-8.244 22.644h-.072l-8.387-22.644h-4.14v26.64h2.916zm36.074.396c3.564 0 5.976-1.512 7.74-4.032l-1.8-1.584c-1.44 1.98-2.988 3.096-5.724 3.096-3.132 0-5.616-2.304-5.724-6.588h13.428v-.648c0-6.876-3.42-10.044-7.92-10.044-3.996 0-8.604 2.988-8.604 9.9 0 6.624 4.104 9.9 8.604 9.9zm-5.436-11.52c.432-3.924 2.844-5.688 5.4-5.688 3.132 0 4.752 2.304 5.004 5.688h-10.404zm21.279 11.124v-13.68c2.016-1.872 3.816-3.06 5.904-3.06 2.484 0 3.312 1.188 3.312 3.708v13.032h3.096v-13.68c1.98-1.872 3.744-3.06 5.868-3.06 2.484 0 3.312 1.188 3.312 3.708v13.032h3.096V184.7c0-3.42-1.62-5.688-5.508-5.688-2.844 0-5.184 1.548-7.02 3.348-.648-1.98-2.016-3.348-5.22-3.348-2.844 0-5.04 1.476-6.84 3.276v-2.88h-3.096v19.008h3.096zm39.35.288c4.644 0 8.064-3.204 8.064-9.828 0-6.624-3.384-9.864-7.74-9.864-2.844 0-4.824 1.44-6.264 3.06v-10.296h-3.096v26.64h3.096v-2.448c1.62 1.692 3.6 2.736 5.94 2.736zm-.432-2.52c-2.016 0-3.852-1.008-5.508-2.88v-8.712c1.584-1.728 3.348-2.916 5.544-2.916 3.06 0 5.364 2.376 5.364 7.236 0 5.04-2.088 7.272-5.4 7.272zm20.883 2.628c3.564 0 5.976-1.512 7.74-4.032l-1.8-1.584c-1.44 1.98-2.988 3.096-5.724 3.096-3.132 0-5.616-2.304-5.724-6.588h13.428v-.648c0-6.876-3.42-10.044-7.92-10.044-3.996 0-8.604 2.988-8.604 9.9 0 6.624 4.104 9.9 8.604 9.9zm-5.436-11.52c.432-3.924 2.844-5.688 5.4-5.688 3.132 0 4.752 2.304 5.004 5.688h-10.404zm21.279 11.124V186.14c1.404-2.7 3.672-4.284 6.696-4.284.108 0 .792 0 .9.036l.216-2.88h-.396c-3.708 0-5.94 1.728-7.344 3.924h-.072v-3.528h-3.096v19.008h3.096zm17.57.36c4.32 0 7.596-1.944 7.596-5.58 0-3.924-2.952-4.968-7.236-6.012-2.988-.684-4.5-1.332-4.5-3.096 0-1.332 1.08-2.556 3.852-2.556 2.124 0 4.068.936 5.508 2.268l1.62-2.052c-1.764-1.656-3.924-2.736-7.272-2.736-4.14 0-6.66 2.304-6.66 5.184 0 3.672 2.772 4.752 6.804 5.724 3.24.756 4.896 1.476 4.896 3.384 0 1.944-1.62 2.988-4.572 2.988-2.592 0-4.5-1.08-5.94-2.628l-1.872 1.872c1.548 1.872 4.356 3.24 7.776 3.24zm15.555-.36v-13.68c1.98-1.872 3.888-3.06 6.156-3.06 2.412 0 3.492 1.188 3.492 3.708v13.032h3.096V184.7c0-3.6-1.98-5.688-5.616-5.688-3.096 0-5.472 1.62-7.128 3.24v-10.476h-3.132v26.64h3.132zm21.746 0v-19.008h-3.096v19.008h3.096zm.072-23.076v-3.024h-3.24v3.024h3.24zm9.111 30.276v-9.648c1.62 1.692 3.6 2.736 5.94 2.736 4.644 0 8.064-3.204 8.064-9.828 0-6.624-3.384-9.864-7.74-9.864-2.844 0-4.824 1.44-6.264 3.024v-2.628h-3.096v26.208h3.096zm5.508-9.432c-2.016 0-3.852-1.008-5.508-2.88v-8.712c1.584-1.728 3.348-2.916 5.544-2.916 3.06 0 5.364 2.376 5.364 7.236 0 5.04-2.088 7.272-5.4 7.272z"
      fill="#515252" mask="url(#b)"/>
    <g mask="url(#b)">
      <g transform="translate(606 173.763)">
        <mask id="d" fill="#fff">
          <use xlink:href="#c"/>
        </mask>
        <path
          d="M153.134 88.048c-.037.023-.06.06-.083.083v5.09c0 .598-.037 1.187-.12 1.776a13.81 13.81 0 0 1-1 3.733l-6.29 14.858a3.148 3.148 0 0 1-2.876 1.896H131.07c-1.31 0-2.477-.829-2.924-2.065l-6.244-17.355a3.738 3.738 0 0 0-4.581-2.305c-11.286 3.338-24.483 2.077-31.076 1.081a6.163 6.163 0 0 0-6.327 3.132l-8.698 15.796a3.102 3.102 0 0 1-2.706 1.584H54.75a3.112 3.112 0 0 1-3.113-3.108V91.6c0-1.788-1.121-3.35-2.77-3.973-.18-.06-.372-.12-.576-.168C24.317 82.156 11.89 68.736 11.89 68.736h-1.697a8.112 8.112 0 0 1-5.16-1.847 6.967 6.967 0 0 1-2.454-4.153L.041 49.196a2.373 2.373 0 0 1 2.139-2.794l9.71-.78 2.826-4.934a34.57 34.57 0 0 1 11.597-12.11l2.213-1.367.048-.037a53.95 53.95 0 0 0-1.55-4.608l-.012-.049-3.466-10.67a34.471 34.471 0 0 1 5.33-.804c13.918-.959 21.52 7.73 21.52 7.73.362-.277.723-.54 1.096-.803a91.75 91.75 0 0 1 11.957-7.347C77.875 3.232 94.21-.203 110.39.735c14.414.827 33.264 4.74 43.802 15.35 18.84 19.048 16.366 53.455-1.058 71.963"
          fill="#F58C61" mask="url(#d)"/>
      </g>
      <path
        d="M632.752 216.961a2.988 2.988 0 0 1 2.99 2.984 2.987 2.987 0 0 1-2.99 2.982 2.987 2.987 0 0 1-2.991-2.982c0-1.649 1.34-2.984 2.99-2.984"
        fill="#CE5E48"/>
      <g transform="translate(759.926 184.13)">
        <mask id="f" fill="#fff">
          <use xlink:href="#e"/>
        </mask>
        <path
          d="M15.545 25.228c-.408 0-.82-.018-1.234-.053-5.385-.45-10.726-3.917-13.296-8.622a3.002 3.002 0 0 1 1.204-4.072 3.017 3.017 0 0 1 4.082 1.204c1.613 2.958 5.114 5.226 8.512 5.51 1.718.146 4.151-.168 5.971-2.478 1.836-2.333 2.297-6.296-.164-8.633-.998-.947-2.85-1.578-4.325-1.45-.836.066-1.447.346-1.815.833-.245.323-.343.78-.262 1.256.086.515.366.975.75 1.234.1.067.237.131.38.184a3 3 0 0 1 2.845-1.425 3.002 3.002 0 0 1 2.72 3.264c-.16 1.728-1.104 3.123-2.588 3.827-2.18 1.033-5.005.273-6.709-.868-1.76-1.178-2.972-3.084-3.331-5.227-.352-2.097.16-4.236 1.4-5.871C11.093 1.99 13.267.857 15.806.65c3.2-.247 6.71.952 8.958 3.086 4.46 4.229 4.787 11.56.747 16.69-2.46 3.122-5.966 4.801-9.966 4.801"
          fill="#F58C61" mask="url(#f)"/>
      </g>
      <path
        d="M724.653 190.394c-.303 0-.613-.047-.916-.144a47.442 47.442 0 0 0-7.085-1.665c-7.818-1.224-16.48-.684-25.746 1.605a3.01 3.01 0 0 1-3.642-2.192 2.999 2.999 0 0 1 2.197-3.633c10.048-2.483 19.508-3.055 28.124-1.706a53.41 53.41 0 0 1 7.983 1.875 3 3 0 0 1-.915 5.86"
        fill="#CE5E48"/>
      <path
        d="M699.61 174.96c-3.524 4.577-10.337 4.577-13.905.045-2.41-3.097-2.456-7.536-.046-10.636 3.52-4.577 10.334-4.577 13.904-.046 2.456 3.054 2.456 7.493.046 10.636"
        fill="#F7F8F6"/>
      <path
        d="M700.815 169.641c0-1.803-.602-3.607-1.716-4.993a8.15 8.15 0 0 0-6.489-3.192 8.153 8.153 0 0 0-6.49 3.192 8.164 8.164 0 0 0-1.666 4.947c0 1.804.602 3.608 1.713 4.994a8.153 8.153 0 0 0 6.49 3.192 8.15 8.15 0 0 0 6.489-3.192c1.113-1.386 1.669-3.144 1.669-4.948m-17.475 0c0-2.034.695-4.07 1.901-5.642 1.808-2.312 4.496-3.652 7.369-3.652 2.922 0 5.61 1.294 7.418 3.606a9.294 9.294 0 0 1 1.947 5.688c0 2.035-.697 4.07-1.901 5.643-1.808 2.312-4.496 3.652-7.371 3.652-2.92 0-5.608-1.294-7.416-3.606a9.28 9.28 0 0 1-1.947-5.689"
        fill="#0F1212"/>
      <path
        d="M693.955 172.185a2.639 2.639 0 0 0 0-1.203 5.05 5.05 0 0 0-.417-1.063c-.139-.277-.324-.554-.463-.878-.139-.28-.28-.51-.419-.787a1.42 1.42 0 0 1-.139-.6c0-.186 0-.37.093-.555.046-.139.185-.323.465-.65.139-.138.324-.276.51-.369.185-.092.37-.138.601-.138.232 0 .417.046.649.138.511.185 1.067.742 1.252 1.25.093.23.139.462.093.647 0 .23-.093.462-.186.646-.138.28-.046.65.232.788.278.139.648.046.787-.231.185-.372.28-.741.326-1.111.047-.37-.046-.785-.187-1.155a5.067 5.067 0 0 0-.37-.695l.231-.231a.585.585 0 0 0 0-.831.588.588 0 0 0-.833 0l-.232.23a5.065 5.065 0 0 0-.694-.37 3.466 3.466 0 0 0-1.16-.23c-.37 0-.741.092-1.065.23-.327.14-.604.37-.882.601-.37.37-.602.693-.741 1.065-.139.37-.185.693-.139 1.016.046.324.093.693.231 1.017.14.325.278.603.464.88.138.277.324.554.463.831.138.231.231.508.277.742.047.23.047.462 0 .692-.046.231-.231.509-.463.74-.185.184-.37.323-.602.462-.231.092-.416.184-.648.184-.231 0-.419-.046-.65-.138-.417-.185-.926-.647-1.158-1.109-.093-.23-.185-.462-.185-.693 0-.23.046-.51.139-.787.139-.278-.047-.647-.324-.74-.278-.138-.65.047-.744.324-.185.416-.231.878-.231 1.296 0 .415.139.831.324 1.154.046.139.139.231.232.37l-.232.23a.59.59 0 0 0 .836.834l.231-.23a4 4 0 0 0 .741.462c.37.138.79.23 1.16.23.37 0 .74-.138 1.111-.323.324-.184.65-.37.882-.646.463-.372.741-.834.834-1.296"
        fill="#2D2E2C"/>
      <path
        d="M691.962 191.051l-16.407-28.3a6.892 6.892 0 0 1 2.549-9.479l15.712-9.063c3.29-1.943 7.554-.788 9.501 2.497l16.41 28.3a6.894 6.894 0 0 1-2.551 9.479l-15.713 9.11c-3.336 1.896-7.6.785-9.501-2.544"
        fill="#01896F"/>
      <path
        d="M702.947 175.792c-4.589 3.469-11.17 1.757-13.442-3.562-1.53-3.605-.37-7.906 2.735-10.264 4.588-3.47 11.17-1.758 13.441 3.56 1.577 3.607.417 7.907-2.734 10.266"
        fill="#F7F8F6"/>
      <path
        d="M680.745 157.757a3.983 3.983 0 0 1-1.484 3.098l16.224 27.93c1.62-.646 3.475-.138 4.589 1.204l14.738-8.509a4.005 4.005 0 0 1-.278-1.48c0-1.201.556-2.359 1.484-3.098l-16.222-27.93c-1.623.646-3.477.138-4.588-1.204l-14.787 8.555c.185.464.324.926.324 1.434m-2.873 2.96v-.14a.719.719 0 0 1 .278-.369c.88-.508 1.389-1.434 1.389-2.45 0-.509-.139-.97-.37-1.389-.14-.277-.047-.646.231-.785l15.713-9.11c.28-.138.65-.045.789.232a2.81 2.81 0 0 0 3.848 1.016c.278-.139.648-.046.787.233l16.777 28.809c.142.277.047.646-.231.785-.88.508-1.39 1.434-1.39 2.45 0 .509.14.97.371 1.389.14.277.047.646-.231.785l-15.713 9.11c-.278.138-.65.046-.79-.232a2.809 2.809 0 0 0-3.845-1.016c-.277.139-.65.046-.79-.233l-16.73-28.855a.352.352 0 0 1-.093-.23"
        fill="#03604E"/>
      <path
        d="M705.82 168.855a7.9 7.9 0 0 0-.648-3.097c-1.02-2.358-2.968-4.116-5.424-4.765a8.15 8.15 0 0 0-7.091 1.435 8.187 8.187 0 0 0-3.197 6.474 7.9 7.9 0 0 0 .648 3.097c1.019 2.358 2.966 4.116 5.422 4.765a8.155 8.155 0 0 0 7.093-1.435c1.991-1.48 3.198-3.93 3.198-6.474m-17.521.047c0-2.913 1.345-5.69 3.662-7.398a9.424 9.424 0 0 1 8.11-1.62c2.83.74 5.054 2.728 6.212 5.41a9.216 9.216 0 0 1 .697 3.561c0 2.913-1.346 5.69-3.663 7.398a9.43 9.43 0 0 1-8.112 1.62c-2.827-.74-5.052-2.728-6.212-5.41a9.214 9.214 0 0 1-.694-3.561"
        fill="#0F1212"/>
      <path
        d="M698.219 171.722c.185-.37.324-.785.324-1.157 0-.37 0-.739-.092-1.108-.093-.324-.14-.647-.232-.97-.093-.28-.139-.603-.185-.88a1.523 1.523 0 0 1 0-.647c.046-.185.092-.323.231-.508.093-.093.232-.28.602-.51.185-.093.37-.185.604-.232a1.325 1.325 0 0 1 1.204.324c.417.325.834 1.018.88 1.526.049.231 0 .462-.093.693-.092.234-.185.418-.37.603-.231.231-.185.6.046.832.232.23.605.184.836-.047.278-.277.463-.6.602-.97.139-.371.185-.787.139-1.203-.046-.23-.093-.508-.185-.785l.278-.139c.277-.138.37-.51.231-.787-.139-.278-.51-.37-.787-.231l-.278.138a3.071 3.071 0 0 0-.558-.554 3.227 3.227 0 0 0-1.065-.508 2.808 2.808 0 0 0-1.067-.046 2.25 2.25 0 0 0-.972.37c-.417.23-.741.507-.973.83-.234.324-.372.65-.419.973a3.735 3.735 0 0 0 0 1.016c.047.324.14.65.185.973.095.323.142.6.234.923.047.278.093.555.093.786 0 .233-.093.464-.185.695-.142.23-.327.416-.65.6a2.186 2.186 0 0 1-.695.278 1.758 1.758 0 0 1-.695 0 1.767 1.767 0 0 1-.604-.278c-.37-.277-.695-.831-.834-1.388a1.98 1.98 0 0 1 0-.739c0-.23.14-.462.324-.693.186-.277.14-.602-.138-.833-.278-.185-.602-.139-.834.138a3.178 3.178 0 0 0-.558 1.203 2.639 2.639 0 0 0 0 1.204l.141.416-.326.184c-.278.139-.37.508-.232.786.14.277.51.37.79.23l.278-.138c.185.231.37.462.602.6.324.28.694.419 1.065.51a2.46 2.46 0 0 0 1.16 0c.37-.091.694-.23 1.018-.417.558-.323.928-.693 1.16-1.063"
        fill="#2D2E2C"/>
      <g transform="translate(678.897 142.556)">
        <mask id="h" fill="#fff">
          <use xlink:href="#g"/>
        </mask>
        <path
          d="M38.418 41.836c3.244-1.896 4.357-6.012 2.456-9.248L24.328 4.011C22.983 1.745 20.573.495 18.071.634l-2.688.741c-.093.047-.232.093-.327.185L.781 9.792a10.114 10.114 0 0 0-.648 3.559c0 .926.14 1.804.37 2.682l5.469 20.302 7.186 12.345c1.898 3.238 6.024 4.347 9.27 2.45l15.99-9.294z"
          fill="#0A0D0E" opacity=".3" mask="url(#h)"/>
      </g>
      <path
        d="M691.36 189.387l-8.53-31.536c-1.018-3.7 1.206-7.54 4.913-8.51l17.52-4.762c3.71-.972 7.557 1.201 8.53 4.901l8.528 31.583c1.019 3.7-1.206 7.539-4.912 8.509l-17.567 4.716c-3.663 1.019-7.51-1.201-8.483-4.901"
        fill="#01896F"/>
      <path
        d="M705.913 177.503c-5.33 2.173-11.263-1.204-12.05-6.89-.558-3.885 1.667-7.724 5.33-9.248 5.375-2.173 11.263 1.201 12.05 6.936.558 3.885-1.667 7.721-5.33 9.202"
        fill="#F7F8F6"/>
      <path
        d="M689.273 153.318c0 1.573-.972 3.005-2.41 3.654l8.437 31.167a4.162 4.162 0 0 1 2.456.508 3.822 3.822 0 0 1 1.67 1.85l16.499-4.485c0-.139-.046-.324-.046-.462 0-1.573.972-3.007 2.41-3.654l-8.437-31.12c-1.715.184-3.428-.74-4.125-2.359l-16.5 4.44c0 .138.046.323.046.461m-3.708 3.282c0-.277.185-.508.419-.554a2.829 2.829 0 0 0 2.083-2.728c0-.23-.046-.508-.092-.739-.047-.138 0-.323.046-.418a.58.58 0 0 1 .373-.277l17.567-4.716c.324-.093.648.092.694.415.417 1.48 1.947 2.405 3.475 1.989.327-.092.65.092.697.416l8.714 32.185c.046.139 0 .323-.046.416-.093.138-.185.23-.373.277a2.831 2.831 0 0 0-2.083 2.73c0 .23.046.508.092.74.046.138 0 .322-.046.415-.095.138-.188.23-.373.277l-17.52 4.716c-.14.047-.325 0-.417-.046-.14-.092-.232-.185-.278-.37a2.712 2.712 0 0 0-1.297-1.71 2.85 2.85 0 0 0-2.132-.278c-.326.092-.65-.092-.697-.416l-8.76-32.183c0-.046-.046-.094-.046-.14"
        fill="#03604E"/>
      <path
        d="M710.734 169.457c0-.37-.047-.74-.093-1.111-.37-2.543-1.808-4.717-4.033-6.01-2.225-1.296-4.82-1.434-7.23-.462-3.012 1.247-5.051 4.252-5.051 7.536 0 .37.046.74.092 1.11.37 2.544 1.806 4.718 4.03 6.011 2.226 1.296 4.823 1.434 7.233.462 3.058-1.247 5.052-4.254 5.052-7.536m-17.52 0c0-3.747 2.316-7.167 5.747-8.602 2.735-1.108 5.7-.923 8.25.509 2.55 1.434 4.217 3.93 4.588 6.843.048.418.095.834.095 1.25 0 3.746-2.32 7.167-5.749 8.6-2.734 1.11-5.702.925-8.25-.507-2.55-1.435-4.219-3.931-4.59-6.844-.046-.418-.092-.834-.092-1.25"
        fill="#0F1212"/>
      <path
        d="M702.39 172.324c.278-.324.51-.647.649-1.063.092-.325.185-.695.185-1.11v-.97c0-.28 0-.604.046-.88.047-.232.093-.417.186-.601.094-.139.187-.277.372-.416.093-.092.324-.231.695-.323.185-.047.417-.093.648-.047.185 0 .417.093.604.185.185.093.37.231.51.462.324.416.555 1.201.463 1.712a2.667 2.667 0 0 1-.232.646 1.65 1.65 0 0 1-.51.462c-.277.185-.372.555-.184.786.185.279.555.371.787.187.324-.234.602-.465.833-.788a2.31 2.31 0 0 0 .417-1.109c.046-.23.046-.51 0-.787l.28-.093c.324-.092.51-.415.417-.693-.093-.323-.417-.508-.697-.415l-.278.092c-.093-.23-.231-.462-.37-.693-.278-.325-.556-.603-.88-.787-.324-.185-.697-.278-1.021-.324-.37-.046-.695 0-1.065.093-.463.138-.882.323-1.16.554-.278.23-.51.51-.648.834a3.828 3.828 0 0 0-.278.97c-.046.323-.046.647-.046 1.018v.97c0 .278-.047.555-.14.786-.092.233-.184.418-.37.603-.185.184-.419.323-.789.415-.232.046-.51.093-.74.093-.232 0-.464-.047-.65-.185a1.474 1.474 0 0 1-.51-.416c-.279-.372-.464-1.018-.464-1.573 0-.23.093-.462.185-.693.14-.23.278-.418.558-.602.232-.185.278-.555.093-.832-.185-.23-.558-.277-.836-.092a2.89 2.89 0 0 0-.833 1.016c-.185.372-.278.788-.324 1.157v.416l-.324.092c-.327.093-.512.416-.42.693.093.326.42.51.697.418l.325-.092c.092.277.231.554.416.739.278.323.556.6.926.785.327.185.743.277 1.114.277.37 0 .74 0 1.111-.138.512-.185.975-.416 1.253-.74"
        fill="#2D2E2C"/>
      <path
        d="M717.594 189.525c3.616-.97 5.748-4.716 4.773-8.324l-8.621-31.86a6.892 6.892 0 0 0-5.005-4.854h-3.059c-.092 0-.185.046-.28.046l-15.805 4.254c-1.204 1.663-1.898 3.744-1.898 5.964v21.133l3.706 13.641c.975 3.608 4.728 5.735 8.344 4.763l17.845-4.763z"
        fill="#0A0D0E" opacity=".3"/>
      <path
        d="M691.174 187.768v-33.017c0-3.746 3.058-6.797 6.813-6.797h18.493c3.755.046 6.814 3.051 6.814 6.797v33.017c0 3.747-3.059 6.798-6.814 6.798h-18.493c-3.755 0-6.813-3.051-6.813-6.798"
        fill="#01896F"/>
      <path
        d="M708.37 179.953c-5.749.74-10.522-4.07-9.825-9.802.509-3.885 3.66-7.03 7.554-7.539 5.748-.739 10.522 4.07 9.825 9.805-.51 3.883-3.66 7.028-7.554 7.536"
        fill="#F7F8F6" opacity=".3"/>
      <path
        d="M695.345 155.122v32.277c1.716.231 3.105 1.617 3.336 3.329h17.104c.232-1.712 1.623-3.098 3.339-3.329v-32.277c-1.716-.231-3.107-1.62-3.339-3.329h-17.104c-.231 1.71-1.62 3.098-3.336 3.329m-1.16 32.832v-33.34c0-.324.28-.555.558-.555a2.807 2.807 0 0 0 2.827-2.822c0-.324.278-.555.556-.555h18.215c.326 0 .558.278.558.555a2.806 2.806 0 0 0 2.827 2.822c.324 0 .555.277.555.555v33.34a.562.562 0 0 1-.555.554 2.805 2.805 0 0 0-2.827 2.82.565.565 0 0 1-.558.557h-18.169a.564.564 0 0 1-.556-.557c0-1.57-1.252-2.82-2.826-2.82-.324 0-.605-.231-.605-.554"
        fill="#03604E"/>
      <path
        d="M715.415 171.26a8.065 8.065 0 0 0-2.78-6.104c-1.808-1.571-4.08-2.266-6.49-1.989-3.616.464-6.581 3.423-7.044 7.03-.325 2.728.694 5.41 2.687 7.168 1.809 1.57 4.08 2.265 6.49 1.988 3.614-.464 6.582-3.423 7.045-7.03.092-.324.092-.693.092-1.063m-17.52 0c0-.416.046-.785.092-1.203.51-4.114 3.894-7.49 8.066-8.045 2.688-.323 5.376.462 7.369 2.266 2.317 2.035 3.477 5.086 3.104 8.185-.555 4.16-3.938 7.537-8.063 8.045-2.688.323-5.378-.462-7.37-2.266a9.201 9.201 0 0 1-3.199-6.982"
        fill="#03604E"/>
      <text transform="rotate(90 332.435 403.647)" font-family="BentonSans-Bold, BentonSans" font-size="8.552"
            font-weight="bold">
        <tspan x="96.963" y="31.873" fill="#03604E">$</tspan>
      </text>
      <g>
        <path
          d="M723.4 178.967c-.107 4.906-4.179 8.795-9.094 8.689-4.917-.106-8.816-4.169-8.71-9.072.107-4.906 4.18-8.796 9.094-8.69 4.918.107 8.816 4.167 8.71 9.073"
          fill="#FCDC3F"/>
        <path
          d="M723.4 178.967c-.107 4.906-4.179 8.795-9.094 8.689-4.917-.106-8.816-4.169-8.71-9.072.107-4.906 4.18-8.796 9.094-8.69 4.918.107 8.816 4.167 8.71 9.073z"
          stroke="#DFBD29" stroke-width=".816"/>
      </g>
      <text font-family="BentonSans-Bold, BentonSans" font-size="9.2" font-weight="bold" transform="translate(606 142)">
        <tspan x="105.35" y="37.838" fill="#DFBD29">$</tspan>
      </text>
      <g>
        <path
          d="M714.052 185.022c-.106 4.906-4.179 8.795-9.093 8.689-4.918-.106-8.816-4.169-8.71-9.072.107-4.906 4.179-8.796 9.094-8.69 4.917.107 8.816 4.167 8.71 9.073"
          fill="#FCDC3F"/>
        <path
          d="M714.052 185.022c-.106 4.906-4.179 8.795-9.093 8.689-4.918-.106-8.816-4.169-8.71-9.072.107-4.906 4.179-8.796 9.094-8.69 4.917.107 8.816 4.167 8.71 9.073z"
          stroke="#DFBD29" stroke-width=".816"/>
      </g>
      <text font-family="BentonSans-Bold, BentonSans" font-size="9.2" font-weight="bold" transform="translate(606 142)">
        <tspan x="96.002" y="43.892" fill="#DFBD29">$</tspan>
      </text>
      <g>
        <path
          d="M724.653 198.638c-.303 0-.613-.062-.916-.192a38.06 38.06 0 0 0-7.085-2.205c-7.818-1.626-16.48-.908-25.746 2.13-1.609.521-3.243-.775-3.642-2.909-.4-2.132.584-4.289 2.197-4.818 10.048-3.291 19.508-4.053 28.124-2.263a42.588 42.588 0 0 1 7.983 2.487c1.583.67 2.454 2.91 1.95 5-.41 1.691-1.591 2.77-2.865 2.77"
          fill="#F58C61"/>
        <path d="M629.546 185.611s5.582 4.051 11.224 13.027c0 0-2.806.152-6.195 2.3l-5.029-15.327z" fill="#CE5E48"/>
      </g>
    </g>
  </g>
</svg>
