<?xml version="1.0" standalone="no"?>
<!DOCTYPE svg PUBLIC "-//W3C//DTD SVG 1.1//EN" "http://www.w3.org/Graphics/SVG/1.1/DTD/svg11.dtd" >
<svg xmlns="http://www.w3.org/2000/svg" viewBox="39.3 31.9 80 9">
  <path fill="#43413E"
        d="M48.3 32h-1.7c-.1 0-.2.1-.2.1l-2.5 6-2.5-6c-.1-.1-.1-.1-.2-.1h-1.8c-.1 0-.2.1-.2.2v8.3c0 .1.1.2.2.2h1.3c.1 0 .2-.1.2-.2v-5.2l2.2 5.2c.1.1.1.1.2.1h1.1c.1 0 .2-.1.2-.1l2.2-5.2v5.2c0 .1.1.2.2.2h1.3c.1 0 .2-.1.2-.2v-8.3c0-.1-.2-.2-.2-.2zm10.5 0h-1.3c-.1 0-.2.1-.2.2v5.1c0 1.3-.3 2-2.1 2-1.7 0-2.1-.7-2.1-2v-5.1c0-.1-.1-.2-.2-.2h-1.4c-.1 0-.2.1-.2.2v5.2c0 1.7.5 3.4 3.8 3.4 3.4 0 3.9-1.7 3.9-3.4v-5.2c0-.1 0-.2-.2-.2zm10.9 8.5v-8.3c0-.1-.1-.2-.2-.2h-1.3c-.1 0-.2.1-.2.2v5.5l-4-5.6-.2-.1h-1.5c-.1 0-.2.1-.2.2v8.3c0 .1.1.2.2.2h1.3c.1 0 .2-.1.2-.2v-5.8l4.3 5.9.2.1h1.3c0 .1.1-.1.1-.2zm7.2.4c1.9 0 2.7-.6 3.4-1.3l.1-.1-.1-.1-.9-.9-.1-.1-.1.1c-.5.5-.9.8-2.1.8-1.9 0-2.7-.9-2.7-2.8s.8-2.8 2.7-2.8c.8 0 1.4.2 2 .7l.1.1.1-.1 1-1 .1-.1-.1-.1c-.8-.8-1.8-1.2-3.2-1.2-2.9 0-4.5 1.5-4.5 4.5-.1 2.9 1.4 4.4 4.3 4.4zm33-6.1c0-1.9-1-2.8-3.2-2.8h-3.8c-.1 0-.2.1-.2.2v8.3c0 .1.1.2.2.2h1.3c.1 0 .2-.1.2-.2v-2.8h1.9l1.7 3 .2.1h1.5c.1 0 .1-.1.2-.1v-.2l-1.7-3c1-.3 1.7-1.3 1.7-2.7zm-3.3 1.3h-2.3v-2.5h2.3c1.2 0 1.5.3 1.5 1.3 0 .9-.4 1.2-1.5 1.2zm12.6-4c-.1-.1-.1-.1-.2-.1h-1.4c-.1 0-.2.1-.2.1l-2.4 3.6-2.4-3.6c-.1-.1-.1-.1-.2-.1h-1.5c-.1 0-.2.1-.2.1-.1.1-.1.2 0 .3l3.3 5.1v3c0 .2.1.3.3.3h1.4c.2 0 .3-.1.3-.3v-3l3.3-5.1c0-.1 0-.2-.1-.3zM89.8 32h-1.4c-.1 0-.2.1-.2.2v3.7h-4.1v-3.7c0-.1-.1-.2-.2-.2h-1.4c-.1 0-.2.1-.2.7v7.8s-.1.3.3.3H84c.1 0 .2-.1.2-.2v-3h4.1v3c0 .1.1.2.2.2h1.2s.3 0 .3-.3v-7.8c0-.6-.1-.7-.2-.7zm9.5 7.1h-4.4v-1.5h4.2c.1 0 .2-.1.2-.2v-1.3c0-.1-.1-.2-.2-.2h-4.2v-2.2h4.4c.1 0 .2-.1.2-.2v-1.3c0-.1-.1-.2-.2-.2h-5.9c-.1 0-.2.1-.2.7v7.7s-.1.3.3.3h5.8c.1 0 .2-.1.2-.2v-1.4c0 .1-.1 0-.2 0z"/>
</svg>
