<?xml version="1.0" standalone="no"?>
<!DOCTYPE svg PUBLIC "-//W3C//DTD SVG 1.1//EN" "http://www.w3.org/Graphics/SVG/1.1/DTD/svg11.dtd" >
<svg xmlns="http://www.w3.org/2000/svg" id="Layer_1" viewBox="-325.6 181.4 166.5 22.1">
  <style>.st0{fill:#363738}</style>
  <path class="st0"
        d="M-283.8 183.9h-3.1c-.1 0-.2.1-.3.2l-4.4 10.4-4.4-10.4c0-.1-.2-.2-.3-.2h-3.1c-.2 0-.3.1-.3.3v14.5c0 .2.1.3.3.3h2.4c.2 0 .3-.1.3-.3v-9l3.8 9.1c0 .1.2.2.3.2h2c.1 0 .2-.1.3-.2l3.8-9.1v9c0 .2.1.3.3.3h2.4c.2 0 .3-.1.3-.3v-14.5c0-.2-.1-.3-.3-.3M-265.2 183.9h-2.3c-.2 0-.3.1-.3.3v8.8c0 2.2-.6 3.4-3.7 3.4s-3.7-1.3-3.7-3.4v-8.8c0-.2-.1-.3-.3-.3h-2.5c-.2 0-.3.1-.3.3v9.1c0 3 .8 6 6.7 6s6.7-3 6.7-6v-9.1c0-.2-.2-.3-.3-.3M-246.5 183.9h-2.3c-.2 0-.3.1-.3.3v9.5l-7.2-9.7c-.1-.1-.2-.1-.3-.1h-2.6c-.2 0-.3.1-.3.3v14.5c0 .2.1.3.3.3h2.3c.2 0 .3-.1.3-.3v-10l7.6 10.2c.1.1.2.1.3.1h2.2c.2 0 .3-.1.3-.3v-14.5c0-.2-.1-.3-.3-.3M-229.7 195c-.1-.1-.1-.1-.2-.1s-.2 0-.2.1c-.9.8-1.7 1.4-3.6 1.4-3.3 0-4.8-1.5-4.8-4.9 0-3.3 1.5-4.9 4.8-4.9 1.5 0 2.5.4 3.5 1.3.1.1.1.1.2.1s.2 0 .2-.1l1.7-1.7c.1-.1.1-.1.1-.2s0-.2-.1-.2c-1.4-1.4-3.3-2.1-5.7-2.1-5.1 0-7.8 2.7-7.8 7.8 0 5.2 2.5 7.8 7.7 7.8 3.3 0 4.8-1.1 5.9-2.2.1-.1.1-.1.1-.2s0-.2-.1-.2l-1.7-1.7M-181.3 190.9h-4v-4.3h4c2 0 2.7.5 2.7 2.2-.1 1.6-.8 2.1-2.7 2.1zm5.7-2.2c0-3.3-1.8-4.8-5.6-4.8h-6.8c-.2 0-.3.1-.3.3v14.5c0 .2.1.3.3.3h2.3c.2 0 .3-.1.3-.3v-5h3.4l3 5.1c.1.1.2.2.3.2h2.6c.1 0 .2-.1.3-.2.1-.1.1-.2 0-.3l-3-5.1c2.1-.6 3.2-2.2 3.2-4.7zM-159.2 184c-.1-.1-.2-.2-.4-.2h-2.5c-.2 0-.3.1-.4.2l-4.2 6.3-4.1-6.3c-.1-.1-.2-.2-.4-.2h-2.6c-.2 0-.3.1-.4.2-.1.1-.1.3 0 .4l5.8 8.9v5.2c0 .2.2.4.4.4h2.4c.2 0 .4-.2.4-.4v-5.2l5.8-8.9c.3-.1.3-.2.2-.4M-210.8 183.9h-2.4c-.2 0-.3.1-.3.3v6.4h-7.1v-6.4c0-.2-.1-.3-.3-.3h-2.4c-.2 0-.3.1-.3 1.2v13.5s0 .5.6.5h2.2c.2 0 .3-.1.3-.3v-5.1h7.1v5.1c0 .2.1.3.3.3h2.2s.5 0 .5-.5v-13.5c-.1-1.1-.3-1.2-.4-1.2M-194.3 183.9h-10.4c-.2 0-.3.1-.3 1.2v13.4s-.1.6.5.6h10.2c.2 0 .3-.1.3-.3v-2.2c0-.2-.1-.3-.3-.3h-7.7v-2.6h7.5c.2 0 .3-.1.3-.3V191c0-.2-.1-.3-.3-.3h-7.5v-3.9h7.7c.2 0 .3-.1.3-.3v-2.3c.1-.2-.1-.3-.3-.3M-312.4 192.8c0 .3-.3.6-.6.6s-.6-.2-.7-.6v-1.3-2.3-3.8c0-.9-.1-2.2 1-2.5h.1V186.7l.2 6.1zm.3 4.8l.2 4.2v.1c0 .2-.1.3-.3.3-.2 0-.3-.1-.3-.3l.4-4.3zm1.5 4.3l-.1-1.6-.5-5.4c0-1.1-.1-2.9-.1-3.4l-.1-3.5v-6.4s0-.1-.1-.1c-.2-.1-.6-.1-.8-.1-1.2 0-2.3.8-2.6 1.9-.2.7-.1 1.5-.1 2.3v6c0 .6-.1 1.3.2 1.8.3.6.7 1.1 1.3 1.3 0 0 .5.6.5 1.5 0 .3-.1.7-.1 1.1l-.6 4v.5c0 .2 0 .4.1.7.2.6.8 1 1.5 1s1.4-.5 1.5-1.2v-.4zM-322.7 202.3c-.2 0-.4-.2-.4-.5l.3-7v-.1l.1.1.4 6.8v.1c0 .4-.2.6-.4.6zm2.4-15v-.2c0-1.5 0-3-.1-4.5v-.6c0-.1-.1-.2-.2-.2h-.8c-.1 0-.2.1-.2.2l-.1 5.4c-.1.2-.2.2-.3.2h-.1c-.1-.1-.1-.2-.1-.4v-.1l-.1-5.2c0-.1-.1-.2-.2-.2h-.8c-.1 0-.2.1-.2.2l-.1 5.4c-.1.2-.2.2-.3.2-.1 0-.2-.1-.3-.2l-.1-5.4c0-.1-.1-.2-.2-.2h-.8c-.1 0-.2.1-.2.2l-.1 5.3c0 .3.1.6.2.8.3.7.9 1.2 1.7 1.5-.1.8-.1 1.7-.2 2.5-.1.9-.2 1.8-.3 2.8-.1.8-.2 1.7-.2 2.5-.1.6-.1 1.1-.2 1.7s-.1 1.3-.1 1.9c0 .6-.1 1.3.3 1.8.3.4.9.7 1.4.7s1-.2 1.3-.6c.4-.4.5-1 .4-1.5 0-.7-.1-1.4-.2-2.1 0-.4-.1-.8-.1-1.2 0-.3-.1-.7-.1-1-.2-1.6-.3-3.3-.5-4.9 0-.5-.1-.9-.1-1.4 0-.1-.1-1.2-.1-1.2 1.4-.2 2.1-1.2 2.1-2.2z"/>
</svg>
