<?xml version="1.0" standalone="no"?>
<!DOCTYPE svg PUBLIC "-//W3C//DTD SVG 1.1//EN" "http://www.w3.org/Graphics/SVG/1.1/DTD/svg11.dtd" >
<svg xmlns="http://www.w3.org/2000/svg" width="151.6" height="60" viewBox="6.2 1.1 151.6 60">
  <path fill="#43413E"
        d="M23.3 44.3H20c-.1 0-.3.1-.3.2L15 55.9l-4.7-11.4c-.1-.1-.2-.2-.3-.2H6.5c-.2 0-.3.2-.3.3v15.8c0 .2.2.3.3.3H9c.2 0 .3-.2.3-.3v-9.8l4.1 9.9c.1.1.2.2.3.2h2.1c.1 0 .3-.1.3-.2l4.1-9.9v9.8c0 .2.2.3.3.3H23c.2 0 .3-.2.3-.3V44.6c.3-.2.1-.3 0-.3zm20 0h-2.5c-.2 0-.3.2-.3.3v9.6c0 2.4-.6 3.8-4 3.8-3.3 0-4-1.4-4-3.8v-9.6c0-.2-.2-.3-.3-.3h-2.6c-.2 0-.3.2-.3.3v9.9c0 3.2.9 6.5 7.2 6.5 6.4 0 7.3-3.3 7.3-6.5v-9.9c-.2-.2-.3-.3-.5-.3zm20.5 16.1V44.6c0-.2-.2-.3-.3-.3H61c-.2 0-.3.2-.3.3V55L53 44.4l-.3-.1h-2.8c-.2 0-.3.2-.3.3v15.8c0 .2.2.3.3.3h2.5c.2 0 .3-.2.3-.3v-11l8.2 11.2.3.1h2.4c.1.1.2-.1.2-.3zm13.8.6c3.6 0 5.2-1.2 6.4-2.4l.1-.2-.1-.2-1.8-1.8-.2-.1-.2.1c-.9.9-1.8 1.5-3.9 1.5-3.6 0-5.2-1.7-5.2-5.4 0-3.6 1.6-5.3 5.2-5.3 1.6 0 2.7.4 3.8 1.4l.2.1.2-.1 1.9-1.9.1-.2-.1-.2c-1.6-1.5-3.5-2.3-6.1-2.3-5.5 0-8.5 2.9-8.5 8.5-.2 5.7 2.6 8.5 8.2 8.5zM140 49.5c0-3.6-1.9-5.3-6.1-5.3h-7.2c-.2 0-.3.2-.3.3v15.8c0 .2.2.3.3.3h2.5c.2 0 .3-.2.3-.3V55h3.6l3.2 5.6.3.2h2.8c.1 0 .2-.1.3-.2v-.3l-3.2-5.6c2.3-.7 3.5-2.5 3.5-5.2zm-6.2 2.5h-4.3v-4.7h4.3c2.2 0 2.9.6 2.9 2.4 0 1.7-.8 2.3-2.9 2.3zm23.9-7.6c-.1-.2-.2-.2-.4-.2h-2.7c-.2 0-.3.1-.4.2l-4.5 6.9-4.5-6.9c-.1-.1-.2-.2-.4-.2H142c-.2 0-.3.1-.4.2-.1.2-.1.3 0 .5l6.3 9.7v5.7c0 .3.2.5.5.5h2.6c.3 0 .5-.2.5-.5v-5.7l6.3-9.7c0-.2 0-.3-.1-.5zM86.3 15.7c0 .9-.1 1.8.3 2.6s1 1.5 1.8 1.9c0 0 .8.9.6 2.1-.1.5-.1 1-.2 1.5l-.8 5.8v.7c0 .3.1.6.2 1 .3.9 1.1 1.4 2 1.4 1 0 1.9-.7 2.2-1.8v-.5l-.1-2.3-.7-7.7c-.1-1.5-.2-4.2-.2-4.9l-.1-5V1.3l-.1-.1c-.3-.1-.9-.2-1.2-.2-1.6 0-3.2 1.1-3.6 2.7-.3 1.1-.1 2.2-.1 3.3v8.7zm4 8.5h.1l.2 6v.1c0 .3-.2.5-.5.5s-.5-.2-.5-.5l.7-6.1zm-.8-21h.1V8.6l.2 8.8c0 .5-.4.9-.9.9s-.8-.3-.9-.9v-1.9-3.3-5.9-.6c0-.1-.2-2 1.5-2.5zM102 44.3h-2.6c-.2 0-.3.2-.3.3v7h-7.7v-7c0-.2-.2-.3-.3-.3h-2.6c-.2 0-.3.2-.3 1.3v14.7s-.1.5.6.5H91c.2 0 .3-.2.3-.3v-5.6H99v5.6c0 .2.2.3.3.3h2.3s.6 0 .6-.5V45.5c.1-1.1 0-1.2-.2-1.2zm18 13.4h-8.3v-2.9h8c.2 0 .3-.2.3-.3V52c0-.2-.2-.3-.3-.3h-8v-4.2h8.3c.2 0 .3-.2.3-.3v-2.5c0-.2-.2-.3-.3-.3h-11.2c-.2 0-.3.2-.3 1.3v14.6s-.1.6.6.6h11c.2 0 .3-.2.3-.3V58c-.1-.2-.2-.3-.4-.3zM74.2 12.8l-.3 3.6c-.1 1.3-.2 2.6-.4 4l-.3 3.6c-.1.8-.2 1.6-.2 2.4-.1.9-.1 1.8-.2 2.7-.1.9-.2 1.8.4 2.5.5.6 1.2 1.1 2 1.1.7 0 1.4-.3 1.9-.9.6-.6.6-1.4.6-2.2 0-1-.1-2-.2-3-.1-.6-.1-1.2-.2-1.7 0-.5-.1-1-.1-1.5-.2-2.3-.5-4.7-.7-7-.1-.6-.1-1.3-.2-1.9 0-.1-.2-1.7-.1-1.7 1.5-.4 2.4-1.8 2.6-3.3v-.3c0-2.1 0-4.3-.1-6.4V2c0-.2-.1-.3-.2-.3h-1.2c-.1 0-.2.1-.2.3L77 9.8c-.1.3-.3.3-.5.3l-.2-.1c-.2-.1-.2-.4-.2-.5v-.1L76 2c0-.2-.1-.3-.2-.3h-1.2c-.1 0-.2.1-.2.3l-.1 7.8c-.1.3-.3.3-.5.3s-.3-.1-.5-.3L73.2 2c0-.2-.1-.3-.2-.3h-1.2c-.1 0-.2.1-.2.3l-.1 7.5v.1c0 .4.1.8.3 1.1.5 1 1.4 1.8 2.4 2.1zm1 7.4h.1l.6 9.8v.2c0 .4-.2.8-.6.8-.3 0-.6-.3-.6-.7l.5-10.1z"/>
</svg>
