<?xml version="1.0" standalone="no"?>
<!DOCTYPE svg PUBLIC "-//W3C//DTD SVG 1.1//EN" "http://www.w3.org/Graphics/SVG/1.1/DTD/svg11.dtd" >
<svg xmlns="http://www.w3.org/2000/svg" width="50" height="25" viewBox="0 0 50 25">
  <g fill="#515252">
    <path
      d="M28.3 2.1l.3-.4.3-.4.6-.9c.1-.1 0-.3-.1-.3-.1-.1-.3 0-.3.1l-.6 1-.3.4-.3.4c-.9-.4-1.9-.6-2.9-.6s-2 .2-2.9.5l-.3-.4-.3-.4-.6-1c0-.1-.2-.1-.3-.1-.1.1-.1.2-.1.3l.6.9.3.4.3.4c-2.1 1-3.4 2.8-3.4 4.8h13.5c0-1.9-1.4-3.8-3.5-4.7zM22.1 5c-.4 0-.7-.3-.7-.7s.3-.7.7-.7c.4 0 .7.3.7.7s-.3.7-.7.7zm5.8 0c-.4 0-.7-.3-.7-.7s.3-.7.7-.7c.4 0 .7.3.7.7s-.3.7-.7.7zM18.3 7.9h-.1v10.7c0 .8.7 1.5 1.5 1.5h1.1c0 .1-.1.3-.1.4v3c0 .8.7 1.5 1.5 1.5s1.5-.7 1.5-1.5v-3.1c0-.1 0-.3-.1-.4h2.7c0 .1-.1.3-.1.4v3.1c0 .8.7 1.5 1.5 1.5s1.5-.7 1.5-1.5v-3.1c0-.1 0-.3-.1-.4h1.1c.8 0 1.5-.7 1.5-1.5V7.9H18.3zM15.8 7.9c-.8 0-1.5.6-1.5 1.5v6.2c0 .8.6 1.5 1.5 1.5.8 0 1.5-.7 1.5-1.5V9.4c0-.8-.7-1.5-1.5-1.5zM34.2 7.9c-.8 0-1.5.6-1.5 1.5v6.2c0 .8.6 1.5 1.5 1.5.8 0 1.5-.7 1.5-1.5V9.4c-.1-.8-.7-1.5-1.5-1.5z"/>
  </g>
</svg>
