<?xml version="1.0" standalone="no"?>
<!DOCTYPE svg PUBLIC "-//W3C//DTD SVG 1.1//EN" "http://www.w3.org/Graphics/SVG/1.1/DTD/svg11.dtd" >
<svg xmlns="http://www.w3.org/2000/svg" width="50" height="25" viewBox="0 0 50 25">
  <path fill="#515252"
        d="M23.9 2.7h2.2c.1 0 .3-.1.3-.3 0-.1-.1-.3-.3-.3h-2.2c-.1 0-.3.1-.3.3.1.2.2.3.3.3zM25 21.6c-.6 0-1.1.5-1.1 1.1 0 .6.5 1.1 1.1 1.1.6 0 1.1-.5 1.1-1.1 0-.6-.5-1.1-1.1-1.1zm-5.5-1h11V4.4h-11v16.2zm12.3 2.2c0 1.2-1 2.2-2.2 2.2h-9.3c-1.2 0-2.2-1-2.2-2.2V2.2c0-1.2 1-2.2 2.2-2.2h9.3c1.2 0 2.2 1 2.2 2.2v20.6z"/>
</svg>
