<?xml version="1.0" standalone="no"?>
<!DOCTYPE svg PUBLIC "-//W3C//DTD SVG 1.1//EN" "http://www.w3.org/Graphics/SVG/1.1/DTD/svg11.dtd" >
<svg xmlns="http://www.w3.org/2000/svg" width="16" height="16" viewBox="0 0 16 16">
  <title>settings</title>
  <g fill="none" fill-rule="evenodd">
    <path d="M0 0h16v16H0z"/>
    <g stroke="#F27242" stroke-width="1.5">
      <path d="M10.738 7.956a2.844 2.844 0 1 1-5.688 0 2.844 2.844 0 0 1 5.688 0z"/>
      <path
        d="M10.727 3.283l.62-.44a1.057 1.057 0 0 1 1.327.118l.127.13c.338.345.397.943.116 1.357l-.431.635c.285.476.5 1.001.631 1.56l.744.137c.472.087.856.554.856 1.033v.205c0 .483-.388.946-.856 1.033l-.744.137a5.46 5.46 0 0 1-.632 1.56l.431.635c.275.404.223 1.01-.115 1.358l-.127.13a1.061 1.061 0 0 1-1.326.118l-.62-.44c-.467.29-.98.511-1.526.645l-.137.78a1.071 1.071 0 0 1-1.017.857h-.18c-.477 0-.932-.38-1.016-.857l-.137-.78a5.206 5.206 0 0 1-1.523-.646l-.622.441c-.395.28-.988.228-1.327-.119l-.127-.13A1.11 1.11 0 0 1 3 11.384l.431-.635a5.48 5.48 0 0 1-.632-1.56l-.743-.137c-.473-.087-.856-.554-.856-1.033v-.205c0-.483.387-.946.856-1.033l.743-.137a5.46 5.46 0 0 1 .633-1.56L3 4.448c-.275-.404-.223-1.011.115-1.358l.127-.13a1.062 1.062 0 0 1 1.327-.118l.62.441a5.204 5.204 0 0 1 1.525-.646l.137-.78A1.07 1.07 0 0 1 7.87 1h.179c.478 0 .933.38 1.017.857l.137.78a5.206 5.206 0 0 1 1.525.646z"
        stroke-linecap="round" stroke-linejoin="round"/>
    </g>
  </g>
</svg>
