<?xml version="1.0" standalone="no"?>
<!DOCTYPE svg PUBLIC "-//W3C//DTD SVG 1.1//EN" "http://www.w3.org/Graphics/SVG/1.1/DTD/svg11.dtd" >
<svg xmlns="http://www.w3.org/2000/svg" width="40" height="386" viewBox="0 0 40 386">
  <path fill="#CC2127"
        d="M20 230.7c-11 0-20 9-20 20s9 20 20 20 20-9 20-20c0-11.1-9-20-20-20zm1.3 24.7c-1 0-2-.6-2.4-1.2 0 0-.6 2.3-.7 2.7-.4 1.5-1.6 3.1-1.7 3.2-.1.1-.2.1-.2-.1s-.3-2.1 0-3.7c.2-.8 1.2-5.3 1.2-5.3s-.3-.6-.3-1.5c0-1.4.8-2.5 1.9-2.5.9 0 1.3.7 1.3 1.5 0 .9-.6 2.2-.9 3.5-.2 1 .5 1.9 1.5 1.9 1.8 0 3.1-2.4 3.1-5.2 0-2.1-1.4-3.7-4-3.7-2.9 0-4.7 2.2-4.7 4.7 0 .9.2 1.5.6 1.9.2.2.2.3.1.5 0 .2-.2.6-.2.8-.1.2-.3.3-.5.2-1.3-.6-2-2.1-2-3.7 0-2.8 2.3-6.1 6.9-6.1 3.7 0 6.1 2.7 6.1 5.6.1 3.7-2 6.5-5.1 6.5z"/>
  <g fill="#3F729B">
    <path
      d="M24.3 366c0 2.4-1.9 4.3-4.3 4.3s-4.3-1.9-4.3-4.3c0-.4.1-.7.1-1.1h-1.2v5.9c0 .3.2.5.5.5h9.7c.3 0 .5-.2.5-.5v-5.9h-1.2c.1.4.2.7.2 1.1z"/>
    <circle cx="20" cy="366" r="2.7"/>
    <path d="M24.8 360.6h-1.6c-.3 0-.5.2-.5.5v1.6c0 .3.2.5.5.5h1.6c.3 0 .5-.2.5-.5v-1.6c.1-.2-.2-.5-.5-.5z"/>
    <path
      d="M20 346c-11 0-20 9-20 20s9 20 20 20 20-9 20-20c0-11.1-9-20-20-20zm7 25.4c0 .9-.7 1.6-1.6 1.6H14.6c-.9 0-1.6-.7-1.6-1.6v-10.8c0-.9.7-1.6 1.6-1.6h10.8c.9 0 1.6.7 1.6 1.6v10.8z"/>
  </g>
  <path fill="#55ACEE"
        d="M20 115.3c-11 0-20 9-20 20s9 20 20 20 20-9 20-20-9-20-20-20zm7.4 17.8v.4c0 4.3-3.3 9.3-9.3 9.3-1.9 0-3.6-.5-5-1.5h.8c1.5 0 3-.5 4.1-1.4-1.4 0-2.6-1-3.1-2.3.2 0 .4.1.6.1.3 0 .6 0 .9-.1-1.5-.3-2.6-1.6-2.6-3.2.4.2.9.4 1.5.4-.9-.6-1.5-1.6-1.5-2.7 0-.6.2-1.2.4-1.7 1.6 2 4 3.3 6.8 3.4-.1-.2-.1-.5-.1-.7 0-1.8 1.5-3.3 3.3-3.3.9 0 1.8.4 2.4 1 .7-.1 1.5-.4 2.1-.8-.2.8-.8 1.4-1.4 1.8.7-.1 1.3-.3 1.9-.5-.6.7-1.2 1.3-1.8 1.8z"/>
  <path fill="#3B5998"
        d="M20 0C9 0 0 9 0 20s9 20 20 20 20-9 20-20S31 0 20 0zm4 14.5h-1.9c-.4 0-.8.4-.8.7v2H24c-.1 1.5-.3 2.9-.3 2.9h-2.4v8.5h-3.6V20H16v-2.9h1.7v-2.3c0-.4-.1-3.3 3.6-3.3h2.6c.1 1.2.1 2.6.1 3z"/>
</svg>
