<?xml version="1.0" standalone="no"?>
<!DOCTYPE svg PUBLIC "-//W3C//DTD SVG 1.1//EN" "http://www.w3.org/Graphics/SVG/1.1/DTD/svg11.dtd" >
<svg xmlns="http://www.w3.org/2000/svg" xmlns:xlink="http://www.w3.org/1999/xlink" version="1.1" id="Layer_1" x="0px" y="0px" width="10px" height="100px" viewBox="-299.5 347 10 100" style="enable-background:new -299.5 347 10 100;" xml:space="preserve">
<style type="text/css">
	.st0{fill:#F27242;}
</style>
<path class="st0" d="M-294.5,347.5L-294.5,347.5c0.5,0,0.8,0.4,0.8,0.8v8.3c0,0.5-0.4,0.8-0.8,0.8l0,0c-0.5,0-0.8-0.4-0.8-0.8v-8.3  C-295.3,347.9-294.9,347.5-294.5,347.5z M-298.6,351.7h8.3c0.5,0,0.8,0.4,0.8,0.8l0,0c0,0.5-0.4,0.8-0.8,0.8h-8.3  c-0.5,0-0.8-0.4-0.8-0.8l0,0C-299.5,352-299.1,351.7-298.6,351.7z"/>
<path class="st0" d="M-294.5,378.5L-294.5,378.5c0.5,0,0.8,0.4,0.8,0.8v8.3c0,0.5-0.4,0.8-0.8,0.8l0,0c-0.5,0-0.8-0.4-0.8-0.8v-8.3  C-295.3,378.9-294.9,378.5-294.5,378.5z M-298.6,382.7h8.3c0.5,0,0.8,0.4,0.8,0.8l0,0c0,0.5-0.4,0.8-0.8,0.8h-8.3  c-0.5,0-0.8-0.4-0.8-0.8l0,0C-299.5,383-299.1,382.7-298.6,382.7z"/>
<path id="Rectangle-15_2_" class="st0" d="M-298.6,413.5h8.3c0.5,0,0.8,0.4,0.8,0.8l0,0c0,0.5-0.4,0.8-0.8,0.8h-8.3  c-0.5,0-0.8-0.4-0.8-0.8l0,0C-299.5,413.9-299.1,413.5-298.6,413.5z"/>
<path id="Rectangle-15_3_" class="st0" d="M-298.7,444.5h8.3c0.5,0,0.8,0.4,0.8,0.8l0,0c0,0.5-0.4,0.8-0.8,0.8h-8.3  c-0.5,0-0.8-0.4-0.8-0.8l0,0C-299.5,444.9-299.1,444.5-298.7,444.5z"/>
</svg>
