<?xml version="1.0" standalone="no"?>
<!DOCTYPE svg PUBLIC "-//W3C//DTD SVG 1.1//EN" "http://www.w3.org/Graphics/SVG/1.1/DTD/svg11.dtd" >
<svg xmlns="http://www.w3.org/2000/svg" xmlns:xlink="http://www.w3.org/1999/xlink" id="Layer_1" width="11" height="100"
     viewBox="0 0 11 100">
  <style>
    .st0{clip-path:url(#SVGID_2_)}.st1{clip-path:url(#SVGID_4_);fill:#fff}.st2{clip-path:url(#SVGID_6_)}.st3{clip-path:url(#SVGID_8_);fill:#fff}.st4{clip-path:url(#SVGID_10_)}.st5{clip-path:url(#SVGID_12_);fill:#79776b}.st6{clip-path:url(#SVGID_14_)}.st7{clip-path:url(#SVGID_16_);fill:#79776b}.st8{clip-path:url(#SVGID_18_)}.st9{clip-path:url(#SVGID_20_);fill:#fff}.st10{clip-path:url(#SVGID_22_)}.st11{clip-path:url(#SVGID_24_);fill:#79776b}
  </style>
  <title>Artboard</title>
  <defs>
    <path id="SVGID_1_" d="M4.5 1.5c0-.5.4-1 1-1s1 .5 1 1v8c0 .5-.4 1-1 1s-1-.5-1-1v-8z"/>
  </defs>
  <clipPath id="SVGID_2_">
    <use xlink:href="#SVGID_1_" overflow="visible"/>
  </clipPath>
  <g class="st0">
    <defs>
      <path id="SVGID_3_" d="M0 0h11v100H0z"/>
    </defs>
    <clipPath id="SVGID_4_">
      <use xlink:href="#SVGID_3_" overflow="visible"/>
    </clipPath>
    <path class="st1" d="M-.5-4.5h12v20h-12z"/>
  </g>
  <defs>
    <path id="SVGID_5_" d="M.5 5.5c0-.6.5-1 1-1h8c.5 0 1 .4 1 1s-.5 1-1 1h-8c-.6 0-1-.4-1-1z"/>
  </defs>
  <clipPath id="SVGID_6_">
    <use xlink:href="#SVGID_5_" overflow="visible"/>
  </clipPath>
  <g class="st2">
    <defs>
      <path id="SVGID_7_" d="M0 0h11v100H0z"/>
    </defs>
    <clipPath id="SVGID_8_">
      <use xlink:href="#SVGID_7_" overflow="visible"/>
    </clipPath>
    <path class="st3" d="M-4.5-.5h20v12h-20z"/>
  </g>
  <defs>
    <path id="SVGID_9_" d="M4.5 32.5c0-.5.4-1 1-1s1 .5 1 1v8c0 .5-.4 1-1 1s-1-.5-1-1v-8z"/>
  </defs>
  <clipPath id="SVGID_10_">
    <use xlink:href="#SVGID_9_" overflow="visible"/>
  </clipPath>
  <g class="st4">
    <defs>
      <path id="SVGID_11_" d="M0 0h11v100H0z"/>
    </defs>
    <clipPath id="SVGID_12_">
      <use xlink:href="#SVGID_11_" overflow="visible"/>
    </clipPath>
    <path class="st5" d="M-.5 26.5h12v20h-12z"/>
  </g>
  <defs>
    <path id="SVGID_13_" d="M.5 36.5c0-.6.5-1 1-1h8c.5 0 1 .4 1 1s-.5 1-1 1h-8c-.6 0-1-.4-1-1z"/>
  </defs>
  <clipPath id="SVGID_14_">
    <use xlink:href="#SVGID_13_" overflow="visible"/>
  </clipPath>
  <g class="st6">
    <defs>
      <path id="SVGID_15_" d="M0 0h11v100H0z"/>
    </defs>
    <clipPath id="SVGID_16_">
      <use xlink:href="#SVGID_15_" overflow="visible"/>
    </clipPath>
    <path class="st7" d="M-4.5 30.5h20v12h-20z"/>
  </g>
  <g>
    <defs>
      <path id="SVGID_17_" d="M.5 67.5c0-.6.5-1 1-1h8c.5 0 1 .4 1 1s-.5 1-1 1h-8c-.6 0-1-.4-1-1z"/>
    </defs>
    <clipPath id="SVGID_18_">
      <use xlink:href="#SVGID_17_" overflow="visible"/>
    </clipPath>
    <g class="st8">
      <defs>
        <path id="SVGID_19_" d="M0 0h11v100H0z"/>
      </defs>
      <clipPath id="SVGID_20_">
        <use xlink:href="#SVGID_19_" overflow="visible"/>
      </clipPath>
      <path class="st9" d="M-4.5 61.5h20v12h-20z"/>
    </g>
  </g>
  <g>
    <defs>
      <path id="SVGID_21_" d="M.5 98.5c0-.6.5-1 1-1h8c.5 0 1 .4 1 1s-.5 1-1 1h-8c-.6 0-1-.4-1-1z"/>
    </defs>
    <clipPath id="SVGID_22_">
      <use xlink:href="#SVGID_21_" overflow="visible"/>
    </clipPath>
    <g class="st10">
      <defs>
        <path id="SVGID_23_" d="M0 0h11v100H0z"/>
      </defs>
      <clipPath id="SVGID_24_">
        <use xlink:href="#SVGID_23_" overflow="visible"/>
      </clipPath>
      <path class="st11" d="M-4.5 92.5h20v12h-20z"/>
    </g>
  </g>
</svg>
