<?xml version="1.0" standalone="no"?>
<!DOCTYPE svg PUBLIC "-//W3C//DTD SVG 1.1//EN" "http://www.w3.org/Graphics/SVG/1.1/DTD/svg11.dtd" >
<svg xmlns="http://www.w3.org/2000/svg" xmlns:xlink="http://www.w3.org/1999/xlink" version="1.1" id="Layer_1" x="0px" y="0px" width="9px" height="36px" viewBox="-301 391 9 36" style="enable-background:new -301 391 9 36;" xml:space="preserve">
<style type="text/css">
	.st0{fill:#B9B9AF;}
	.st1{fill:#F15A22;}
</style>
<path class="st0" d="M-296.5,391c-2.5,0-4.5,1.9-4.5,5.2c0,3.3,4.5,6.8,4.5,6.8s4.5-3.5,4.5-6.8C-292,392.9-294,391-296.5,391z   M-296.5,398.1c-1.4,0-2.5-1.1-2.5-2.5s1.1-2.5,2.5-2.5s2.5,1.1,2.5,2.5S-295.1,398.1-296.5,398.1z"/>
<path class="st1" d="M-296.5,415c-2.5,0-4.5,1.9-4.5,5.2c0,3.3,4.5,6.8,4.5,6.8s4.5-3.5,4.5-6.8C-292,416.9-294,415-296.5,415z   M-296.5,422.1c-1.4,0-2.5-1.1-2.5-2.5s1.1-2.5,2.5-2.5s2.5,1.1,2.5,2.5S-295.1,422.1-296.5,422.1z"/>
</svg>
