<?xml version="1.0" standalone="no"?>
<!DOCTYPE svg PUBLIC "-//W3C//DTD SVG 1.1//EN" "http://www.w3.org/Graphics/SVG/1.1/DTD/svg11.dtd" >
<svg xmlns="http://www.w3.org/2000/svg" xmlns:xlink="http://www.w3.org/1999/xlink" version="1.1" x="0px" y="0px" width="23px" height="448px" viewBox="0 0 23 448" enable-background="new 0 0 23 448" xml:space="preserve"><g><g><g><g><path fill="#43413E" d="M150.7,311.3c0.3,0,0.6,0,0.8,0c0.1,0,0.2,0,0.2,0c1.3,0.3,2.2,1,2.9,2c0.1,0.2,0.2,0.3,0.4,0.3 c0.1,0,0.2,0,0.3-0.1c0.7-0.5,1.5-0.7,2.4-0.7c0.8,0,1.6,0.2,2.4,0.5c0.2,0.1-0.3,1.9-0.8,2.4c-0.3,0.3-1.3,1-2.7,1 c-0.3,0-0.6,0-0.9-0.1c0,0,0,0,0,0c-0.3,0-0.3,0.9-0.3,1.2c-0.2,1.6-0.5,3.3-0.5,4.9l-0.1,1.7c-0.1,1-0.8,1.3-1.2,1.3 c-0.2,0-0.9,0-1.8,0c-1.4,0-3,0-3.4-0.1c-0.9-0.2-1.3-0.8-1.3-1.8c0-1.8-0.2-3.6-0.5-5.5c-0.1-1-0.2-1.3-0.8-1.3 c-0.2,0-0.4,0-0.7,0c-0.1,0-0.2,0-0.3,0c-1,0-1.7-0.5-2.2-1.3c-0.4-0.5-0.8-1.1-1-1.7c-0.3-0.7-0.1-1.1,0.6-1.3 c0.6-0.2,1.3-0.3,1.9-0.3c0.6,0,1.3,0.2,1.9,0.6c0.2,0.2,0.4,0.2,0.6,0.2c0.3,0,0.5-0.2,0.7-0.5c0.5-0.8,1.2-1.3,2.2-1.6 C149.9,311.3,150.3,311.3,150.7,311.3 M150.7,309.3L150.7,309.3c-0.5,0-1.1,0-1.7,0.2l0,0l0,0c-1.1,0.3-2,0.9-2.7,1.7 c-0.7-0.3-1.4-0.4-2.1-0.4c-1,0-1.8,0.2-2.5,0.4c-1.2,0.4-1.7,1-1.9,1.6c-0.2,0.5-0.4,1.4,0.1,2.5c0.3,0.7,0.8,1.4,1.2,1.9 l0.1,0.1c0.9,1.4,2.2,2.1,3.7,2.1c0.2,1.8,0.4,3.3,0.4,4.7c0,1.9,1.1,3.3,2.9,3.7l0.1,0l0.1,0c0.7,0.1,3.5,0.1,3.6,0.1 c1.8,0,2,0,2.1-0.1l0,0l0,0c1.6-0.3,2.7-1.6,2.8-3.2l0.1-1.8c0-1.1,0.2-2.3,0.3-3.5c0-0.2,0.1-0.5,0.1-0.7 c1.6-0.2,2.7-0.9,3.3-1.4c1-0.8,1.7-3.1,1.6-4.1c-0.1-0.7-0.6-1.3-1.3-1.6c-1.1-0.4-2.1-0.6-3.1-0.6c-0.8,0-1.5,0.1-2.2,0.4 c-0.9-1-2.1-1.6-3.4-1.9l-0.2,0l-0.2,0l-0.2,0c-0.1,0-0.3,0-0.4,0C151,309.3,150.8,309.3,150.7,309.3L150.7,309.3z"/></g><g><path fill="#43413E" d="M148.5,318.9c-0.8,0-1.5-0.7-1.5-1.5s0.7-1.5,1.5-1.5s1.5,0.7,1.5,1.5S149.4,318.9,148.5,318.9z M148.5,316.9c-0.3,0-0.5,0.2-0.5,0.5s0.2,0.5,0.5,0.5s0.5-0.2,0.5-0.5S148.8,316.9,148.5,316.9z"/></g><g><path fill="#43413E" d="M153.4,318.9c-0.8,0-1.5-0.7-1.5-1.5s0.7-1.5,1.5-1.5c0.8,0,1.5,0.7,1.5,1.5S154.2,318.9,153.4,318.9z M153.4,316.9c-0.3,0-0.5,0.2-0.5,0.5s0.2,0.5,0.5,0.5s0.5-0.2,0.5-0.5S153.7,316.9,153.4,316.9z"/></g><g><rect x="145.7" y="321.2" fill="#43413E" width="10.4" height="1"/></g><g><path fill="#43413E" d="M154,311.5c-0.6,0-1-0.4-1-1v-3c0-0.6,0.4-1,1-1s1,0.4,1,1v3C155,311,154.6,311.5,154,311.5z"/></g><g><path fill="#43413E" d="M147.8,311.5c-0.6,0-1-0.4-1-1v-3c0-0.6,0.4-1,1-1s1,0.4,1,1v3C148.8,311,148.4,311.5,147.8,311.5z"/></g></g></g><path fill="#F15B24" d="M147.2,324.5c-0.8-0.8-2-0.8-2.7,0l-0.7,0.8l-0.7-0.8c-0.8-0.8-2-0.7-2.7,0c-0.8,0.8-0.8,2.3,0,3l3.3,2.9 l0.1,0.1l0.2-0.1l3.3-2.9C148,326.8,148,325.3,147.2,324.5z"/></g><g><g/><g/><g><path fill="#F15B24" d="M1.3,373.5l5.5-5.5l0.8,0.8l-5.5,5.5L1.3,373.5z"/><path fill="#F15B24" d="M4.5,367C2,367,0,369,0,371.5s2,4.5,4.5,4.5s4.5-2,4.5-4.5S7,367,4.5,367z M4.5,374.6 c-1.7,0-3.1-1.4-3.1-3.1s1.4-3.1,3.1-3.1s3.1,1.4,3.1,3.1S6.2,374.6,4.5,374.6z"/></g><g><g><path fill="#43413E" d="M16,356c0.3,0,0.7,0.1,1,0.3c0.9,0.4,1.7,1.2,2.4,2.4c0.1,0.1,0.2,0.3,0.2,0.4c0.1,0.1,0.1,0.2,0.1,0.3 c0.5,1,0.8,2.1,1,3.3c0.1,1,0.1,2-0.2,2.9c-0.3,1-0.8,1.9-1.5,2.6c-0.4,0.4-0.9,0.8-1.5,1l0,0c-0.2,0-0.4,0.1-0.6,0.2 c-0.3,0.1-0.6,0.2-0.8,0.2c-0.1,0-0.3,0-0.4,0c-1.6,0-2.7-0.6-3.7-1.9c-0.7-0.9-1.1-1.9-1.2-3.2c-0.1-1.5,0.1-2.9,0.8-4.6 c0.4-1,0.9-1.8,1.6-2.5c0.8-0.9,1.6-1.3,2.5-1.4C15.9,356,16,356,16,356 M16,354c-0.1,0-0.2,0-0.3,0c-1.5,0.1-2.7,0.9-3.8,2 c-0.9,0.9-1.5,2-2,3.1c-0.7,1.8-1.1,3.6-0.9,5.5c0.1,1.6,0.7,3,1.6,4.2c1.4,1.8,3.2,2.6,5.3,2.6c0.2,0,0.4,0,0.5,0 c0.6,0,1.1-0.3,1.7-0.4c0.1,0,0.2,0,0.2-0.1c0.8-0.3,1.6-0.8,2.2-1.4c1-1,1.7-2.2,2-3.5c0.3-1.2,0.4-2.5,0.2-3.7 c-0.2-1.4-0.6-2.7-1.2-3.9c-0.2-0.3-0.3-0.6-0.5-0.8c-0.8-1.3-1.9-2.4-3.3-3.1C17.3,354.2,16.7,354,16,354L16,354z"/></g></g></g><g/><g/><g><path fill="#43413E" d="M12.7,420.6c5.7-2.5,7.8-9,8.5-12.1c0.1-0.3,0.3-1.5,0.3-1.7c0.5-4.8-2.5-7.1-4.2-7.7h0 c-0.8-0.2-1.6,0.3-1.7,1.1l-0.9,6.2c0,0.1-1.1,5.4-5.1,8l0,0c-0.2,0.1-0.3,0.2-0.5,0.3c0,0-0.1,0.1-0.1,0.1l0,0 c0,0-0.9,0.8-2.2,1.6c-0.8,0.5-1.4,1.4-1.4,2.3c0,1.1,0.6,2,1.5,2.5c0.2,0.1,0.4,0.2,0.7,0.2c1,0.2,2,0.1,3-0.1 C11.3,421.2,12,421,12.7,420.6z M9.5,420c-0.6,0-1-0.2-1.3-0.5c-0.4-0.6-0.1-1.7,0.8-2.6c0.3-0.2,0.5-0.4,0.6-0.5 c0.7-0.5,1.4-0.7,2.1-0.7c0.2,0,0.5,0,0.7,0.2c0.2,0.1,0.3,0.2,0.4,0.3c0.2,0.3,0.2,0.6,0.1,0.9c-0.1,0.7-0.7,1.5-1.5,2.1 c-0.1,0.1-0.2,0.1-0.3,0.2C10.7,419.6,10.1,419.8,9.5,420z M18.3,403.2c0.1,0,0.2,0,0.2,0c0.4,0.1,0.7,0.4,0.8,0.7 c0.4,0.6,0.6,1.4,0.6,2.2l0,0c0,0.8-0.3,1.6-0.7,2.2c-0.2,0.2-0.6,0.7-1.1,0.7c-0.8,0-1.7-1.2-1.7-2.9l0,0 C16.5,404.4,17.5,403.2,18.3,403.2z M17.2,414.1c-0.5,0.7-1.2,1.3-1.9,1.5c-0.3,0.1-0.9,0.2-1.3-0.1c-0.7-0.5-0.7-2.1,0.3-3.6 c0.5-0.7,1.2-1.3,1.9-1.5c0.3-0.1,0.8-0.2,1.2,0c0.1,0,0.1,0.1,0.2,0.1c0.4,0.3,0.5,0.9,0.5,1.3C18.1,412.5,17.8,413.3,17.2,414.1z "/><path fill="#F15B24" d="M4.5,414.3c-2.5,0-4.5,2-4.5,4.5s2,4.5,4.5,4.5s4.5-2,4.5-4.5S7,414.3,4.5,414.3z M4.5,415.7 c0.5,0,1,0.2,1.5,0.4l-4.2,4.2c-0.3-0.4-0.4-1-0.4-1.5C1.4,417.1,2.8,415.7,4.5,415.7z M4.5,421.9c-0.7,0-1.4-0.3-2-0.7l4.3-4.3 c0.4,0.5,0.7,1.2,0.7,2C7.6,420.5,6.2,421.9,4.5,421.9z"/></g><g display="none"><path display="inline" fill="#F15B24" d="M15.7,314.2c0,1.5-1.2,2.7-2.7,2.7s-2.7-1.2-2.7-2.7s1.2-2.7,2.7-2.7 S15.7,312.7,15.7,314.2z"/><path display="inline" fill="#43413E" d="M19.3,311.4l-3.1-5.4c-0.1-0.2-0.3-0.4-0.4-0.7c-0.5-0.9-1.3-1.8-2.7-1.9l0,0H13h-0.1l0,0 c-1.4,0.1-2.2,1-2.7,1.9c-0.1,0.2-0.2,0.4-0.4,0.7l-3.1,5.4c-0.9,1.5-0.7,3.8-0.6,4.3c0.8,3,3.5,5.3,6.8,5.5l0,0H13h0.1l0,0 c3.3-0.2,6-2.5,6.8-5.5C20,315.2,20.2,312.9,19.3,311.4z M17.9,315.7c0,0.1-0.1,0.3-0.1,0.4c-0.8,1.8-2.6,3.1-4.7,3.3 c-2.1-0.1-4-1.4-4.7-3.3c-0.1-0.1-0.1-0.3-0.1-0.4c-0.1-0.5-0.2-2.4,0.6-3.8l2.9-5.1c0.2-0.3,0.3-0.5,0.4-0.8 c0.3-0.6,0.6-0.7,0.8-0.7l0,0h0.1h0.1l0,0c0.2,0,0.5,0.2,0.8,0.7c0.1,0.2,0.3,0.5,0.4,0.8l2.9,5.1C18.1,313.3,18,315.2,17.9,315.7z "/></g><g><path fill="#43413E" d="M17.9,266.8C17.9,266.7,17.9,266.7,17.9,266.8C17.9,266.7,17.9,266.7,17.9,266.8l-0.1-0.3 c-0.1-0.2-0.1-0.3-0.2-0.5l-0.9-2l0,0c-0.2-0.4-0.3-0.8-0.3-1.3c0-0.4,0.1-0.9,0.3-1.3l0,0l0.9-2c0.1-0.1,0.1-0.3,0.2-0.5l0.1-0.2 l0,0l0,0l0,0c0.2-0.5,0.2-1,0.2-1.4c0-2.7-1.8-4.9-4.5-5l0,0c0,0,0,0-0.1,0l0,0l0,0c-2.8,0.1-4.5,2.3-4.5,5c0,0.4,0.1,0.9,0.2,1.4 l0,0l0,0l0,0l0.1,0.2c0.1,0.2,0.1,0.3,0.2,0.5l0.9,2l0,0c0.2,0.4,0.3,0.8,0.3,1.3c0,0.4-0.1,0.9-0.3,1.3l0,0l-0.9,2 c-0.1,0.1-0.1,0.3-0.2,0.5l-0.1,0.2l0,0l0,0l0,0c-0.2,0.5-0.2,1-0.2,1.4c0,2.7,1.7,4.9,4.5,5l0,0c0,0,0,0,0.1,0l0,0l0,0 c2.8-0.1,4.5-2.3,4.5-5C18.1,267.7,18,267.3,17.9,266.8L17.9,266.8z M13,271.1C13,271.1,12.9,271.1,13,271.1 c-1.8,0-2.1-2.6-2.1-3.9l0,0h2l0,0l0,0l0,0C13,267.3,13,271.1,13,271.1z M13,266.1C13,266.1,12.9,266.1,13,266.1 C12.9,266.1,12.9,266.2,13,266.1c-0.1,0.1-0.1,0.1-0.1,0.1h-1.5c0,0,0,0-0.1,0l0.2-0.9l0.7-1.7l0,0c0,0,0.1-0.1,0.1-0.3 c0,0,0,0,0.1,0h0.5c0,0,0,0,0,0.1L13,266.1L13,266.1z M13,262.1L13,262.1C12.9,262.1,12.9,262.2,13,262.1l-0.7,0.1c0,0,0,0-0.1-0.1 l0,0l-0.8-2.4l-0.2-0.5l0,0h1.5l0.1,0.1L13,262.1L13,262.1z M13,258.1C12.9,258.1,12.9,258.1,13,258.1l-2.1,0.1l0,0l0,0v-0.1 c0-1.4,0.3-3.8,2.1-3.8l0,0l0,0c0,0,0,0,0.1,0.1L13,258.1L13,258.1z M14,254.3C14,254.3,14.1,254.2,14,254.3c1.8,0,2.1,2.4,2.1,3.8 l0,0l-0.1,0.1l0,0l0,0h-1.9l-0.1-0.1V254.3L14,254.3z M14,259.3l0.1-0.1h1.6v0.1v0.1l-0.1,0.4l-0.8,2.4l0,0c0,0,0,0-0.1,0.1h-0.6 l-0.1-0.1L14,259.3L14,259.3L14,259.3z M14,263.3C14.1,263.2,14.1,263.2,14,263.3l0.5-0.1h0.1l0.1,0.1l0.9,2l0.2,0.8l0,0l0,0h-1.7 c0,0,0,0-0.1,0V263.3L14,263.3z M14.1,271.1C14.1,271.1,14,271.1,14.1,271.1l-0.1-3.8v-0.1h2.1c0,0,0,0,0.1,0 C16.2,268.6,16,271.1,14.1,271.1z"/><path fill="#F15B24" d="M1.3,274.7l5.5-5.5l0.8,0.8l-5.5,5.5L1.3,274.7z"/><path fill="#F15B24" d="M4.5,268.2c-2.5,0-4.5,2-4.5,4.5s2,4.5,4.5,4.5s4.5-2,4.5-4.5S7,268.2,4.5,268.2z M4.5,275.8 c-1.7,0-3.1-1.4-3.1-3.1s1.4-3.1,3.1-3.1s3.1,1.4,3.1,3.1S6.2,275.8,4.5,275.8z"/></g><g><path fill="#F15B24" d="M13.3,207.1l7.9,6.6l-16.8-1.2C6.8,210,9.9,208.1,13.3,207.1z"/><path fill="#43413E" d="M16.5,221.1c1.2,0,2.1-1,2.1-2.1c0-1.2-0.9-2.1-2.1-2.1s-2.1,1-2.1,2.1C14.4,220.2,15.3,221.1,16.5,221.1z M16.5,217.9c0.6,0,1.1,0.5,1.1,1.1s-0.5,1.1-1.1,1.1s-1.1-0.5-1.1-1.1S15.9,217.9,16.5,217.9z M21.9,217.8c0-0.3,0.1-0.5,0.1-0.8 v-2.5v-0.1c-0.1-0.2-0.1-0.4,0-0.6c0,0,0-0.1-0.1-0.1c-0.1-0.2-0.1-0.4-0.2-0.7c-0.1-0.1-0.2-0.3-0.3-0.4l-0.6-0.5h-0.1 c-0.7-0.4-1.2-0.9-1.7-1.5l-4.2-3.7l0,0l0,0c-0.7-0.5-1.1-0.6-1.3-0.6c-0.8,0.2-1.5,0.4-2.3,0.8l-2.4,1.1c-1.8,1.2-3.7,2.7-4.8,4.6 v5.2v2.4v1.8c0,0.3,0.1,0.8,0.8,0.8l0,0l6.2,0.4c1,0,1.9,0.1,2.9,0.2l5.9,0.4l0,0h0.9c0.2-0.1,0.4-0.2,0.6-0.2l0,0c0,0,0,0,0.1-0.1 c0.1-0.2,0.2-0.3,0.4-0.5c0-0.1,0.1-0.3,0.1-0.3c0-0.1,0-0.2,0.1-0.2c0-0.1,0-0.1,0-0.2v-0.6l0,0c0-0.2-0.1-0.3-0.1-0.5v-0.3 c0-0.8,0-1.8,0-2.5L21.9,217.8z M13.2,207.8l6.2,5.2l-13.2-0.9C8.1,210.1,10.5,208.5,13.2,207.8z M20,222.4l-14-1.1v-7.5l14,1 V222.4z M10.5,220.4c1.5,0,2.7-1.2,2.7-2.7S12,215,10.5,215s-2.7,1.2-2.7,2.7C7.9,219.2,9.1,220.4,10.5,220.4z M10.5,216 c0.9,0,1.6,0.7,1.6,1.7c0,0.9-0.7,1.7-1.6,1.7s-1.6-0.7-1.6-1.7C8.9,216.8,9.6,216,10.5,216z"/><path fill="#F15B24" d="M1.3,226.7l5.5-5.5l0.8,0.8l-5.5,5.5L1.3,226.7z"/><path fill="#F15B24" d="M4.5,220.2c-2.5,0-4.5,2-4.5,4.5s2,4.5,4.5,4.5s4.5-2,4.5-4.5S7,220.2,4.5,220.2z M4.5,227.8 c-1.7,0-3.1-1.4-3.1-3.1c0-1.7,1.4-3.1,3.1-3.1s3.1,1.4,3.1,3.1C7.6,226.4,6.2,227.8,4.5,227.8z"/></g><g><path fill="#F15B24" d="M4.5,168.2c-2.5,0-4.5,2-4.5,4.5s2,4.5,4.5,4.5s4.5-2,4.5-4.5S7,168.2,4.5,168.2z M4.5,169.6 c0.6,0,1.1,0.2,1.6,0.4l-4.3,4.3c-0.3-0.5-0.4-1-0.4-1.6C1.4,171,2.8,169.6,4.5,169.6z M4.5,175.8c-0.7,0-1.4-0.3-1.9-0.7l4.4-4.4 c0.4,0.5,0.7,1.2,0.7,1.9C7.6,174.4,6.2,175.8,4.5,175.8z"/><path fill="#43413E" d="M14,163.4l2.6-3.1c0.3-0.4,0.3-0.6,0.3-1.1v-1c-0.1-0.5-0.2-0.7-0.4-0.4l-2.2,2.5c-0.2,0.2-0.6,0.9-0.6,1.3 l-0.1,1.4C13.7,163.4,13.9,163.6,14,163.4z M9.9,160.8l2.7,3.2c0.2,0.2,0.3,0,0.3-0.4l-0.1-1.4c0-0.4-0.2-0.9-0.3-1.1l-2.6-3.2 c-0.2-0.2-0.3-0.1-0.4,0.5l0.1,1.3C9.6,160.1,9.7,160.6,9.9,160.8z M10.6,157.2l2.1,3c0.1,0.2,0.2,0,0.3-0.3l-0.3-2 c0-0.3-0.4-1.2-0.6-1.3l-1.4-1.9c-0.1-0.2-0.2,0-0.3,0.3l-0.1,1.3C10.4,156.6,10.5,157,10.6,157.2z M15.8,156l-0.2-1.4 c0-0.3-0.2-0.4-0.2-0.2l-1.4,2.1c-0.1,0.1-0.3,0.9-0.2,1.2l-0.1,1.7c0,0.3,0.2,0.4,0.2,0.2l1.7-2.6C15.7,156.7,15.8,156.4,15.8,156 z M9.3,164.3l3.5,3.6c0.2,0.2,0.3,0,0.3-0.4l-0.2-1.5c0-0.4-0.2-0.9-0.4-1.1L9,161.3c-0.2-0.2-0.3,0-0.3,0.4l0.2,1.5 C8.9,163.7,9.1,164.1,9.3,164.3z M17.6,165.3l-3.2,3.1c-0.2,0.2-0.4,0.4-0.6,0.6c-0.1,0.2-0.3,0.3-0.4,0.5s-0.2,0.1-0.3,0 c-0.1-0.2-0.2-0.3-0.4-0.5s-0.5-0.4-0.7-0.6l-3.2-3.1c-0.2-0.2-0.3,0-0.3,0.4l0.2,1.4c0,0.4,0.2,0.9,0.4,1.1 c0.3,0.3,0.6,0.6,0.8,0.9c0.5,0.5,1,1.1,1.4,1.6c0.1,0.2,0.5,0.6,0.7,0.7c0,0,0,2.2,0,2.4c0,0.1,0,0.2,0,0.3c0,0,0.1,0.9,1,0.9 s1-0.9,1-0.9c0-0.7,0-1.4,0-2c0-0.2,0-0.4,0-0.7c0.1,0,0.3-0.2,0.4-0.3c0.2-0.2,0.4-0.5,0.7-0.7c0.5-0.6,1-1.2,1.6-1.7 c0.1-0.1,0.2-0.3,0.4-0.4c0.2-0.2,0.4-0.7,0.4-1.1l0.2-1.4C17.9,165.2,17.8,165.1,17.6,165.3z M17.3,161l-3,3.3 c-0.2,0.2-0.6,0.9-0.6,1.3l-0.1,1.5c0,0.4,0.1,0.6,0.3,0.4l3.3-3.5c0.2-0.2,0.3-0.7,0.4-1.1l0.1-1.5C17.7,161,17.5,160.8,17.3,161z "/></g><g><path fill="#F15B24" d="M11.4,122.4c0-0.3-0.1-0.5-0.1-0.8l-0.6-5.5c-0.2-1.4,0.5-3,0.8-3.5c0.1-0.1,0.2-0.2,0.2-0.3 c1.2-1.3,3-1.8,4.7-1.2c1.6,0.9,2.6,2.6,2.6,4.5c0,0.1,0,0.3,0,0.4c-0.1,0.5-0.7,2.2-1.7,3.1l-3.9,3.5c-0.2,0.2-0.4,0.3-0.6,0.5 c-0.4,0.4-0.7,0.4-0.9,0.3l0,0h-0.1c0,0-0.1,0-0.1-0.1l0,0C11.6,123.2,11.4,123,11.4,122.4z"/><path fill="#43413E" d="M16.9,110.1L16.9,110.1C16.9,110,16.8,110,16.9,110.1c-0.1-0.1-0.1-0.1-0.2-0.1l0,0 c-2.3-0.8-4.8,0.1-6.2,2.1c-0.2,0.4-1,2-0.8,3.4l0.5,5c0,0.2,0.1,0.4,0.1,0.6c0,0.3,0.1,0.6,0.2,0.9L9,126c-0.8,0-1.5,0.5-1.8,1.3 c-0.2,0.5-0.2,1.1,0,1.6s0.6,0.9,1.1,1.1c0.2,0.1,0.4,0.1,0.7,0.2c0.2,0.2,0.4,0.3,0.6,0.4c0.2,0.1,0.5,0.2,0.7,0.2 c0.8,0,1.5-0.5,1.8-1.3c0.3-0.7,0.2-1.5-0.3-2.1l1.6-4c0.3-0.1,0.6-0.3,0.8-0.5c0.1-0.1,0.3-0.2,0.5-0.4l3.6-3.1 c1.1-0.9,1.6-2.6,1.7-3.1C20.3,113.7,19.1,111.2,16.9,110.1z M10.7,128.8c-0.1,0.3-0.4,0.4-0.7,0.3c-0.1,0-0.2-0.1-0.2-0.2 c-0.1-0.2-0.4-0.3-0.6-0.3H9.1c-0.1,0-0.2,0-0.3,0c-0.1-0.1-0.2-0.2-0.3-0.3s-0.1-0.3,0-0.4c0.1-0.3,0.4-0.4,0.6-0.3 c0.4,0.2,0.8,0,0.9-0.4l0.2,0.1c-0.1,0.3,0,0.7,0.3,0.9C10.7,128.3,10.8,128.6,10.7,128.8z M18.1,115.7c-0.1,0.4-0.5,1.7-1.3,2.3 l-3,2.6c-0.2,0.1-0.3,0.3-0.5,0.4c-0.3,0.3-0.5,0.3-0.7,0.3l0,0h-0.1c0,0,0,0-0.1,0l0,0c-0.1-0.1-0.3-0.2-0.3-0.7 c0-0.2,0-0.4-0.1-0.6l-0.4-4.1c-0.1-1.1,0.4-2.3,0.6-2.6c0.1-0.1,0.1-0.2,0.2-0.2c0.9-1,2.4-1.4,3.7-0.9 C17.3,112.9,18.1,114.2,18.1,115.7C18.1,115.5,18.1,115.6,18.1,115.7z"/></g><g><path fill="#44413E" d="M12.4,70.4l5-7.5l1.7,1.1l-2.3,3.4l3.4-2.3l1.1,1.7l-7.5,5l-0.6-0.6c-0.1-0.1-0.1-0.1-0.2-0.2L12.4,70.4z"/><g><path fill="#F05C26" d="M10.9,67.5c2.3-1.1,6.8,3.5,5.7,5.7c-1.1,2.3-8.4,7.2-10,7.7c-1.7,0.6-4-1.7-3.4-3.4 C3.7,75.9,8.7,68.6,10.9,67.5z"/><path fill="#44413E" d="M3.3,80.8c-1.1-1.1-1.5-2.4-1.1-3.6c0.6-1.9,5.7-9.3,8.3-10.6c1.7-0.8,3.8,0.4,5.2,1.8s2.6,3.5,1.8,5.3 c-1.3,2.6-8.8,7.6-10.6,8.2C5.8,82.3,4.4,81.8,3.3,80.8z M14.3,69.8c-1.1-1.1-2.3-1.7-3-1.4c-1.9,0.9-6.7,7.8-7.2,9.4 c-0.1,0.4,0.1,1,0.6,1.5s1.1,0.7,1.5,0.6c1.6-0.5,8.5-5.4,9.4-7.2C16,72.2,15.5,71,14.3,69.8z"/></g><rect x="9.2" y="69.4" transform="matrix(0.7071 -0.7071 0.7071 0.7071 -47.2986 27.6331)" fill="#44413E" width="1" height="3"/><rect x="9.1" y="76.4" transform="matrix(0.7071 -0.7071 0.7071 0.7071 -52.2321 29.6024)" fill="#44413E" width="1" height="3"/></g><g><g><path fill="#F15B24" d="M13.3,19.4c-1.4,0-2.8,0.3-3.8,0.9C8.2,21,6.2,23,7.6,27.8c0.4,1.4,1.2,3,2.4,3.2c0.4,0.1,0.8,0.1,1.2,0.1 c0.7,0,1.3-0.1,1.7-0.2c0.1,0,0.2,0,0.3-0.1c0.2,0,0.4,0,0.7,0s0.6,0,0.9,0.1c0.3,0,0.6,0.1,0.9,0.1c0.2,0,0.4,0,0.5,0 c1.7-0.2,2.4-1.7,2.9-3.2c0.1-0.2,0.1-0.3,0.2-0.4c0.4-1,0.9-4.4-1-6.2C17.1,20,15.3,19.4,13.3,19.4z"/><path fill="#43413E" d="M11,18.1c0.2-4.1-1.9-6-4.6-6.1C6.4,12,5,17,11,18.1z M20.8,24.3c-0.1-1.7-0.7-3.1-1.8-4 c-1.3-1.2-3.2-1.9-5.2-2l0.2-2.6h-2.1l0.2,2.7c-1.1,0.1-2.2,0.5-3.1,1c-1.4,0.8-2.4,2.1-2.8,3.6c-0.4,1.4-0.3,3.1,0.3,5 c0.3,1.1,1.3,3.6,3.5,4.1c0.5,0.1,1,0.1,1.5,0.1c0.8,0,1.5-0.1,1.9-0.2c0.1,0,0.2,0,0.2,0c0.1,0,0.2,0,0.3,0c0.2,0,0.4,0,0.7,0 s0.6,0.1,1,0.1c0.2,0,0.5,0,0.7,0c2.7-0.3,3.6-2.8,4.1-4c0-0.1,0.1-0.3,0.1-0.4C20.7,27,20.9,25.7,20.8,24.3z M18.6,27 c0,0.1-0.1,0.2-0.1,0.4C18,28.7,17.4,30,16,30.2c-0.2,0-0.3,0-0.5,0c-0.3,0-0.5,0-0.8-0.1c-0.3,0-0.5-0.1-0.8-0.1 c-0.2,0-0.4,0-0.6,0c-0.1,0-0.2,0-0.2,0c-0.3,0.1-0.8,0.2-1.4,0.2c-0.4,0-0.7,0-1.1-0.1c-1-0.2-1.7-1.6-2.1-2.8 c-1.2-4.2,0.5-5.9,1.6-6.6c0.9-0.5,2.1-0.8,3.3-0.8c1.7,0,3.3,0.6,4.4,1.5C19.3,23.1,18.9,26.1,18.6,27z"/></g></g><g><g><g><path fill="#F15B24" d="M7.9,318.7c-0.8-0.8-2-0.8-2.7,0l-0.7,0.8l-0.7-0.8c-0.8-0.8-2-0.7-2.7,0c-0.8,0.8-0.8,2.3,0,3l3.3,2.9 l0.1,0.1l0.2-0.1l3.3-2.9C8.7,321,8.7,319.5,7.9,318.7z"/></g></g><g><g><path fill="#F15B24" d="M7.9,318.8c-0.8-0.8-2-0.8-2.7,0l-0.7,0.8l-0.7-0.8c-0.8-0.8-2-0.7-2.7,0c-0.8,0.8-0.8,2.3,0,3l3.3,2.9 l0.1,0.1l0.2-0.1l3.3-2.9C8.7,321.1,8.7,319.6,7.9,318.8z"/></g></g><path fill="#43413E" d="M21.9,312.8c0-3.7-5.8-10.8-6.4-11.6l-0.8-0.9l-0.8,0.9c-0.7,0.8-6.4,7.9-6.4,11.6c0,3.6,2.7,6.6,6.2,7.1 v3.4h2v-3.4C19.2,319.4,21.9,316.4,21.9,312.8z M15.2,317.9v-2.1l2-2.4l-0.8-0.6l-1.2,1.4v-6.1h-1v3.2l-1.3-1.2l-0.7,0.7l2,1.8v5.3 c-2.6-0.3-4.7-2.4-4.7-5.1c0-2,2.9-6.4,5.2-9.3c2.3,2.9,5.2,7.3,5.2,9.3C19.9,315.5,17.8,317.7,15.2,317.9z"/></g><g><path fill="#F15B24" d="M56.8,314.7"/><path fill="#F15B24" d="M56.8,314.7"/><path fill="none" stroke="#43413E" stroke-width="2" stroke-miterlimit="10" d="M61.3,318.6c0,3.4-2.8,6.2-6.2,6.2 s-6.2-2.8-6.2-6.2s6.2-10.9,6.2-10.9S61.3,315.2,61.3,318.6z"/><line fill="none" stroke="#43413E" stroke-miterlimit="10" x1="55.1" y1="314" x2="55.1" y2="328"/><line fill="none" stroke="#43413E" stroke-miterlimit="10" x1="52.9" y1="316.3" x2="55.1" y2="318.2"/><line fill="none" stroke="#43413E" stroke-miterlimit="10" x1="55.1" y1="321.5" x2="56.8" y2="319.5"/><line fill="none" stroke="#43413E" stroke-width="2" stroke-miterlimit="10" x1="55.1" y1="324.8" x2="55.1" y2="329.1"/></g></svg>
