<?xml version="1.0" standalone="no"?>
<!DOCTYPE svg PUBLIC "-//W3C//DTD SVG 1.1//EN" "http://www.w3.org/Graphics/SVG/1.1/DTD/svg11.dtd" >
<svg xmlns="http://www.w3.org/2000/svg" width="72" height="72" viewBox="0 0 72 72">
  <title>icon_hourglass</title>
  <g fill="none" fill-rule="evenodd">
    <path d="M0 0h72v72H0z"/>
    <path d="M26.13 52.097s5.366-6.157 10.433-6.157 10.432 6.101 10.432 6.101" fill="#F27242"/>
    <path
      d="M32.162 32.737s2.017-.59 4.354-.597c2.336-.008 4.675.567 4.675.567l-3.655 3.388V49.85H35.52V36.059l-3.357-3.322z"
      fill="#F27242"/>
    <g stroke="#42413E" stroke-width="2" stroke-linecap="round" stroke-linejoin="round">
      <path
        d="M24.14 17.99c0 .558.45 1.01.999 1.01h22.689a.998.998 0 0 0 .998-1.01v-1.98c0-.558-.45-1.01-.998-1.01h-22.69a.998.998 0 0 0-.998 1.01v1.98zm0 38.04c0 .558.45 1.01.999 1.01h22.689a.998.998 0 0 0 .998-1.01v-1.98c0-.558-.45-1.01-.998-1.01h-22.69a.998.998 0 0 0-.998 1.01v1.98z"/>
      <path
        d="M26.699 19s-1.535 4.378-.055 8.117c1.003 2.535 2.115 3.725 4.928 5.801C33.369 34.245 35 34.222 35 36m11.301-17s1.535 4.379.055 8.12c-1.003 2.535-2.116 3.725-4.93 5.802C39.63 34.25 38.01 34.248 38 36M26.699 53s-1.535-4.379-.055-8.12c1.003-2.535 2.116-3.725 4.93-5.802C33.37 37.75 35.005 37.772 35 36m11.301 17s1.535-4.379.055-8.12c-1.003-2.535-2.116-3.725-4.93-5.802C39.63 37.75 38.01 37.798 38 36"/>
    </g>
  </g>
</svg>
