<?xml version="1.0" standalone="no"?>
<!DOCTYPE svg PUBLIC "-//W3C//DTD SVG 1.1//EN" "http://www.w3.org/Graphics/SVG/1.1/DTD/svg11.dtd" >
<svg xmlns="http://www.w3.org/2000/svg" width="36" height="36" viewBox="0 0 36 36">
  <title>icon_side</title>
  <g fill="none" fill-rule="evenodd">
    <path d="M0 0h36v36H0z"/>
    <path d="M30.601 20.373s0 9.627-12.25 10.127C6.102 30 6.102 20.373 6.102 20.373" stroke="#363835" stroke-width="1.5"
          stroke-linecap="round" stroke-linejoin="round"/>
    <path d="M24 29.63v2.351c0 .558-.501 1.01-1.095 1.01h-8.81c-.605 0-1.095-.444-1.095-1.01V29.63 30" stroke="#363835"
          stroke-width="1.5"/>
    <path
      d="M7.923 22.426c1.62-.54 4.408-1.821 10.025-1.821 5.663 0 9.423 1.243 10.979 1.821-2.956 1.235-4.565 1.76-10.979 1.76-6.413 0-7.807-.419-10.025-1.76z"
      fill="#FF7D4C"/>
    <path
      d="M18.298 24.053C11.506 24.053 6 22.374 6 20.303c0-2.07 5.506-3.749 12.298-3.749s12.298 1.679 12.298 3.75c0 2.07-5.506 3.75-12.298 3.75z"
      stroke="#363835" stroke-width="1.5"/>
    <path
      d="M12.258 3c-1.046.899-1.904 1.636-1.904 2.727 0 1.455 1.994 2.187 2.138 3.636.147 1.482-.9 2.057-1.61 2.637m7.129-9c-1.046.899-1.904 1.636-1.904 2.727 0 1.455 1.994 2.187 2.138 3.636.147 1.482-.9 2.057-1.61 2.637m7.341-9c-1.046.899-1.904 1.636-1.904 2.727 0 1.455 1.994 2.187 2.138 3.636.147 1.482-.9 2.057-1.61 2.637"
      stroke="#F27242" stroke-width="1.5" stroke-linecap="round" stroke-linejoin="round"/>
  </g>
</svg>
