<?xml version="1.0" standalone="no"?>
<!DOCTYPE svg PUBLIC "-//W3C//DTD SVG 1.1//EN" "http://www.w3.org/Graphics/SVG/1.1/DTD/svg11.dtd" >
<svg xmlns="http://www.w3.org/2000/svg" xmlns:xlink="http://www.w3.org/1999/xlink" width="36" height="36"
     viewBox="0 0 36 36">
  <title>icon_beverage</title>
  <defs>
    <path
      d="M26.9 2.333a.938.938 0 0 1 1.24.605l.614 1.961a1.063 1.063 0 0 1-.646 1.303l-5.86 2.126-.2 21.025a1.013 1.013 0 0 1-1.02 1.003h-1.98c-.558 0-1.01-.45-1.01-.998V6.673c0-.551.421-1.157.94-1.353L26.9 2.333z"
      id="a"/>
    <mask id="d" x="0" y="0" width="10.762" height="28.087" fill="#fff">
      <use xlink:href="#a"/>
    </mask>
    <path
      d="M18.985 9.085A22.802 22.802 0 0 0 17 9c-4.97 0-9 1.567-9 3.5s4.03 3.5 9 3.5 9-1.567 9-3.5c0-1.148-1.421-2.167-3.617-2.805"
      id="b"/>
    <mask id="e" x="0" y="0" width="18" height="7" fill="#fff">
      <use xlink:href="#b"/>
    </mask>
    <path d="M10 30.5c0 1.933 3.134 3.5 7 3.5s7-1.567 7-3.5" id="c"/>
    <mask id="f" x="0" y="0" width="14" height="3.5" fill="#fff">
      <use xlink:href="#c"/>
    </mask>
  </defs>
  <g fill="none" fill-rule="evenodd">
    <use stroke="#363835" mask="url(#d)" stroke-width="3" stroke-linejoin="round" fill="#FFF"
         transform="rotate(6 23.42 16.313)" xlink:href="#a"/>
    <path
      d="M11.05 19.364s3.967-2.69 7.04 0c3.074 2.691 6.981.576 6.981.576L23.93 30.918s-6.053 3-11.463 0c-.69-6.271-1.416-11.554-1.416-11.554z"
      fill="#FF7D4C"/>
    <path
      d="M9.956 20.013s4.237-2.649 7.798-.11c3.56 2.537 6.776.476 6.776.476M8.751 12.617l2.062 18.224m14.459-18.213L23.25 30.775"
      stroke="#363835" stroke-width="1.5"/>
    <use stroke="#363835" mask="url(#e)" stroke-width="3" xlink:href="#b"/>
    <use stroke="#363835" mask="url(#f)" stroke-width="3" xlink:href="#c"/>
  </g>
</svg>
