<?xml version="1.0" standalone="no"?>
<!DOCTYPE svg PUBLIC "-//W3C//DTD SVG 1.1//EN" "http://www.w3.org/Graphics/SVG/1.1/DTD/svg11.dtd" >
<svg xmlns="http://www.w3.org/2000/svg" width="29" height="16" viewBox="0 0 29 16">
  <title>serves2</title>
  <path
    d="M15.232 11.663c-.1-1.743-1.498-3.092-3.245-2.256-1.536.735-2.442 2.798-4.358 2.796-1.826-.001-2.756-1.902-4.17-2.697-1.726-.97-3.333.35-3.436 2.157H.002c0 1.228-.1 2.537 1.124 3.27.711.425 2.03.567 2.831.72 1.21.23 2.44.347 3.672.347 1.924 0 4.566-.128 6.325-.98 1.38-.669 1.302-2.059 1.302-3.357h-.024zm-7.603-2.51A4.576 4.576 0 1 0 7.63 0a4.576 4.576 0 0 0 0 9.152m20.626 5.578v-1.76h-5.92c.208-.847 1.168-1.775 3.056-2.975 2.272-1.44 2.8-2.528 2.8-3.968 0-2.016-1.392-3.36-3.712-3.36-2.032 0-3.408 1.04-4.368 2.512L21.6 6.203c.736-1.104 1.744-1.744 2.784-1.744 1.12 0 1.856.608 1.856 1.712 0 1.216-.72 1.776-2.528 2.944-3.12 2-3.712 3.648-3.712 5.36v.256h8.256z"
    fill="#515252" fill-rule="evenodd"/>
</svg>
