<?xml version="1.0" standalone="no"?>
<!DOCTYPE svg PUBLIC "-//W3C//DTD SVG 1.1//EN" "http://www.w3.org/Graphics/SVG/1.1/DTD/svg11.dtd" >
<svg xmlns="http://www.w3.org/2000/svg" width="61" height="50" viewBox="0 0 61 50">
  <title>Spicy</title>
  <path
    d="M49.48 19.193c-8.706 0-10.608-4.98-6.648-13.041-.348-.094-1.226-.364-1.673-.037-.36.291-.936.889-1.014 1.346-9.408-.67-16.67 15.053-21.893 21.166C14.738 32.738 10.85 38.632 5.985 41.2c-1.928 1.014-4.096.296-5.405 2.557-1.404 2.423-.177 5.697 2.801 5.999-.109-.006-.223.005-.327 0 9.75 1.621 21.321-5.172 29.175-10.282 5.489-3.57 20.531-11.632 20.12-19.31.406.125.827.079 1.222-.29l.722-1.024c.245-.323-.239-1.269-.228-1.513-1.253.603-3.036 1.856-4.585 1.856zm-2.355-5.685c4.392 2.989 8.617-1.284 12.344-3.57 3.265-3.364-4.834-12.034-7.625-9.471-2.287 3.295-8.95 9.668-4.72 13.041z"
    fill="#DE240B" fill-rule="evenodd"/>
</svg>
