<?xml version="1.0" encoding="utf-8"?>
<!-- Generator: Adobe Illustrator 17.0.0, SVG Export Plug-In . SVG Version: 6.00 Build 0)  -->
<!DOCTYPE svg PUBLIC "-//W3C//DTD SVG 1.1//EN" "http://www.w3.org/Graphics/SVG/1.1/DTD/svg11.dtd">
<svg version="1.1" id="Layer_1" xmlns="http://www.w3.org/2000/svg" xmlns:xlink="http://www.w3.org/1999/xlink" x="0px" y="0px"
	 width="500px" height="500px" viewBox="0 0 500 500" enable-background="new 0 0 500 500" xml:space="preserve">
<g>
	<path fill="#FFFFFF" d="M373.19,240.74c-2.73-2.742-104.327-104.324-107.078-107.085c-1.55,1.563-5.425,5.431-5.425,5.431
		s-13.308-13.304-15.66-15.668c-2.32,2.366-13.812,13.814-13.812,13.814l-1.402,1.426c0,0-3.888-3.893-5.447-5.408
		c-2.716,2.723-104.397,104.402-107.132,107.126c1.558,1.539,5.427,5.417,5.427,5.417s-13.086,13.092-15.441,15.449
		c2.353,2.355,15.552,15.542,15.552,15.542s-3.804,3.817-5.354,5.368c2.763,2.722,104.345,104.319,107.08,107.04
		c1.513-1.513,5.326-5.335,5.326-5.335s12.806,12.804,15.156,15.151c2.32-2.348,15.273-15.282,15.273-15.282
		s3.835,3.845,5.378,5.391c2.729-2.713,104.415-104.405,107.161-107.129c-1.545-1.551-5.423-5.423-5.423-5.423
		s13.062-13.054,15.427-15.388c-2.341-2.314-15.032-15.021-15.032-15.021S371.631,242.274,373.19,240.74"/>
	<path fill="#FFFFFF" d="M373.434,246.153c1.564-1.549,5.434-5.415,5.434-5.415l-112.753-112.77c0,0-3.881,3.888-5.425,5.44
		c-2.353-2.355-15.662-15.661-15.662-15.661l-1.404,1.433c0,0-11.483,11.45-13.808,13.772c-1.539-1.52-5.447-5.405-5.447-5.405
		l-112.815,112.83c0,0,3.876,3.877,5.422,5.419c-2.349,2.351-15.435,15.449-15.435,15.449s13.187,13.214,15.55,15.542
		c-1.53,1.558-5.341,5.369-5.341,5.369l112.745,112.72c0,0,3.812-3.779,5.329-5.337c2.325,2.352,15.155,15.151,15.155,15.151
		s12.923-12.93,15.272-15.281c1.547,1.544,5.378,5.43,5.378,5.43l112.847-112.852c0,0-3.876-3.873-5.424-5.422
		c2.366-2.323,15.416-15.387,15.416-15.387S375.762,248.474,373.434,246.153 M367.372,276.566c0,0,3.876,3.871,5.422,5.423
		c-2.748,2.722-104.433,104.415-107.163,107.127c-1.543-1.546-5.378-5.391-5.378-5.391s-12.953,12.933-15.272,15.281
		c-2.35-2.347-15.155-15.15-15.155-15.15s-3.814,3.822-5.328,5.333c-2.734-2.719-104.316-104.316-107.078-107.036
		c1.549-1.553,5.353-5.37,5.353-5.37s-13.199-13.188-15.552-15.542c2.355-2.358,15.44-15.449,15.44-15.449s-3.866-3.876-5.424-5.418
		c2.735-2.724,104.413-104.402,107.13-107.124c1.558,1.515,5.448,5.407,5.448,5.407l1.403-1.427c0,0,11.49-11.448,13.809-13.812
		c2.351,2.362,15.662,15.667,15.662,15.667s3.875-3.866,5.425-5.431c2.751,2.761,104.352,104.342,107.078,107.085
		c-1.559,1.536-5.426,5.416-5.426,5.416s12.691,12.706,15.032,15.023C380.432,263.514,367.372,276.566,367.372,276.566"/>
	<polygon points="244.88,120.524 385.487,261.128 244.836,401.777 104.235,261.181 	"/>
	<polygon points="121.79,274.747 231.693,384.627 224.351,391.974 114.436,282.093 	"/>
	<polygon points="368.531,248.023 258.612,138.142 265.984,130.768 375.884,240.667 	"/>
	<polygon points="258.123,384.568 368.116,274.554 375.49,281.922 265.485,391.928 	"/>
	<polygon points="231.595,137.685 121.588,247.69 114.249,240.322 224.233,130.344 	"/>
	<polygon fill="#027848" points="229.718,371.978 237.032,379.297 229.712,386.639 222.372,379.303 	"/>
	<polygon fill="#027848" points="215.06,357.314 222.398,364.669 215.054,371.984 207.747,364.674 	"/>
	<polygon fill="#027848" points="200.404,342.659 207.72,350.015 200.398,357.319 193.088,350.021 	"/>
	<polygon fill="#027848" points="185.779,328.047 193.095,335.347 185.773,342.664 178.433,335.353 	"/>
	<polygon fill="#027848" points="171.125,313.383 178.439,320.697 171.119,328.053 163.808,320.703 	"/>
	<polygon fill="#027848" points="156.496,298.742 163.812,306.054 156.49,313.389 149.142,306.06 	"/>
	<polygon fill="#027848" points="141.787,284.03 149.102,291.353 141.781,298.714 134.438,291.359 	"/>
	<polygon fill="#027848" points="127.129,269.405 134.47,276.729 127.123,284.036 119.807,276.736 	"/>
	<polygon fill="#027848" points="275.194,165.509 267.855,158.153 275.2,150.847 282.515,158.147 	"/>
	<polygon fill="#027848" points="289.851,180.157 282.51,172.809 289.857,165.503 297.173,172.803 	"/>
	<polygon fill="#027848" points="304.485,194.793 297.167,187.478 304.492,180.124 311.829,187.472 	"/>
	<polygon fill="#027848" points="319.146,209.44 311.821,202.105 319.152,194.788 326.464,202.099 	"/>
	<polygon fill="#027848" points="333.763,224.075 326.46,216.76 333.768,209.434 341.109,216.754 	"/>
	<polygon fill="#027848" points="348.481,238.785 341.176,231.472 348.487,224.117 355.833,231.438 	"/>
	<polygon fill="#027848" points="363.135,253.413 355.796,246.099 363.141,238.778 370.461,246.093 	"/>
	<polygon fill="#027848" points="355.387,276.518 362.73,269.17 370.048,276.512 362.724,283.83 	"/>
	<polygon fill="#027848" points="340.736,291.171 348.058,283.812 355.411,291.164 348.051,298.469 	"/>
	<polygon fill="#027848" points="326.068,305.817 333.389,298.505 340.708,305.811 333.383,313.14 	"/>
	<polygon fill="#027848" points="311.408,320.457 318.753,313.146 326.063,320.451 318.747,327.814 	"/>
	<polygon fill="#027848" points="296.758,335.151 304.088,327.819 311.402,335.146 304.082,342.446 	"/>
	<polygon fill="#027848" points="282.093,349.772 289.415,342.452 296.753,349.766 289.41,357.113 	"/>
	<polygon fill="#027848" points="267.402,364.514 274.718,357.186 282.033,364.508 274.712,371.839 	"/>
	<polygon fill="#027848" points="252.726,379.181 260.079,371.845 267.397,379.176 260.073,386.49 	"/>
	<polygon fill="#027848" points="134.327,245.763 126.979,253.082 119.672,245.769 126.985,238.421 	"/>
	<polygon fill="#027848" points="148.983,231.094 141.646,238.442 134.319,231.1 141.652,223.774 	"/>
	<polygon fill="#027848" points="163.641,216.427 156.328,223.768 149,216.433 156.335,209.106 	"/>
	<polygon fill="#027848" points="178.311,201.781 170.964,209.1 163.647,201.787 170.97,194.444 	"/>
	<polygon fill="#027848" points="192.955,187.115 185.645,194.469 178.317,187.121 185.651,179.807 	"/>
	<polygon fill="#027848" points="207.627,172.487 200.301,179.802 192.961,172.493 200.307,165.132 	"/>
	<polygon fill="#027848" points="222.316,157.758 215.003,165.072 207.688,157.764 215.009,150.404 	"/>
	<polygon fill="#D8B82A" points="222.378,364.668 229.718,371.978 222.372,379.303 215.054,371.984 	"/>
	<polygon fill="#D8B82A" points="207.753,350.015 215.06,357.342 207.746,364.673 200.43,357.348 	"/>
	<polygon fill="#D8B82A" points="193.095,335.347 200.404,342.659 193.088,350.021 185.772,342.666 	"/>
	<polygon fill="#D8B82A" points="178.463,320.698 185.779,328.047 178.457,335.353 171.119,328.053 	"/>
	<polygon fill="#D8B82A" points="163.814,306.055 171.125,313.384 163.808,320.717 156.491,313.391 	"/>
	<polygon fill="#D8B82A" points="149.148,291.406 156.496,298.743 149.178,306.06 141.837,298.75 	"/>
	<polygon fill="#D8B82A" points="134.444,276.73 141.787,284.03 134.438,291.393 127.123,284.036 	"/>
	<polygon fill="#D8B82A" points="267.89,158.152 260.535,150.852 267.896,143.505 275.198,150.846 	"/>
	<polygon fill="#D8B82A" points="282.509,172.809 275.194,165.481 282.515,158.147 289.822,165.475 	"/>
	<polygon fill="#D8B82A" points="297.167,187.478 289.851,180.157 297.173,172.803 304.491,180.151 	"/>
	<polygon fill="#D8B82A" points="311.798,202.106 304.485,194.793 311.804,187.471 319.152,194.788 	"/>
	<polygon fill="#D8B82A" points="326.459,216.761 319.146,209.44 326.464,202.1 333.768,209.434 	"/>
	<polygon fill="#D8B82A" points="341.07,231.409 333.763,224.074 341.076,216.755 348.431,224.068 	"/>
	<polygon fill="#D8B82A" points="355.829,246.099 348.481,238.785 355.835,231.438 363.141,238.779 	"/>
	<polygon fill="#D8B82A" points="348.058,283.836 355.417,276.492 362.724,283.83 355.411,291.167 	"/>
	<polygon fill="#D8B82A" points="333.426,298.477 340.736,291.172 348.052,298.471 340.729,305.791 	"/>
	<polygon fill="#D8B82A" points="318.755,313.145 326.068,305.817 333.383,313.14 326.063,320.478 	"/>
	<polygon fill="#D8B82A" points="304.088,327.82 311.408,320.457 318.747,327.788 311.402,335.146 	"/>
	<polygon fill="#D8B82A" points="289.415,342.452 296.758,335.151 304.08,342.446 296.753,349.807 	"/>
	<polygon fill="#D8B82A" points="274.769,357.119 282.093,349.772 289.445,357.113 282.088,364.443 	"/>
	<polygon fill="#D8B82A" points="260.056,371.844 267.401,364.502 274.712,371.839 267.395,379.175 	"/>
	<polygon fill="#D8B82A" points="141.647,238.415 134.313,245.762 126.985,238.421 134.319,231.1 	"/>
	<polygon fill="#D8B82A" points="156.297,223.768 148.983,231.094 141.653,223.774 148.988,216.454 	"/>
	<polygon fill="#D8B82A" points="170.996,209.101 163.641,216.427 156.335,209.106 163.647,201.787 	"/>
	<polygon fill="#D8B82A" points="185.645,194.468 178.311,201.781 170.97,194.474 178.317,187.119 	"/>
	<polygon fill="#D8B82A" points="200.301,179.802 192.955,187.115 185.65,179.807 192.961,172.492 	"/>
	<polygon fill="#D8B82A" points="214.938,165.161 207.627,172.487 200.284,165.167 207.633,157.82 	"/>
	<polygon fill="#D8B82A" points="229.675,150.398 222.316,157.758 215.01,150.404 222.322,143.098 	"/>
	<path fill="#FFFFFF" d="M242.76,132.746L114.331,261.156l130.476,130.457l130.469-130.433L244.803,130.714L242.76,132.746
		 M244.799,138.829c3.862,3.837,118.511,118.495,122.356,122.354c-3.849,3.858-118.471,118.473-122.345,122.35
		c-3.841-3.874-118.492-118.518-122.347-122.361C126.299,257.313,240.918,142.67,244.799,138.829"/>
	<polygon points="244.81,386.295 119.688,261.155 244.799,136.054 369.897,261.185 	"/>
	<g>
		<path fill="#FFFFFF" d="M192.29,262.7l-3.59,0.001c-0.186,0-0.365,0.049-0.49,0.179c-0.109,0.113-0.2,0.303-0.275,0.594l-0.338,0
			l0.002-3.851l0.338,0c0.075,0.289,0.165,0.523,0.275,0.605c0.124,0.118,0.26,0.173,0.49,0.173l6.886-0.003l0,0.404
			c-0.255,0.089-0.419,0.173-0.529,0.318c-0.103,0.108-0.16,0.305-0.159,0.572l-0.001,3.369c0,0.267,0.055,0.475,0.158,0.579
			c0.11,0.155,0.274,0.241,0.529,0.324l-0.001,0.283c-2.75,1.817-5.427,2.714-7.999,2.716c-2.365,0.001-4.26-0.636-5.735-1.927
			c-1.873-1.61-2.786-3.822-2.784-6.662c0.001-2.665,0.825-4.754,2.462-6.348c1.585-1.486,3.68-2.232,6.288-2.234
			c0.814,0.029,1.605,0.083,2.328,0.282c0.747,0.17,1.582,0.462,2.498,0.894c0.485,0.194,0.833,0.319,1.034,0.318
			c0.133,0,0.308-0.089,0.501-0.298l0.334,0.208l-1.739,3.961l-0.277-0.178c0-0.276-0.059-0.454-0.113-0.572
			c-0.03-0.11-0.18-0.29-0.369-0.434c-0.434-0.359-1.068-0.715-1.906-0.977c-0.821-0.249-1.633-0.394-2.371-0.393
			c-1.492,0.001-2.763,0.489-3.764,1.468c-1.117,1.09-1.697,2.552-1.697,4.356c-0.001,1.722,0.579,3.16,1.672,4.222
			c1.003,0.982,2.327,1.489,3.955,1.489c0.798,0,1.601-0.11,2.374-0.313c0.778-0.227,1.471-0.522,2.015-0.862L192.29,262.7"/>
		<path fill="#FFFFFF" d="M206.79,251.816c2.518-0.001,4.538,0.769,6.017,2.312c1.546,1.632,2.357,3.77,2.356,6.346
			c0,1.585-0.379,3.078-1.147,4.449c-1.461,2.659-3.843,4.032-7.208,4.034c-2.5,0.001-4.503-0.793-5.962-2.37
			c-0.803-0.831-1.402-1.831-1.804-2.982c-0.38-1.023-0.559-2.101-0.559-3.235c0.001-1.661,0.385-3.19,1.119-4.561
			C201.015,253.197,203.424,251.839,206.79,251.816 M206.814,254.633c-1.407,0.001-2.555,0.455-3.468,1.401
			c-1.101,1.103-1.639,2.549-1.64,4.334c-0.001,1.813,0.537,3.236,1.636,4.365c0.913,0.94,2.092,1.4,3.467,1.399
			c1.402-0.001,2.548-0.461,3.476-1.402c0.545-0.548,0.967-1.239,1.258-2.036c0.253-0.725,0.378-1.47,0.379-2.248
			c0-1.867-0.543-3.354-1.634-4.415C209.362,255.115,208.19,254.633,206.814,254.633"/>
		<path fill="#FFFFFF" d="M233.039,253.392l-0.004,9.26c0,1.74-0.255,3.062-0.834,3.925c-0.993,1.578-3.12,2.373-6.305,2.374
			c-2.331,0.001-4.084-0.414-5.308-1.281c-0.721-0.473-1.212-1.171-1.457-2.003c-0.303-0.853-0.446-1.86-0.446-3.009l0.004-9.26
			c0-0.27-0.02-0.471-0.145-0.579c-0.076-0.152-0.244-0.261-0.546-0.325l0-0.387l4.541-0.003l0,0.388
			c-0.228,0.064-0.394,0.173-0.505,0.325c-0.124,0.108-0.145,0.31-0.145,0.579l-0.003,8.251c-0.001,0.95,0.02,1.64,0.144,2.095
			c0.074,0.463,0.244,0.832,0.504,1.156c0.683,0.818,1.846,1.228,3.475,1.228c1.635-0.001,2.817-0.411,3.474-1.23
			c0.257-0.325,0.427-0.694,0.504-1.157c0.097-0.456,0.152-1.146,0.152-2.095l-0.014-8.252c0-0.269-0.036-0.472-0.156-0.579
			c-0.089-0.152-0.259-0.235-0.518-0.324l0-0.387l4.283-0.002l0,0.388c-0.267,0.088-0.431,0.172-0.544,0.324
			C233.099,252.92,233.039,253.122,233.039,253.392"/>
		<path fill="#FFFFFF" d="M241.159,261.897l-0.002,5.514c0,0.23,0.034,0.43,0.145,0.54c0.114,0.152,0.287,0.237,0.514,0.317l0,0.4
			l-4.505-0.025l0-0.373c0.239-0.081,0.439-0.199,0.513-0.318c0.111-0.138,0.147-0.31,0.147-0.54l0.005-14.023
			c0-0.27-0.055-0.435-0.146-0.578c-0.11-0.12-0.275-0.237-0.547-0.325l0-0.366l9.074-0.004c1.094,0,1.983,0.054,2.637,0.193
			c0.628,0.144,1.206,0.413,1.692,0.791c0.539,0.419,0.986,0.992,1.239,1.723c0.257,0.674,0.401,1.418,0.401,2.205
			c-0.001,2.712-1.329,4.293-3.936,4.754l2.807,4.565c0.516,0.793,0.855,1.31,1.091,1.539c0.225,0.237,0.5,0.349,0.867,0.378l0,0.4
			l-5.256,0.002l0.001-0.401c0.378-0.055,0.547-0.199,0.546-0.427c0.001-0.145-0.168-0.482-0.515-1.052l-2.927-4.892
			L241.159,261.897 M241.129,259.167l4.903-0.002c0.722,0,1.236,0,1.528-0.042c0.275-0.068,0.577-0.151,0.8-0.325
			c0.544-0.314,0.813-0.913,0.814-1.812c0-0.854-0.269-1.454-0.812-1.798c-0.256-0.142-0.525-0.255-0.8-0.294
			c-0.292-0.055-0.807-0.069-1.529-0.069l-4.902,0.002L241.129,259.167z"/>
		<path fill="#FFFFFF" d="M264.768,268.659l-5.355-11.401l-0.004,10.149c0,0.229,0.055,0.427,0.143,0.539
			c0.113,0.151,0.279,0.259,0.546,0.315l-0.001,0.399l-4.257,0.002l0.001-0.399c0.258-0.08,0.437-0.164,0.516-0.315
			c0.122-0.112,0.176-0.311,0.176-0.54l-0.017-14.027c0-0.268-0.03-0.436-0.152-0.578c-0.08-0.118-0.258-0.237-0.516-0.326v-0.365
			l5.573-0.003l0,0.403c-0.336,0.09-0.511,0.317-0.511,0.661c0,0.13,0.039,0.344,0.174,0.544l3.92,8.484l4.013-8.344
			c0.179-0.379,0.253-0.642,0.254-0.801c0-0.342-0.163-0.521-0.531-0.548l0-0.403l5.503-0.002l0,0.403
			c-0.255,0.052-0.469,0.17-0.533,0.316c-0.088,0.115-0.157,0.31-0.157,0.551l-0.006,14.027c0,0.229,0.069,0.427,0.157,0.557
			c0.113,0.134,0.277,0.242,0.532,0.334l0,0.363l-4.53,0.002l0-0.363c0.265-0.093,0.43-0.2,0.506-0.335
			c0.127-0.129,0.184-0.327,0.184-0.556l-0.03-10.148L264.768,268.659"/>
		<path fill="#FFFFFF" d="M281.217,261.391l-0.001,4.566l9.285-0.004c0.207,0,0.371-0.048,0.496-0.166
			c0.12-0.118,0.203-0.325,0.294-0.6l0.343,0l-0.002,4.24l-0.343,0c-0.091-0.29-0.174-0.485-0.294-0.602
			c-0.123-0.11-0.288-0.176-0.495-0.176l-13.165,0.005l0-0.365c0.257-0.092,0.461-0.202,0.549-0.333
			c0.118-0.131,0.145-0.311,0.145-0.557l0.006-14.007c0-0.263-0.06-0.455-0.145-0.572c-0.101-0.144-0.291-0.225-0.548-0.316v-0.402
			l12.916-0.005c0.202,0,0.379-0.061,0.492-0.179c0.112-0.115,0.2-0.311,0.285-0.566l0.315-0.025l0.027,4.278l-0.344,0
			c-0.085-0.303-0.173-0.495-0.285-0.606c-0.113-0.123-0.29-0.179-0.491-0.179l-9.058,0.003l0.02,3.936l5.883-0.002
			c0.191,0.024,0.366-0.057,0.479-0.147c0.12-0.116,0.198-0.31,0.262-0.599l0.342,0l-0.002,4.162l-0.341,0
			c-0.064-0.297-0.141-0.49-0.262-0.615c-0.113-0.107-0.288-0.171-0.479-0.17L281.217,261.391"/>
		<path fill="#FFFFFF" d="M303.568,254.815l-0.005,12.575c0,0.246,0.058,0.457,0.136,0.555c0.099,0.158,0.297,0.242,0.521,0.334
			l0.035,0.397l-4.533,0.002l0-0.397c0.255-0.092,0.43-0.202,0.511-0.335c0.119-0.098,0.166-0.309,0.142-0.555l0.005-12.575
			l-4.501,0.002c-0.209,0-0.379,0.055-0.49,0.18c-0.108,0.112-0.196,0.302-0.253,0.606l-0.348,0.001l0.001-4.253l0.349,0
			c0.056,0.278,0.166,0.485,0.278,0.607c0.086,0.115,0.256,0.158,0.5,0.158l12.129-0.004c0.233,0,0.372-0.043,0.488-0.159
			c0.108-0.122,0.22-0.33,0.287-0.607l0.343-0.001l-0.002,4.254l-0.343,0c-0.067-0.304-0.178-0.494-0.286-0.605
			c-0.117-0.125-0.254-0.179-0.488-0.18L303.568,254.815"/>
		<path fill="#FFE07F" d="M194.453,232.771l-8.122,0.003l-1.205,2.784c-0.166,0.406-0.257,0.69-0.257,0.91
			c0,0.435,0.29,0.723,0.888,0.889l0,0.459l-5.95-0.018v-0.439c0.36-0.089,0.615-0.222,0.815-0.429
			c0.179-0.174,0.368-0.538,0.613-1.117l6.591-15.098c0.202-0.481,0.317-0.859,0.317-1.149c0-0.461-0.245-0.765-0.739-0.936
			l0.001-0.464l6.338-0.002l-0.001,0.464c-0.508,0.171-0.767,0.42-0.768,0.832c0,0.276,0.079,0.6,0.26,0.944l6.821,15.176
			c0.277,0.63,0.538,1.059,0.767,1.316c0.232,0.233,0.518,0.365,0.892,0.454l-0.001,0.46l-6.627,0.003l0-0.459
			c0.579-0.113,0.868-0.403,0.869-0.891c0-0.22-0.101-0.504-0.27-0.909L194.453,232.771 M193.309,230.106l-2.865-6.979l-2.965,6.981
			L193.309,230.106z"/>
		<path fill="#FFE07F" d="M210.664,224.344l-0.005,11.948c0,0.304,0.057,0.545,0.181,0.681c0.146,0.153,0.369,0.285,0.659,0.375
			l0,0.459l-5.261,0.003l0-0.459c0.326-0.09,0.559-0.222,0.668-0.375c0.114-0.136,0.192-0.377,0.192-0.681l-0.015-16.645
			c0-0.289-0.056-0.501-0.17-0.661c-0.109-0.144-0.342-0.276-0.668-0.364l0-0.463l6.098-0.002l0,0.462
			c-0.367,0.109-0.582,0.338-0.582,0.642c0,0.241,0.148,0.495,0.376,0.791l9.925,11.268l-0.015-11.679
			c0-0.289-0.067-0.483-0.189-0.661c-0.11-0.144-0.338-0.255-0.658-0.364l0.001-0.462l5.26-0.002l0,0.463
			c-0.322,0.109-0.525,0.22-0.66,0.365c-0.124,0.178-0.177,0.372-0.177,0.688l-0.007,16.652c0,0.271,0.088,0.511,0.198,0.647
			c0.113,0.175,0.335,0.285,0.65,0.375l0,0.459l-5.641,0.002l0-0.459c0.369-0.09,0.546-0.291,0.546-0.602
			c0-0.2-0.202-0.538-0.619-1.012L210.664,224.344"/>
		<path fill="#FFE07F" d="M239.283,224.332l-0.005,11.982c0.022,0.271,0.076,0.511,0.199,0.677c0.121,0.146,0.346,0.256,0.654,0.372
			l0,0.467l-5.246-0.032l0-0.459c0.311-0.09,0.514-0.2,0.658-0.346c0.112-0.166,0.168-0.406,0.168-0.676l0.007-16.652
			c0-0.289-0.055-0.509-0.191-0.688c-0.12-0.144-0.344-0.255-0.667-0.337l0-0.489l6.081,0.024l0,0.463
			c-0.362,0.082-0.543,0.311-0.543,0.655c0,0.228,0.121,0.489,0.379,0.751l9.889,11.293l0.005-11.677c0-0.289-0.06-0.51-0.199-0.668
			c-0.113-0.137-0.313-0.276-0.66-0.358l0-0.463l5.292-0.002l0,0.463c-0.334,0.082-0.554,0.221-0.667,0.358
			c-0.147,0.158-0.202,0.379-0.202,0.668l0.014,16.652c0,0.31,0.054,0.511,0.18,0.676c0.113,0.146,0.332,0.255,0.667,0.372l0,0.467
			l-5.637,0.002l0-0.467c0.345-0.083,0.547-0.276,0.547-0.629c0-0.17-0.224-0.508-0.659-1.012L239.283,224.332"/>
		<path fill="#FFE07F" d="M274.799,232.801l-8.112,0.003l-1.216,2.77c-0.168,0.377-0.255,0.695-0.255,0.89
			c0,0.433,0.277,0.721,0.893,0.887v0.469l-5.943,0.002l0-0.469c0.334-0.082,0.605-0.193,0.791-0.399
			c0.179-0.193,0.379-0.57,0.648-1.116l6.568-15.125c0.237-0.45,0.324-0.855,0.324-1.151c0-0.421-0.269-0.743-0.743-0.937v-0.463
			l6.327-0.003l0,0.463c-0.517,0.173-0.771,0.449-0.771,0.855c0,0.289,0.091,0.614,0.254,0.952l6.823,15.14
			c0.292,0.661,0.552,1.088,0.787,1.323c0.219,0.227,0.508,0.391,0.877,0.453l0,0.469l-6.62,0.003l0-0.469
			c0.566-0.115,0.859-0.399,0.86-0.888c0-0.195-0.089-0.484-0.267-0.89L274.799,232.801 M273.654,230.1l-2.871-6.951l-2.921,6.953
			L273.654,230.1z"/>
		<path fill="#FFE07F" d="M297.657,237.828l-6.642-13.571l-0.005,12.059c0,0.288,0.054,0.516,0.201,0.688
			c0.106,0.144,0.343,0.256,0.631,0.377l0,0.427l-5.255,0.003l0-0.468c0.309-0.082,0.543-0.193,0.656-0.337
			c0.144-0.172,0.211-0.401,0.211-0.688l-0.041-16.639c0-0.289-0.042-0.53-0.163-0.704c-0.113-0.136-0.347-0.247-0.656-0.337
			l0-0.483l6.888,0.027l0,0.454c-0.405,0.125-0.595,0.373-0.595,0.785c0,0.194,0.045,0.428,0.165,0.662l4.902,10.065l4.937-9.868
			c0.238-0.47,0.358-0.788,0.358-0.979c0-0.407-0.235-0.627-0.666-0.669v-0.454l6.762-0.002l0,0.453
			c-0.298,0.091-0.513,0.235-0.624,0.374c-0.145,0.138-0.198,0.378-0.199,0.668l-0.007,16.639c0,0.315,0.078,0.516,0.198,0.689
			c0.111,0.144,0.346,0.274,0.659,0.377l0,0.449l-5.619,0.002v-0.449c0.315-0.104,0.535-0.206,0.66-0.378
			c0.108-0.143,0.198-0.373,0.198-0.688l0.005-12.03L297.657,237.828"/>
		<path fill="#FFE07F" d="M189.668,301.998l-6.111-12.437l-0.005,11.076c0,0.285,0.055,0.483,0.179,0.628
			c0.11,0.12,0.31,0.223,0.6,0.352l0,0.383l-4.826,0.002l0-0.384c0.277-0.129,0.494-0.232,0.603-0.352
			c0.113-0.186,0.178-0.37,0.179-0.628l0.006-15.333c0-0.243-0.065-0.457-0.178-0.592c-0.109-0.145-0.326-0.26-0.602-0.354
			l-0.001-0.426l6.32-0.003l-0.001,0.426c-0.379,0.119-0.557,0.354-0.558,0.752c0.001,0.173,0.066,0.386,0.179,0.599l4.477,9.244
			l4.57-9.09c0.201-0.416,0.277-0.692,0.277-0.867c0-0.379-0.199-0.576-0.609-0.642l0.001-0.426l6.261,0.032l0,0.392
			c-0.293,0.093-0.469,0.232-0.592,0.354c-0.121,0.136-0.179,0.35-0.179,0.619l-0.006,15.307c-0.001,0.285,0.059,0.483,0.179,0.628
			c0.123,0.147,0.299,0.262,0.592,0.352l0,0.415l-5.134-0.029l0-0.384c0.265-0.091,0.454-0.206,0.579-0.352
			c0.111-0.145,0.165-0.343,0.165-0.628l0.004-11.076L189.668,301.998"/>
		<path fill="#FFE07F" d="M217.213,297.394l-7.754,0.003l-1.149,2.563c-0.139,0.343-0.223,0.635-0.223,0.833
			c0,0.374,0.253,0.663,0.835,0.813l-0.001,0.416l-5.683,0.002l0-0.416c0.334-0.09,0.604-0.205,0.781-0.379
			c0.169-0.179,0.37-0.523,0.602-1.027l6.28-13.907c0.209-0.431,0.29-0.796,0.29-1.061c0-0.398-0.224-0.679-0.711-0.851l0-0.429
			l6.082-0.002l-0.034,0.428c-0.492,0.145-0.726,0.393-0.725,0.78c0,0.251,0.067,0.535,0.233,0.855l6.539,13.939
			c0.265,0.592,0.52,0.999,0.723,1.206c0.211,0.236,0.488,0.372,0.833,0.44l0.001,0.416l-6.317,0.003l0-0.417
			c0.548-0.09,0.836-0.379,0.836-0.847c0.001-0.165-0.09-0.456-0.255-0.8L217.213,297.394 M216.134,294.941l-2.761-6.404l-2.79,6.37
			L216.134,294.941z"/>
		<path fill="#FFE07F" d="M231.152,294.648l-0.002,5.992c0.001,0.262,0.067,0.462,0.179,0.633c0.134,0.147,0.345,0.254,0.634,0.325
			l0,0.414l-5.45,0.002l0-0.413c0.315-0.093,0.513-0.207,0.628-0.354c0.145-0.144,0.2-0.344,0.2-0.606l-0.028-15.289
			c0-0.29-0.045-0.488-0.166-0.635c-0.115-0.145-0.313-0.26-0.628-0.341l0-0.428l10.933-0.005c1.315,0,2.372,0.075,3.154,0.246
			c0.777,0.142,1.459,0.431,2.036,0.847c0.692,0.447,1.185,1.081,1.528,1.851c0.313,0.745,0.459,1.585,0.458,2.446
			c-0.001,2.951-1.596,4.671-4.737,5.156l3.401,4.983c0.604,0.902,1.028,1.45,1.331,1.713c0.255,0.255,0.59,0.407,1.003,0.425
			l-0.001,0.396l-6.317,0.003l0-0.396c0.434-0.089,0.653-0.225,0.653-0.487c0-0.18-0.186-0.545-0.598-1.153l-3.553-5.328
			L231.152,294.648 M231.154,291.693l5.883-0.002c0.869,0,1.505-0.045,1.837-0.093c0.383-0.048,0.704-0.156,1.018-0.345
			c0.621-0.336,0.942-0.999,0.942-1.961c0-0.939-0.319-1.587-0.94-1.968c-0.314-0.183-0.675-0.28-1.018-0.342
			c-0.331-0.034-0.948-0.056-1.837-0.056l-5.884,0.003L231.154,291.693z"/>
		<path fill="#FFE07F" d="M256.926,293.603l-2.645,2.186l-0.002,4.843c0,0.289,0.068,0.492,0.204,0.633
			c0.109,0.145,0.31,0.254,0.632,0.343l-0.001,0.435l-5.469-0.036l0-0.396c0.301-0.088,0.535-0.199,0.646-0.344
			c0.109-0.142,0.176-0.345,0.176-0.633l0.006-15.29c0-0.29-0.067-0.488-0.199-0.635c-0.121-0.147-0.322-0.259-0.623-0.34l0-0.408
			l5.469-0.002l-0.001,0.409c-0.322,0.079-0.544,0.193-0.654,0.339c-0.113,0.147-0.182,0.346-0.182,0.636l-0.003,6.296l7.212-6.071
			c0.315-0.269,0.48-0.49,0.48-0.67c0-0.255-0.255-0.426-0.748-0.506l0-0.435l7.178-0.003v0.435c-0.29,0.053-0.522,0.115-0.62,0.198
			c-0.147,0.091-0.527,0.379-1.117,0.89l-0.993,0.862l-5.961,4.936l6.746,8.386c0.624,0.764,1.079,1.276,1.374,1.517
			c0.254,0.2,0.598,0.366,1.031,0.424l0,0.435l-6.873,0.003l0-0.435c0.479-0.089,0.706-0.253,0.706-0.517
			c0-0.107-0.2-0.431-0.602-0.969L256.926,293.603"/>
		<path fill="#FFE07F" d="M276.525,294.085l0.018,4.993l10.562-0.004c0.258,0,0.444-0.055,0.578-0.205
			c0.124-0.112,0.227-0.343,0.315-0.663l0.366-0.001l-0.001,4.686h-0.366c-0.088-0.322-0.191-0.545-0.315-0.666
			c-0.134-0.152-0.32-0.195-0.578-0.195l-14.949,0.006l0-0.435c0.285-0.088,0.487-0.198,0.598-0.343
			c0.119-0.144,0.195-0.345,0.195-0.634l0.007-15.289c0-0.261-0.076-0.461-0.194-0.604c-0.111-0.145-0.313-0.263-0.598-0.343
			l0-0.435l14.658-0.006c0.249,0,0.435-0.056,0.549-0.177c0.143-0.134,0.267-0.342,0.32-0.649l0.403,0l-0.002,4.649l-0.403,0
			c-0.054-0.324-0.177-0.518-0.32-0.665c-0.113-0.113-0.299-0.177-0.548-0.177l-10.292-0.016l-0.002,4.326l6.714-0.002
			c0.223,0,0.404-0.092,0.546-0.202c0.133-0.108,0.223-0.336,0.312-0.658l0.371,0l-0.002,4.569l-0.372,0
			c-0.088-0.317-0.178-0.549-0.31-0.668c-0.143-0.142-0.324-0.192-0.547-0.192L276.525,294.085"/>
		<path fill="#FFE07F" d="M303.066,286.922l-0.006,13.717c0,0.283,0.056,0.49,0.179,0.635c0.113,0.145,0.309,0.256,0.599,0.342
			l0,0.434l-5.165-0.025l0-0.406c0.287-0.087,0.487-0.198,0.596-0.344c0.122-0.145,0.165-0.352,0.165-0.635l0.006-13.716
			l-5.087,0.002c-0.269,0-0.435,0.061-0.582,0.175c-0.109,0.113-0.233,0.343-0.319,0.665l-0.371,0.001l0.002-4.648l0.371,0
			c0.085,0.306,0.208,0.536,0.319,0.651c0.147,0.118,0.313,0.175,0.581,0.175l13.806,0.019c0.242,0,0.446-0.046,0.557-0.2
			c0.147-0.115,0.232-0.344,0.322-0.651l0.369,0l-0.002,4.675l-0.37,0c-0.09-0.348-0.174-0.544-0.321-0.691
			c-0.112-0.114-0.315-0.175-0.557-0.175L303.066,286.922"/>
		<polygon fill="#D8B82A" points="309.258,245.292 179.786,245.275 179.787,243.675 309.258,243.708 		"/>
		<polygon fill="#D8B82A" points="309.245,277.252 179.773,277.223 179.774,275.643 309.246,275.655 		"/>
	</g>
	<path fill="#FFFFFF" d="M255.592,188.177l-6.771-0.39c-0.365,0-0.78-0.289-0.889-0.634l-2.449-6.365
		c-0.135-0.344-0.337-0.344-0.48,0l-2.408,6.367c-0.135,0.317-0.543,0.634-0.926,0.634l-6.739,0.361
		c-0.368,0.035-0.427,0.24-0.139,0.467l5.247,4.312c0.292,0.22,0.425,0.683,0.349,1.048l-1.752,6.573
		c-0.092,0.35,0.077,0.495,0.398,0.295l5.686-3.716c0.278-0.199,0.804-0.199,1.094-0.001l5.667,3.711
		c0.325,0.2,0.49,0.054,0.4-0.296l-1.745-6.572c-0.078-0.365,0.057-0.829,0.347-1.048l5.227-4.316
		C255.985,188.382,255.93,188.177,255.592,188.177"/>
</g>
</svg>
