<svg xmlns="http://www.w3.org/2000/svg" width="39" height="35" viewBox="0 0 39 35"><g fill="#EE6C38"><path d="M19 14h-6v-3h6v3zM19 24h-6v-3h6v3zM21 19h-8v-3h8v3z"/></g><path fill="#464340" d="M13 25h2V10h-2v15zm25.752-4.541l-1.116-12.56v-.004l-.179-2.025-.016-.356c-.399-1.463-1.466-3.071-4.258-3.161a122.493 122.493 0 0 0-4.147-.073C26.656.928 21.803 0 16.187 0 8.229 0 0 1.862 0 4.161c0 .331.188.652.505.961l-.016.025c.03.025 2.828 2.565 3.011 5.531.223 3.589 1.062 20.194 1.062 20.194C4.562 33.152 9.9 35 16.481 35c6.544 0 11.849-1.825 11.916-4.085l.006.001L30.57 5.077h1.203c.603.14 1.568.741 1.042 3.305-.189.924-.483 3.221-.605 4.18l-1.536 10.806-.056 1.368c0 .603.098 1.207.3 1.803a4.141 4.141 0 0 0 3.877 2.643c1.951 0 3.664-1.38 4.089-3.331a4.28 4.28 0 0 0 .08-.824.648.648 0 0 0 .021-.094c.004-.012.017-.194.014-.208l-.247-4.266zm-22.27 12.457c-4.323 0-7.948-.932-9.763-2.044 1.786-1.167 5.596-2.017 9.763-2.017s7.758.704 9.794 2.017c-1.978 1.258-5.469 2.044-9.794 2.044zm9.997-4.289c-2.125-1.132-5.804-1.883-9.997-1.883-4.125 0-7.76.726-9.899 1.829-.236-4.622-.78-15.266-.953-18.058-.081-1.303-.492-2.506-1.019-3.547 3.102.83 7.371 1.353 11.576 1.353 5.116 0 9.597-.771 12.156-1.929l-1.864 22.235zM16.289 6.203c-5.529 0-10.77-.983-13.224-2.042 2.513-1.233 7.673-2.066 13.224-2.066s9.708.833 12.085 2.066c-2.445 1.136-6.533 2.042-12.085 2.042zm18.523 20.866c-1.219 0-2.254-1.049-2.113-2.622.126-1.402 2.32-16.83 2.32-16.83s.078-.154.244-.163c.158-.008.222.176.222.176s1.383 15.216 1.431 16.908c.045 1.545-.884 2.531-2.104 2.531z"/></svg>
