<svg xmlns="http://www.w3.org/2000/svg" width="31.297" height="40.078" viewBox="0 0 31.297 40.078"><path fill="#F27242" d="M2.87 36.912L27.469 3.078H2.87z"/><path fill="#42413E" d="M29.833 0H1.464C.655 0 0 .655 0 1.464v37.151c0 .808.655 1.463 1.464 1.463h28.37c.808 0 1.463-.655 1.463-1.463V1.464C31.297.655 30.642 0 29.833 0zm-14.22 39.219a1.278 1.278 0 1 1 0-2.555 1.278 1.278 0 0 1 0 2.555zm11.856-4.432c0 .621-.504 1.125-1.125 1.125H4.953a1.125 1.125 0 0 1-1.125-1.125V4.616c0-.622.504-1.125 1.125-1.125h21.391c.622 0 1.125.504 1.125 1.125v30.171z"/></svg> 
