<svg xmlns="http://www.w3.org/2000/svg" width="23" height="18" viewBox="0 0 23 18"><path fill="#F15122" d="M1.009 14.328c0 .919.639 1.665 1.427 1.665h2.141c.788 0 1.428-.746 1.428-1.665v-1.666c0-.919-.639-1.666-1.428-1.666H2.436c-.788 0-1.428.746-1.428 1.666l.001 1.666z"/><path fill="#42413E" d="M3.008.008h.999v17.984h-.999z"/><path fill="#F15122" d="M9.002 5.336c0 .919.639 1.665 1.428 1.665h2.141c.788 0 1.428-.746 1.428-1.665V3.67c0-.919-.639-1.666-1.428-1.666H10.43c-.788 0-1.428.746-1.428 1.666v1.666z"/><path fill="#42413E" d="M11 .008h.999v17.984H11z"/><path fill="#F15122" d="M16.995 14.328c0 .919.639 1.665 1.428 1.665h2.141c.788 0 1.428-.746 1.428-1.665v-1.666c0-.919-.639-1.666-1.428-1.666h-2.141c-.788 0-1.428.746-1.428 1.666v1.666z"/><path fill="#42413E" d="M18.993.008h.999v17.984h-.999z"/></svg>