<svg xmlns="http://www.w3.org/2000/svg" width="398.7" height="70.4" viewBox="0 0 398.7 70.4"><g fill="#FFF"><path d="M18.2 23l2-.5c.9 3.2 2.1 5 4.7 5 2.5 0 3.8-1.5 3.8-3.8 0-5.3-9.6-7.9-9.6-14.6 0-3.4 2.3-5.4 5.5-5.4 3.3 0 5 2.3 5.9 5.8l-2 .5c-.8-2.9-1.9-4.4-4-4.4-2 0-3.3 1.2-3.3 3.3 0 5.9 9.6 8 9.6 14.7 0 3.5-2.4 5.8-5.9 5.8-3.8 0-5.6-2.3-6.7-6.4zM34.7 3.9h9.9v2h-7.8v8.9h5.6v1.9h-5.6v10.4h8.3V29H34.7V3.9zM48.8 3.9h2.5l6.1 15.4c.8 1.9 1.4 3.6 1.9 5V3.9h1.9v25.2h-1.9L52.4 12c-.6-1.4-1.5-3.9-1.8-4.7h-.1v21.8h-1.8V3.9zM66 3.9h4.1c5.8 0 8.4 3.5 8.4 12.6 0 9-2.7 12.6-8.4 12.6H66V3.9zm4.5 23.2c4.3 0 5.9-3.4 5.9-10.6 0-7.1-1.6-10.6-6-10.6h-2.3v21.2h2.4zM88 29.1h-1.9L92 3.8h2l5.9 25.3h-2.1L96 21.2h-6.3L88 29.1zm6.4-15.4c-.5-2.4-1-4.4-1.4-7h-.1c-.4 2.8-.8 4.6-1.4 7l-1.3 5.8h5.4l-1.2-5.8zM108.3 3.9h2.1v23.2h7.8V29h-9.9V3.9zM121.9 3.9h2.1v25.2h-2.1V3.9zM132.7 5.9h-5.1v-2H140v2h-5v23.2h-2.2V5.9zM147.2 5.9h-5.1v-2h12.4v2h-5.1v23.2h-2.2V5.9zM157.9 3.9h2.1v23.2h7.8V29h-9.9V3.9zM171.4 3.9h9.9v2h-7.8v8.9h5.6v1.9h-5.6v10.4h8.3V29h-10.4V3.9zM191.3 3.9h2.1v23.2h7.8V29h-9.9V3.9zM203.1 16.5c0-8.8 2.7-12.9 7.1-12.9 4.3 0 7.1 4 7.1 12.9s-2.8 12.9-7.1 12.9c-4.4 0-7.1-4.1-7.1-12.9zm12 0c0-7-1.7-10.8-4.9-10.8-3.3 0-4.9 3.9-4.9 10.8s1.6 10.9 4.9 10.9c3.3 0 4.9-3.9 4.9-10.9zM219.1 3.9h2.1l3.3 15.2c.4 2.1 1 4.4 1.4 6.9h.1c.4-2.3.9-4.5 1.4-6.9l3.4-15.3h2L227 29.1h-2l-5.9-25.2zM236.1 3.9h9.9v2h-7.8v8.9h5.6v1.9h-5.6v10.4h8.3V29h-10.4V3.9zM256.2 3.9h2.1v25.2h-2.1V3.9zM263.3 3.9h2.5l6.1 15.4c.8 1.9 1.4 3.6 1.9 5V3.9h1.9v25.2h-1.9L267 12c-.6-1.4-1.5-3.9-1.8-4.7h-.1v21.8h-1.8V3.9zM289.1 5.9H284v-2h12.4v2h-5.1v23.2h-2.2V5.9zM299.9 3.9h2.1v10.8h8.1V3.9h2.1v25.2h-2.1V16.7H302V29h-2.1V3.9zM317.1 3.9h9.9v2h-7.8v8.9h5.6v1.9h-5.6v10.4h8.3V29h-10.4V3.9zM337 3.9h9.9v2h-7.8v8.9h5.6v2h-5.6v12.3H337V3.9zM348.7 16.5c0-8.8 2.7-12.9 7.1-12.9 4.3 0 7.1 4 7.1 12.9s-2.8 12.9-7.1 12.9c-4.4 0-7.1-4.1-7.1-12.9zm12 0c0-7-1.7-10.8-4.9-10.8-3.3 0-4.9 3.9-4.9 10.8s1.6 10.9 4.9 10.9c3.3 0 4.9-3.9 4.9-10.9zM378.9 29.1h-2.2l-4.1-11h-3.5v11H367V3.9h4.4c4.9 0 7.3 2.1 7.3 7 0 3-1 5.7-4 6.7l4.2 11.5zm-7.4-12.9c3.7 0 4.9-1.5 4.9-5.3 0-3.6-1.2-5.1-5.1-5.1H369v10.3h2.5zM382.9 3.9h2.8l5.1 21.9h.1l5-21.9h2.8v25.2h-2V7.5h-.1c-.2 1.6-1.1 5-1.8 7.9l-3.2 13.7h-1.9l-3.2-14c-.7-2.6-1.5-6.1-1.7-7.5h-.1v21.6h-1.8V3.9z"/></g><g fill="#FFF"><path d="M92.2 57.5c0-8.8 2.7-12.9 7.1-12.9 4.3 0 7.1 4 7.1 12.9 0 8.8-2.8 12.9-7.1 12.9-4.4 0-7.1-4.1-7.1-12.9zm12 0c0-7-1.7-10.8-4.9-10.8-3.3 0-4.9 3.9-4.9 10.8 0 7 1.6 10.9 4.9 10.9 3.2 0 4.9-3.9 4.9-10.9zM110.4 44.9h9.9v2h-7.8v8.9h5.6v2h-5.6v12.3h-2.1V44.9zM128.8 44.9h4.1c5.8 0 8.4 3.5 8.4 12.6 0 9-2.7 12.6-8.4 12.6h-4.1V44.9zm4.5 23.2c4.3 0 5.9-3.4 5.9-10.6 0-7.1-1.6-10.6-6-10.6H131v21.2h2.3zM145.4 44.9h9.9v2h-7.8v8.9h5.6v1.9h-5.6v10.4h8.3V70h-10.4V44.9zM159.5 44.9h2.1v23.2h7.8V70h-9.9V44.9zM173.1 44.9h2.1v25.2h-2.1V44.9zM179.5 57.5c0-8.9 2.7-12.8 7-12.8 4 0 5.6 3.3 6.2 7.9l-2.1.3c-.5-3.9-1.7-6.2-4-6.2-3.3 0-4.8 3.9-4.8 10.8 0 7.1 1.5 10.9 4.9 10.9 2.5 0 3.7-2.1 4.3-6.4l2.1.2c-.7 4.9-2.5 8.2-6.4 8.2-4.8 0-7.2-3.9-7.2-12.9zM196.6 44.9h2.1v25.2h-2.1V44.9zM203 57.5c0-8.8 2.7-12.9 7.1-12.9 4.3 0 7.1 4 7.1 12.9 0 8.8-2.8 12.9-7.1 12.9-4.4 0-7.1-4.1-7.1-12.9zm12 0c0-7-1.7-10.8-4.9-10.8-3.3 0-4.9 3.9-4.9 10.8 0 7 1.6 10.9 4.9 10.9 3.2 0 4.9-3.9 4.9-10.9zM220.8 62.1V44.9h2.1v16.8c0 4 .7 6.7 4 6.7 3.2 0 4-2.5 4-6.6V44.9h2.1V62c0 4.9-1.4 8.3-6.1 8.3-4.7.1-6.1-3.4-6.1-8.2zM236.1 64l2-.5c.8 3.2 2.1 5 4.7 5 2.5 0 3.8-1.5 3.8-3.8 0-5.3-9.6-7.9-9.6-14.6 0-3.4 2.3-5.4 5.5-5.4 3.3 0 5 2.3 5.9 5.8l-2 .5c-.8-2.9-1.9-4.4-4-4.4-2 0-3.3 1.2-3.3 3.3 0 5.9 9.6 8 9.6 14.7 0 3.5-2.4 5.8-6 5.8-3.7 0-5.5-2.3-6.6-6.4zM258.4 44.9h9.9v2h-7.8v8.9h5.6v2h-5.6v12.3h-2.1V44.9zM270.2 57.5c0-8.8 2.7-12.9 7.1-12.9 4.3 0 7.1 4 7.1 12.9 0 8.8-2.8 12.9-7.1 12.9-4.4 0-7.1-4.1-7.1-12.9zm12 0c0-7-1.7-10.8-4.9-10.8-3.3 0-4.9 3.9-4.9 10.8 0 7 1.6 10.9 4.9 10.9 3.2 0 4.9-3.9 4.9-10.9zM287.5 57.5c0-8.8 2.7-12.9 7.1-12.9 4.3 0 7.1 4 7.1 12.9 0 8.8-2.8 12.9-7.1 12.9s-7.1-4.1-7.1-12.9zm12.1 0c0-7-1.7-10.8-4.9-10.8-3.3 0-4.9 3.9-4.9 10.8 0 7 1.6 10.9 4.9 10.9 3.2 0 4.9-3.9 4.9-10.9zM305.8 44.9h4.1c5.8 0 8.4 3.5 8.4 12.6 0 9-2.7 12.6-8.4 12.6h-4.1V44.9zm4.4 23.2c4.3 0 5.9-3.4 5.9-10.6 0-7.1-1.6-10.6-6-10.6h-2.3v21.2h2.4zM322.8 67.1h2.5v3h-2.5v-3zm.1-22.2h2.4l-.5 18.5h-1.5l-.4-18.5z"/></g><path fill="#FFF" d="M338.6 49.2h-3.2v-3.9h1.3l-1-4.3h1.2l1.6 4.6v3.6zm5.9 0h-3.1v-3.9h1.3l-1.1-4.3h1.2l1.7 4.6v3.6zM0 4.6L1.7 0h1.2L1.8 4.3h1.3v3.9H0V4.6zm5.9 0L7.6 0h1.2L7.7 4.3H9v3.9H5.9V4.6z"/></svg>