<svg xmlns="http://www.w3.org/2000/svg" width="192.6" height="279" viewBox="0 0 192.6 279"><g fill="#FFF"><path d="M98.8 194c-11.9 36.3-23.1 70.5-26.6 78.8-2-8.2 3.3-42.8 9.9-80.3-.8 0-1.5-.2-2.1-.5-6.7 38.3-11.9 73.9-9.7 82.3l.1.2.2.4s.1.2.2.3c0 .5.3.6.5.7s.4.2.8.1c.1.1.1.1.2-.1 0 0 .2-.1.3 0l.2-.1c.2-.1.2-.1.3-.2s.2-.1.3-.2.2-.1.3-.2c.1-.1.1-.1.1-.3s.1-.1.1-.3c3.4-8.3 15-43.7 27.2-80.9-.7.1-1.4.2-2.3.3zM191.7 48.5c-2.7-10.4-10.1-15.9-13.2-17.8-1.8-1-3.8-2.2-5.8-3-4-1.6-8.4-2.6-12.5-2.7-.3 0-1.9-.3-4.3.1-2.5-7.4-8.4-13.3-15.7-14.8-15.2-3.1-23.8 4.8-27.6 10-1.5-6.2-6.1-16.9-21.5-20-9.5-2-19.7 3.8-24.1 13.8-2.4 5.6-4.3 14.9 1.3 27.5 5.2 11.7 15.6 23.5 30.8 35l-4.3 3.6c-.3.4-.5.8-.3 1.2.2.4.5.9 1 .9l4.1 1c-.3 5.5-6.8 39-13.7 76.5.8-.1 1.6-.1 2.3-.1 6.9-37.1 13.4-70.2 13.7-75.7l2.8.5c.5 0 .9-.1 1.2-.5.3-.4.4-.9.2-1.3l-2.6-5.3c8.6-2.2 16.5-4.9 23.1-8.1.2 1.2.4 2.8.9 4.4 2.2 8.3 6.4 13.2 6.7 13.3.3.5.7.8 1 1.2l-4.4 1.3c-.4.2-.7.5-.9 1 0 .5.1.9.5 1.2l2.8 1.8c-2.2 3.1-12.5 33.4-23.8 67.6.7.3 1.6-.1 2.1.4 11.4-34.3 21.3-63.6 23.5-66.6l3.1 2.3c.4.3.9.4 1.3 0 .4-.2.6-.8.6-1.1l-.1-4.3c4.8 2.6 10.8 3.3 17.3 2.3 4.6-.5 9.5-2.7 9.7-2.8 3-1.3 6.1-2.9 8.7-4.9 3.1-1.9 6.2-5.2 6.2-5.4 2.3-2.4 4.2-5 5.6-7.5.1-.1.1-.3.1-.3l.1-.1c2.3-3.1 3.1-6.5 3.2-6.6 1.1-3.6 1.7-7.1 1.8-10.6.2-2.2-.9-7-.9-7.4zm-20-18.5c1.9.8 3.8 1.7 5.5 2.7 2.6 1.5 8.4 5.9 11.2 13.8-4.8-1.9-9.2-4.4-13-7.3-5.1-3.7-9.3-8.1-12.5-11.6 2.9.5 5.9 1.3 8.8 2.4zm-12.4-2.5c3.3 4 8.3 9.4 14.5 14 4.3 3.1 9 5.7 14 7.7.4.2.9.4 1.4.6.2 1.2.6 3.1.6 4.6-4.9-1.6-11.8-4.6-18.9-9.8-5.3-4-10-8.4-13.9-13.4 0-1.2-.3-2.3-.6-3.4 1.4-.4 2.4-.3 2.9-.3zm-58.4 54l-2.8-.6 2.9-2.5 1.8 3.6-1.9-.5zm.5-5.9c-41.2-31-35.2-54-32.3-60.4 4-9 13.1-14.1 21.5-12.5 2 .5 3.8 1 5.4 1.7 12.1 4.9 14.3 15.9 14.7 19.4.1.6.4 1 1.1 1.1.5 0 1-.1 1.3-.7 1.9-3.4 9.7-14.9 26.5-11.5 8.1 1.6 14.3 9.5 14.9 18.8 0 0 .4 4.9-2.3 12-1 2.1-2.2 4.2-3.7 6.2-.3.2-4 4.9-6.6 7.1-1.8 1.5-3.7 3-5.8 4.4 0 0-3.7 2.5-6.4 3.8-7.7 4.3-17.2 7.9-28.3 10.6zm34.4 17l-1.7-1.2 3.3-1 .2.3.1 3.4-1.9-1.5zm3.8-3.7l-1.1-1c-.9-.7-1.7-1.5-2.4-2.5 0 0-2.3-2.6-4.3-7.1 2.8 2.6 5.7 5 8.7 7.1 4 2.6 8.1 5 12.2 6.9-5.1.3-9.6-.8-13.1-3.4zm18 3.1c-5.3-2.3-10.6-5.1-15.7-8.6-4.4-2.9-8.3-6.4-12.1-10.4-.6-1.9-.7-3.7-.8-4.7.4-.2.7-.4 1.1-.6 4.6 4.9 9 8.9 13.2 11.9 6.1 4.5 13.9 8.1 20 10.8-1.5.7-3.6 1.4-5.7 1.6zm9.2-2.9c-6.4-2.6-15.2-6.6-22-11.4-4-3-8.1-6.6-12.4-11.3 1.7-1 3.3-2 4.4-2.6 3.4 3.2 6.9 6.3 10.7 9 9.6 7.1 18.6 11.1 25.1 13.2-1.9 1.4-3.8 2.3-5.8 3.1zm8.5-4.6c-6.5-1.9-15.9-5.9-26.3-13.5-3.5-2.6-6.8-5.3-9.9-8.4 1.4-1 2.6-2 3.9-3 3.2 3.3 6.3 6.1 9.5 8.2 9.1 6.6 21.3 11.3 26.9 13.3-1.2 1-2.7 2.3-4.1 3.4zm5.9-5.2c-4.9-1.6-17.9-6.4-27.4-13.3-2.8-2.2-6-4.8-8.9-7.8 1.8-2 3.8-4.4 5-5.7 2.8 2.6 5.9 5.1 8.8 7.3 10.4 7.6 20 11.6 26.7 13.8-1.1 1.9-2.6 3.8-4.2 5.7zm5.3-8.1c-6.6-2-16.1-5.9-26.5-13.6-3-2.2-6-4.6-8.7-7.2.9-1.3 1.8-2.8 2.5-4.2 3.2 3.3 6.4 6.1 9.6 8.4 8.1 5.8 18.6 10.2 24.7 12.5-.4 1.1-.8 2.6-1.6 4.1zm2.3-6.5c-6.1-2.3-16.3-6.4-24.1-12.1-3.1-2.3-6.4-5.3-9.9-8.9 1.3-3.7 1.9-6.8 2.1-8.9 3.6 4.3 7.8 8.2 12.6 11.7 7.7 5.8 15.3 8.9 20.5 10.5.1 2.5-.4 5-1.2 7.7z"/><g><path d="M93.3 25.4c.1.1.3.3.5.4.2.1.3.3.5.4.2.1.3.2.5.4.2.1.3.2.4.4 0 0 0 .2-.1.4-.1.3-.3.6-.5 1s-.5.9-.8 1.4c-.3.5-.6 1-1 1.6-.3.6-.7 1.1-1 1.7-.3.6-.7 1.1-1 1.6-.3.5-.6.9-.9 1.3-.3.4-.5.7-.6 1-.1.1-.2.2-.3.4-.1.1-.3.2-.4.3-.1.1-.3.2-.5.2-.2.1-.3.1-.5 0-.3 0-.4-.1-.5-.2-.1-.3-.1-.5-.1-.7 0-.2.1-.4.2-.8.1-.3.3-.7.4-1.1.2-.4.4-.9.6-1.4.2-.5.5-1 .7-1.5.3-.5.5-1.1.8-1.6.3-.5.5-1.1.8-1.5.3-.5.5-1 .8-1.4.3-.4.5-.8.7-1.1.2-.3.4-.6.6-.8.4-.2.5-.3.7-.4z"/><path d="M101.2 31.7c-.2.1-.4.1-.7.2-.3 0-.6.1-1 .1h-2.6c-.1 0-.1.1-.2.1l-.2.2c-.1.1-.2.2-.3.4-.1.2-.3.4-.4.7l-.6.9c-.2.3-.4.7-.5 1-.2.4-.2.7-.3 1v.4c0 .1 0 .2.1.3.2 0 .4 0 .7-.1.3-.1.5-.2.9-.3.3-.1.6-.3 1-.5.3-.2.7-.4 1-.6l.9-.6c.3-.2.5-.4.7-.6l1 .8c-.2.2-.4.5-.7.8l-.9.9c-.3.3-.7.6-1 .9-.4.3-.7.5-1.1.7-.4.2-.7.4-1 .5-.3.1-.6.1-.9.1l-.6-.3c-.2-.1-.5-.2-.8-.4-.3-.1-.5-.3-.8-.4-.2-.2-.5-.3-.6-.5-.2-.2-.3-.4-.4-.6-.1-.2-.1-.5-.1-.7.1-.7.3-1.4.6-2.2.3-.7.8-1.4 1.3-2.1h-2.9c-.1 0-.2 0-.3-.1-.2-.1-.3-.2-.3-.3 0-.1.1-.2.2-.2.1-.1.3-.1.6-.2.2-.1.5-.1.8-.2.3 0 .5-.1.8-.1s.5 0 .6-.1c.3 0 .6 0 .8-.1.2 0 .3-.1.5-.1.1-.1.2-.1.3-.2l.4-.4.4-.4c.1-.2.3-.4.5-.6.2-.2.3-.4.5-.6.2-.2.4-.4.6-.5.2-.2.4-.3.5-.4.2-.1.3-.1.5-.1.3 0 .6.1.9.3.2.2.5.3.7.6-.4.4-.7.8-1.1 1.2-.4.4-.7.8-1 1.3H101.9l-.7 1.1z"/><path d="M101.6 32.1c-.1 0-.2 0-.2-.1-.1 0-.1-.1-.1-.2.1-.2.2-.5.3-.7.2-.2.3-.4.5-.7.2-.2.4-.5.6-.7.2-.3.4-.5.5-.9.1-.2.2-.4.3-.5.1-.1.3-.2.4-.3.2-.1.3-.1.4-.1h.4c.3 0 .5.2.6.4.1.2.1.5.1.8 0 .1-.1.3-.2.5s-.3.4-.5.6l-.7.7c-.3.2-.5.4-.8.6-.3.2-.6.3-.8.4-.3.2-.6.2-.8.2zM101.5 36.5c.2-.2.4-.3.6-.5.2-.1.4-.3.5-.4.2-.1.3-.2.5-.3.1-.1.3-.2.5-.3.2-.1.3-.2.5-.4.2-.1.4-.3.6-.5.4-.3.7-.6 1-.9.3-.3.6-.7.9-1l.3-.6c0-.2.1-.4.1-.6 0-.2.1-.4.2-.6.1-.2.2-.4.3-.5h.1c.1 0 .2.1.3.2.1.1.3.2.4.4l.5.5c.2.2.3.4.4.6.1.2.2.4.3.5.1.2.1.3.1.4v.2c0 .1-.1.3-.1.4-.1.2-.1.3-.1.5 0 .1 0 .2.1.5 0 .2.1.5.1.9 0 .3.1.7.1 1.1 0 .4 0 .8-.1 1.1l-.1.3.4-.4c.1-.1.2-.1.3-.2.1-.1.2-.1.3-.2.1-.1.2-.1.4-.2.1-.1.3-.2.5-.3 0 0 0 .1.1.2s.1.2.2.3c.1.1.1.2.2.3l.1.1c-.2.2-.4.5-.7.7-.3.3-.5.5-.9.8-.3.3-.7.5-1 .7s-.7.4-1.1.6c-.4.2-.8.3-1.2.3-.4.1-.9.1-1.3 0-.2 0-.5-.1-.8-.3-.3-.2-.5-.4-.8-.6-.2-.2-.5-.5-.6-.8-.2-.3-.3-.6-.4-.9-.2.1-.3.2-.5.2h-.4c-.1 0-.2 0-.3-.1-.1 0-.2-.1-.4-.1-.1-.1-.2-.1-.3-.2-.1-.1-.1-.2-.1-.3 0-.1.1-.2.1-.2-.1-.2 0-.3.2-.4zm6-2.3c-.2.3-.4.6-.7.8-.2.3-.5.5-.8.7-.3.2-.6.4-.8.6l-.9.6c0 .1.1.2.2.3.1.1.1.2.2.3s.2.1.3.2c.1 0 .2.1.3.1.3 0 .6 0 .8-.1.3-.1.5-.2.7-.4.2-.2.4-.4.5-.6.1-.2.2-.5.3-.7v-.5-.5-.5c0-.1 0-.2-.1-.3zM115.7 40.9c-.2-.5-.3-1.1-.3-1.5s0-.9.1-1.3.3-.7.5-1.1c.2-.3.5-.6.8-.9.5-.4.9-.7 1.4-.9.5-.2.9-.3 1.3-.3s.9.2 1.3.4c.4.3.9.7 1.3 1.2.1-.1.2-.1.3-.1.1 0 .2-.1.3 0 .1 0 .2 0 .3.1l.3.3c.1.2.3.4.3.6.1.1.1.3.1.4 0 .1-.1.3-.2.4s-.3.3-.5.6c-.4.4-.7.8-1 1.2-.3.4-.5.8-.6 1.2-.1.2 0 .3.1.3.2 0 .4-.1.7-.2.3-.1.7-.3 1.1-.5.4-.2.8-.5 1.3-.7.4-.3.8-.5 1.2-.8.4-.3.7-.5 1-.7l.3.6c0 .2.1.4 0 .5 0 .2-.1.3-.1.4s-.1.2-.2.3c-.5.6-1.2 1.1-1.8 1.6-.7.4-1.4.8-2.2 1.1-.3.1-.6.2-1 .2h-.9c-.3 0-.6-.1-.8-.2-.3-.1-.5-.3-.7-.5-.1-.1-.2-.2-.2-.4v-.3c0-.1.1-.2.1-.3 0-.1.1-.2.2-.3-.4.2-.9.3-1.3.4H117c-.4-.1-.7-.2-.9-.3-.3-.2-.4-.3-.4-.5zm4.6-4.1c-.1 0-.2.1-.4.1-.2.1-.3.2-.5.3-.2.1-.4.3-.5.5-.2.2-.4.4-.5.6-.2.2-.3.4-.4.6-.1.2-.2.4-.3.5 0 .2-.1.3 0 .4 0 .1.1.2.3.2.3.1.7.1 1-.1.3-.1.7-.3 1-.6.3-.2.6-.5.9-.9.3-.3.5-.6.7-.9v-.2c-.1-.1-.1-.2-.3-.3-.1-.1-.3-.2-.4-.2h-.6zM94.3 44.7c-.1-.3-.2-.5-.3-.8-.1-.2-.2-.5-.3-.7.9-.3 1.9-.5 2.9-.6 1-.1 2 0 3 .1.4.1.8.2 1.1.3.4.1.7.3.9.6.2.2.4.5.5.9.1.3.1.8 0 1.2-.1.3-.2.5-.3.7l-.6.6c-.2.2-.5.3-.7.5-.3.1-.5.2-.7.3.4.1.8.2 1.2.4s.7.4.9.6c.2.2.4.5.5.8.1.3.1.7 0 1.1-.1.5-.3.9-.6 1.3s-.6.7-1 1c-.4.3-.9.5-1.4.8-.5.2-1 .4-1.6.5-.5.1-1.1.3-1.6.4-.5.1-1.1.2-1.5.2-.5 0-.9.1-1.3.1h-1c-.3 0-.7 0-1-.1-.3 0-.7 0-1-.1-.3 0-.6-.1-.8-.2-.2-.1-.4-.2-.5-.3-.1.1-.1 0-.1-.2s.1-.4.3-.7c0 0 .1-.1.2-.3.1-.2.3-.5.5-.8.2-.3.4-.7.7-1.1.2-.4.5-.9.8-1.3.3-.5.5-.9.8-1.4.3-.5.6-1 .8-1.4.3-.5.5-.9.7-1.3.2-.4.3-.8.5-1.1zm-2.2 8.9h1.5c.5 0 1.1-.1 1.6-.2s1.1-.2 1.6-.4 1-.3 1.4-.6c.4-.2.7-.5 1-.8.3-.3.4-.6.5-1V50c0-.2-.1-.3-.3-.4-.1-.1-.3-.2-.4-.2-.2-.1-.4-.1-.6-.1-.3 0-.6 0-1 .1-.4 0-.7.1-1.1.2-.4.1-.8.1-1.2.2-.4.1-.8.1-1.2.2l-1.8 3.6zm2.9-6.1c.2 0 .4-.1.7-.1.3 0 .6-.1.9-.2.3-.1.6-.1.9-.2.3-.1.6-.2.8-.3.3-.1.5-.3.6-.4.2-.2.3-.4.3-.6 0-.1 0-.3-.1-.3-.1-.1-.3-.1-.5-.1h-.8c-.3 0-.6.1-.8.1-.3 0-.5.1-.7.1-.2 0-.4.1-.5.1l-.8 1.9zM111.3 52.7c-.1.2-.3.4-.4.5-.2.2-.4.3-.6.4-.2.1-.4.2-.7.2h-.6c-.3 0-.5-.1-.7-.3-.2.4-.5.7-.7 1-.3.3-.5.5-.8.7-.3.2-.6.4-1 .6-.3.2-.7.3-1.1.5h-.2c-.1 0-.3-.1-.4-.2-.2-.1-.3-.2-.5-.4s-.4-.3-.5-.5c-.2-.2-.3-.4-.5-.5-.2-.2-.3-.3-.4-.5-.1-.1-.2-.3-.3-.3v-.3-.3-.3-.2c0-.3.1-.6.3-.9.1-.3.3-.6.5-.8.2-.3.4-.5.6-.8l.6-.6c.2-.2.4-.3.7-.5.3-.2.6-.3.9-.4l.9-.3c.3-.1.6-.1.9 0 .3 0 .5.2.8.4.2.2.4.5.6.7.2.3.3.6.4.9.1.3.1.6.1.8v.4c0 .1 0 .1-.1.2 0 .1 0 .1-.1.1h1c.1 0 .2-.1.3-.1.1-.1.2-.2.4-.3l.6 1.1zm-4.4-1.9c-.1-.1-.1-.1-.2-.1h-.2c-.1 0-.1.1-.2.1-.2.2-.5.4-.7.6-.2.2-.4.4-.6.7-.2.2-.3.5-.4.7-.1.2-.2.5-.2.7v.2c0 .1.1.1.2.1s.2 0 .4-.1c.1-.1.3-.1.5-.2s.3-.2.5-.3c.1-.1.3-.2.4-.3l.5-.5c.1-.2.3-.3.4-.5-.1-.1-.1-.2-.2-.3 0-.1 0-.2-.1-.3V51c-.2 0-.2-.1-.1-.2z"/><path d="M115.5 54.9c.1-.1.4-.2.6-.4.3-.2.5-.3.8-.5l.9-.6c.3-.2.5-.4.8-.5l.7 1c-.2.3-.5.5-.8.8-.3.2-.6.5-1 .7-.3.2-.7.4-1 .6-.3.2-.7.4-1 .5-.3.2-.6.3-.8.4-.2.1-.4.2-.5.2-.1.1-.3.3-.4.5-.2.2-.4.5-.6.8-.2.3-.5.6-.8.9l-.9.9c-.3.3-.6.6-1 .9-.3.3-.7.5-1.1.7-.4.2-.7.3-1.1.4-.4.1-.8.1-1.1 0-.3 0-.6-.1-.9-.2-.3-.1-.5-.3-.7-.4-.2-.2-.4-.4-.5-.6-.1-.2-.1-.5-.1-.7 0-.3.2-.5.3-.8.2-.3.4-.5.7-.7.3-.2.6-.5 1-.7.4-.2.7-.4 1.1-.6.4-.2.8-.4 1.2-.5.4-.2.8-.3 1.1-.4.4-.1.7-.3 1-.4.3-.1.5-.2.7-.3-.4.1-.7.1-1 .2h-.7c-.2 0-.4-.1-.6-.2-.2-.1-.4-.2-.5-.4-.2-.1-.3-.3-.4-.5-.1-.2-.1-.4-.1-.6 0-.2.1-.4.2-.7s.2-.5.3-.8c.1-.3.3-.6.5-.9.2-.3.4-.6.6-.8.2-.3.5-.5.8-.7.3-.2.6-.3.9-.5l1.2 1.5c-.3.2-.5.4-.7.7l-.6.9c-.2.3-.3.6-.4.8-.1.3-.2.5-.2.7 0 .2 0 .3.1.4.2 0 .3 0 .6-.2.2-.1.5-.3.7-.5.3-.2.5-.5.8-.8.3-.3.5-.6.8-.9.2-.3.5-.6.7-.8s.4-.5.5-.7c.1-.2.3-.3.4-.3.2-.1.4-.1.5 0 .2 0 .3.1.4.1.1.1.2.1.2.2.1.1.1.2.1.3v.2c0 .1-.1.2-.1.3-.1.2-.2.3-.3.6-.1.2-.3.4-.4.7-.1.2-.3.5-.4.7-.1.2-.3.4-.4.6 0 .2 0 .3-.1.4zm-8 6c-.1.1 0 .1 0 0 .1.1.2.1.3.1.1 0 .2 0 .3-.1.1 0 .2-.1.3-.1.1 0 .2-.1.3-.1l.9-.6c.3-.2.5-.4.8-.6.3-.2.5-.4.7-.7.2-.2.5-.5.7-.8-.2.1-.5.3-.8.5-.3.2-.6.4-.9.5l-.9.6c-.3.2-.6.4-.8.6-.2.2-.4.3-.6.5-.3 0-.3.1-.3.2zM117.9 57c.2-.3.5-.5.7-.7.2-.2.4-.2.7-.2h.1s.1 0 .2.1c.1 0 .1.1.2.1s.1.1.1.1c.1.1.1.2.2.4.1.1.1.2.1.3 0 .1.1.2.1.3v.4c0 .1 0 .1-.1.2l-.3.3c-.1.1-.2.2-.4.3-.1.1-.3.2-.4.3-.2-.1-.4-.2-.7-.3-.2-.1-.4-.3-.5-.4-.1-.2-.2-.3-.2-.5 0-.3 0-.5.2-.7zm8.6-8.5c-.5.8-.9 1.5-1.3 2.2-.4.7-.8 1.3-1.3 1.9-.4.6-.9 1.2-1.4 1.8-.5.6-1 1.1-1.7 1.7-.1-.1-.2-.2-.3-.2l-.3-.3-.2-.2c-.1-.1-.1-.1-.1-.2s.1-.3.2-.5c.1-.3.2-.6.4-.9l.6-1.2c.2-.4.5-.9.7-1.3.3-.4.5-.9.8-1.3.3-.4.5-.8.8-1.2.2-.4.5-.7.7-.9l.5-.5h.4c.2 0 .4.1.6.2.2.1.4.3.5.4.2 0 .4.2.4.5z"/></g></g><g fill="#FFF"><path d="M21.8 167.1l-.3-.6-.3-.6c.8-.4 1.6-.6 2.5-.8.9-.2 1.7-.2 2.6-.2.4 0 .7.1 1 .2.3.1.6.2.8.4.2.2.4.4.5.7.1.3.2.7.1 1.1 0 .2-.1.5-.2.7-.1.2-.3.4-.5.6-.2.2-.4.3-.6.5-.2.1-.4.3-.6.4.4.1.8.1 1.1.2.3.1.6.3.9.5.2.2.4.4.5.7.1.3.2.6.1.9 0 .4-.2.8-.4 1.2-.2.4-.5.7-.8 1-.3.3-.7.6-1.1.8-.4.2-.9.5-1.3.6-.5.2-.9.3-1.4.5-.5.1-.9.3-1.3.3s-.8.2-1.1.2c-.3.1-.6.1-.8.1-.3 0-.6 0-.9.1h-.8c-.3 0-.5 0-.7-.1-.2 0-.4-.1-.5-.2-.1-.1-.2-.2-.2-.4s.1-.4.2-.6c0 0 .1-.1.1-.3.1-.2.2-.4.3-.7.1-.3.3-.6.5-1l.6-1.2c.2-.4.4-.9.6-1.3s.4-.9.6-1.3c.2-.4.3-.8.5-1.2.1-.6.2-.9.3-1.2zm-1 8c.4 0 .9-.1 1.3-.2.5-.1.9-.2 1.4-.3s.9-.3 1.3-.5.8-.4 1.1-.6c.3-.2.6-.5.8-.8.2-.3.3-.6.4-.9 0-.2 0-.4-.1-.5-.1-.1-.1-.2-.3-.3-.1-.1-.3-.1-.4-.2h-.5c-.2 0-.5.1-.8.2-.3.1-.6.2-1 .3s-.7.2-1.1.3c-.4.1-.7.2-1 .3l-1.1 3.2zm2-5.6c.2 0 .4-.1.6-.2.2-.1.5-.1.8-.2s.5-.2.8-.3c.3-.1.5-.2.7-.4.2-.1.4-.3.5-.5.1-.2.2-.3.2-.5 0-.1 0-.2-.2-.3s-.3-.1-.5 0c-.2 0-.4.1-.7.1-.2.1-.5.1-.7.2-.2.1-.4.1-.6.2s-.3.1-.4.1l-.5 1.8zM30 175.1c-.2-.5-.4-.9-.4-1.3-.1-.4-.1-.8 0-1.1.1-.4.2-.7.3-1 .2-.3.4-.6.6-.8.4-.4.8-.7 1.1-.9.4-.2.8-.3 1.2-.4s.8.1 1.2.2c.4.2.8.5 1.2.9l.2-.2c.1-.1.2-.1.3-.1.1 0 .2 0 .3.1s.2.1.3.2c.2.2.3.4.4.5.1.1.1.2.1.4 0 .1 0 .2-.1.4-.1.1-.2.3-.4.5-.3.4-.5.8-.7 1.2-.2.4-.3.8-.4 1.2 0 .2 0 .3.1.3s.3-.1.6-.2.6-.3.9-.6.7-.5 1-.8c.3-.3.7-.6 1-.8.3-.3.6-.5.8-.8.1.2.2.3.3.5.1.2.1.3.1.4 0 .1 0 .3-.1.4 0 .1-.1.2-.1.3-.4.6-.9 1.1-1.5 1.6s-1.2.8-1.8 1.1c-.3.1-.5.2-.8.3-.3.1-.6.1-.8.1-.3 0-.5-.1-.8-.1-.2-.1-.5-.2-.7-.3-.1-.1-.2-.2-.2-.3 0-.1-.1-.2-.1-.3s0-.2.1-.3c0-.1.1-.2.1-.3-.4.2-.7.4-1.1.5-.4.1-.7.1-1.1.1-.3 0-.6-.1-.8-.2-.1-.2-.3-.3-.3-.4zm3.7-4.1c-.1 0-.2.1-.3.2-.1.1-.3.2-.4.4-.1.1-.3.3-.4.5-.1.2-.3.4-.4.5-.1.2-.2.4-.3.5-.1.2-.1.3-.2.5v.4c0 .1.1.1.3.2.3 0 .6 0 .9-.2.3-.1.5-.3.8-.6.2-.2.5-.5.7-.8.2-.3.4-.6.5-.9 0-.1 0-.1-.1-.2s-.1-.2-.3-.2c-.1-.1-.2-.1-.4-.2-.1-.1-.3-.1-.4-.1z"/><path d="M47.5 173.4c-.4.3-.9.5-1.3.7-.5.1-1 .2-1.5.2 0 0 0 .1-.1.2s-.2.2-.3.4c-.1.2-.3.3-.4.5s-.3.3-.5.5c-.3.3-.6.5-1 .7-.3.2-.7.4-1 .6-.1 0-.2-.1-.4-.1-.2-.1-.3-.1-.5-.2l-.6-.3c-.2-.1-.4-.2-.5-.3-.2-.1-.3-.2-.4-.3-.1-.1-.2-.2-.1-.3 0-.3 0-.6.1-1 .1-.3.1-.7.2-1.1.1-.4.2-.7.3-1.1.1-.4.2-.7.4-1.1.3-.8.7-1.7 1.1-2.5.4-.8.9-1.6 1.4-2.3.5-.8 1-1.5 1.5-2.2.5-.7.9-1.3 1.3-1.9.1 0 .1 0 .2.1s.2.2.2.3c.1.1.2.2.3.4.1.1.2.2.2.3 0 0 .1.1.1.2v.2c-.3.6-.7 1.2-1 1.8-.4.6-.7 1.2-1.1 1.7-.4.6-.7 1.2-1 1.7-.3.6-.7 1.1-1 1.7l.2-.2c.1 0 .2-.1.3-.1h.6c.3 0 .5.1.7.2.2.1.4.3.6.4.2.2.3.3.4.5s.2.4.2.5c.4.1.7 0 1.1-.1.4-.1.7-.2 1-.4.1 0 .1-.1.2-.1h.1s.1 0 .1.1c0 0 .1.1.1.2v.7c0 .1-.1.2-.1.3.1.4 0 .5-.1.5zm-4.2.5c-.1 0-.3-.1-.4-.2-.1-.1-.3-.2-.5-.3-.2-.1-.3-.2-.5-.4-.2-.1-.3-.3-.5-.4l-.3.6c-.1.2-.1.4-.2.6s-.1.4-.1.6v.8l.1.1c.2 0 .4 0 .7-.1.2-.1.5-.2.7-.3.2-.1.4-.3.6-.4.1-.3.3-.4.4-.6z"/><path d="M51.8 174.3c.1-.1.3-.2.5-.4s.4-.3.7-.5c.2-.2.5-.4.7-.6.2-.2.4-.4.6-.5l.8.8c-.2.2-.4.5-.6.7-.2.2-.5.5-.8.7-.3.2-.5.5-.8.7-.3.2-.5.4-.8.6-.2.2-.5.3-.7.4s-.3.2-.4.3c-.1.1-.2.3-.3.5-.1.2-.3.5-.5.7l-.6.9c-.2.3-.4.6-.7.9-.2.3-.5.6-.8.8-.3.3-.6.5-.9.7-.3.2-.6.4-.9.5-.3.1-.7.2-1 .2-.3 0-.6 0-.8-.1-.3-.1-.5-.2-.7-.3-.2-.1-.4-.3-.5-.5-.1-.2-.2-.4-.2-.6 0-.2.1-.5.2-.7.1-.2.3-.5.6-.7.2-.2.5-.5.8-.7l.9-.6c.3-.2.7-.4 1-.6.3-.2.6-.3.9-.5.3-.2.6-.3.8-.4l.6-.3c-.3.1-.6.2-.8.2-.2 0-.4.1-.6.1-.2 0-.3 0-.5-.1s-.3-.2-.5-.3l-.4-.4c-.1-.2-.1-.3-.1-.6 0-.2 0-.4.1-.6 0-.2.1-.5.2-.8.1-.3.2-.5.3-.8.1-.3.3-.5.5-.8.2-.2.4-.5.6-.7.2-.2.5-.4.7-.5l1.2 1.2c-.2.2-.4.4-.6.7-.2.3-.3.5-.4.8-.1.3-.2.5-.3.8-.1.2-.1.5-.1.6 0 .2 0 .3.1.3s.3-.1.5-.2.4-.3.6-.5c.2-.2.4-.5.6-.7.2-.3.4-.6.6-.8.2-.3.4-.6.5-.8s.3-.5.4-.7c.1-.1.2-.3.4-.3.2-.1.3-.1.5-.1.1 0 .2 0 .3.1.1 0 .2.1.2.2.1.1.1.1.1.2v.2c0 .1 0 .2-.1.3-.1.1-.1.3-.2.5l-.3.6-.3.6c-.1.2-.2.4-.3.5.1.2 0 .3 0 .4zm-6.5 6.1c.1.1.2 0 .3 0 .1 0 .1 0 .2-.1.1 0 .2-.1.3-.1.1 0 .2-.1.2-.2.3-.2.5-.4.7-.6l.6-.6c.2-.2.4-.4.6-.7.2-.2.4-.5.6-.8-.2.1-.4.3-.7.5-.3.2-.5.4-.8.6-.3.2-.5.4-.8.6s-.5.4-.7.6c-.2.2-.4.3-.5.5s0 .2 0 .3zM61.5 175.8c.2 0 .4 0 .7-.1.3 0 .5-.1.8-.2s.6-.2.8-.4c.3-.1.5-.3.8-.5l.6-.6c.2-.2.3-.5.3-.8v-.1c0-.1-.1-.3-.2-.4l-.5-.5c-.2-.2-.4-.3-.7-.5-.3-.2-.5-.3-.8-.5-.3-.2-.6-.4-.8-.6-.3-.2-.5-.4-.7-.6-.2-.2-.4-.4-.5-.7-.1-.2-.2-.5-.2-.7 0-.3.1-.5.3-.8.2-.2.4-.5.7-.7.3-.2.6-.4.9-.5.3-.1.7-.3 1-.4.3-.1.7-.2 1-.2.3 0 .6-.1.8-.1.3 0 .5 0 .8.1l.6.3c.2.1.3.3.4.5.1.2.1.4.1.7V167.8h-2.4c-.4 0-.7.1-1 .1-.3.1-.5.2-.7.4.3.2.6.4 1 .6.4.2.7.4 1.1.6.3.2.7.4 1 .7.3.2.6.5.8.7s.4.5.6.8c.1.3.2.6.2.9v.2c-.1.5-.2 1-.4 1.4-.2.4-.5.8-.8 1.1-.3.3-.6.6-1 .8l-1.2.6c-.4.2-.8.3-1.3.3-.4.1-.9.1-1.3.1-.6 0-1.2-.1-1.7-.3-.5-.2-1-.3-1.3-.5-.4-.2-.6-.4-.8-.6-.2-.2-.3-.4-.3-.5v-.2c0-.1.1-.1.1-.2s.2-.1.3-.1.3-.1.5 0c.2 0 .4.1.5.2.2.1.3.2.5.3.2.1.4.2.7.3 0 .2.3.2.7.3z"/><path d="M77.7 174c-.1.1-.2.3-.3.4-.1.1-.2.3-.3.4-.3.4-.6.8-1 1.2-.3.4-.7.7-1 1-.3.3-.7.5-1 .7-.3.2-.6.2-.8.2-.2 0-.4 0-.6-.1-.2 0-.4-.1-.6-.2-.2-.1-.3-.2-.4-.3-.1-.1-.2-.3-.1-.6v-.1-.1c.1-.3.1-.6.3-.9.1-.3.3-.5.4-.8.2-.3.3-.5.5-.8.2-.3.3-.5.4-.8-.2 0-.3 0-.5.1l-.6.3c-.2.1-.4.3-.6.4s-.4.3-.6.5l-.5.5c-.1.2-.3.3-.4.4-.2.2-.3.4-.5.7-.1.2-.3.4-.5.6l-.5.5c-.2.2-.4.2-.7.2h-.1-.1-.1s-.1 0-.1-.1c-.1 0-.2-.1-.2-.2v-.2c0-.1.1-.3.1-.5s.1-.4.2-.7c.1-.2.1-.5.2-.8.1-.3.1-.5.2-.8.1-.3.1-.5.2-.7.1-.2.1-.4.2-.6.2-.6.5-1.2.7-1.7.3-.6.5-1.1.7-1.6.1-.2.2-.5.4-.8.2-.3.4-.7.6-1 .2-.4.5-.7.7-1.1.3-.4.5-.7.8-1 .3-.3.6-.5.9-.7.3-.2.6-.3.9-.3.1 0 .3.1.5.1.2.1.3.2.5.3s.3.3.3.4c.1.2.1.3.1.4 0 .4-.1.9-.3 1.3-.2.5-.4.9-.6 1.4-.2.4-.5.9-.8 1.3-.3.4-.5.8-.8 1-.1.1-.1.2-.3.3-.1.1-.3.2-.4.4-.2.1-.3.3-.5.4-.2.2-.3.3-.5.4l-.4.4c-.1.1-.2.2-.2.3.1 0 .2-.1.4-.2s.3-.3.5-.4c.2-.2.4-.3.7-.5.2-.2.5-.3.7-.5.2-.1.5-.3.7-.3.2-.1.5-.1.7-.1.1 0 .2 0 .2.1.1.1.1.2.2.3 0 .1.1.3.1.4v.4c0 .2 0 .4-.1.7-.1.2-.2.4-.3.7-.1.2-.2.4-.4.7s-.3.4-.4.6c-.1.2-.3.4-.4.6l-.3.6c.2-.1.4-.3.7-.5.3-.2.6-.5.9-.8.3-.3.7-.6 1-1 .4-.3.7-.7 1-1l.2.3 1 .9zm-3.7-6.8h-.1c-.1.2-.3.3-.5.6-.2.2-.4.5-.6.7-.2.3-.4.5-.6.8-.2.3-.4.6-.5.8-.1.3-.3.5-.4.8-.1.2-.1.5-.1.6.3-.3.5-.6.8-.9.2-.3.4-.5.6-.8.2-.2.3-.5.5-.7s.3-.4.4-.6c.1-.2.2-.4.3-.7.1-.1.1-.4.2-.6z"/><path d="M84.5 174.1c-.1.2-.2.4-.3.5-.1.2-.3.3-.5.4-.2.1-.4.2-.6.2-.2.1-.4.1-.6.1-.2 0-.4-.1-.6-.2-.2.3-.3.6-.5.9-.2.3-.4.5-.7.7-.2.2-.5.4-.8.6-.3.2-.6.3-.9.5h-.2c-.1 0-.2 0-.4-.1s-.3-.2-.5-.3-.3-.2-.5-.4c-.2-.1-.3-.3-.5-.4s-.3-.3-.4-.4l-.3-.3v-.3-.3-.3-.2c0-.3.1-.5.2-.8.1-.3.2-.5.4-.8.1-.3.3-.5.5-.7.2-.2.3-.4.5-.6.1-.2.3-.3.5-.5s.5-.3.7-.5c.3-.1.5-.2.8-.3.3-.1.5-.1.8-.1.3 0 .5.1.7.3l.6.6c.2.2.3.5.4.7.1.3.2.5.1.7V173.5h.5s.2 0 .3-.1c.1 0 .2-.1.3-.1l.3-.3.7 1.1zm-4.1-1.3c-.1 0-.1-.1-.2-.1H80c-.1 0-.1.1-.2.1-.2.2-.4.4-.5.6-.2.2-.3.4-.4.7s-.2.4-.3.7-.1.4-.1.6c0 .1 0 .1.1.1l.1.1c.1 0 .2 0 .3-.1.1-.1.2-.1.4-.2.1-.1.3-.2.4-.3l.3-.3c.1-.2.3-.3.4-.5.1-.2.2-.3.3-.5l-.2-.2c0-.1-.1-.1-.1-.2v-.2c-.1-.1-.1-.2-.1-.3z"/><path d="M95.5 175c-.1.1-.2.2-.4.3-.2.1-.3.2-.5.3-.2.1-.4.2-.7.3-.2.1-.5.1-.7.1h-.3c-.1 0-.2-.1-.2-.1-.1 0-.1-.1-.2-.1l-.2-.2c0 .1-.1.4-.2.6-.1.3-.2.5-.4.8-.2.3-.3.6-.5.9-.2.3-.4.6-.7.8-.2.2-.5.4-.8.6-.3.2-.5.2-.8.2-.2 0-.4-.1-.6-.2-.2-.1-.4-.3-.6-.4s-.4-.3-.6-.5c-.2-.2-.3-.4-.4-.5-.2.1-.4.3-.6.4l-.6.3c-.2.1-.4.2-.7.2-.2.1-.5.1-.7.1-.3 0-.5-.1-.8-.1s-.5-.2-.6-.4c-.2-.2-.3-.3-.4-.6-.1-.2-.1-.5-.1-.8 0-.3.1-.6.1-.9.1-.4.2-.7.3-1.1.1-.4.3-.8.5-1.2.2-.4.4-.7.7-1 .3-.3.5-.5.8-.7.3-.2.6-.3 1-.3h.3c.1 0 .2.1.2.1.1 0 .2.1.2.2l.3.3c-.3.3-.6.6-.8.9-.2.3-.4.7-.6 1-.2.4-.3.7-.4 1.1-.1.3-.2.7-.2.9 0 .2 0 .4.1.6.3-.1.6-.2.9-.5.3-.2.6-.6.9-.9l.9-1.2c.3-.5.6-.9.8-1.4.1 0 .2-.1.4 0 .1 0 .3 0 .4.1.1 0 .3.1.4.2l.3.3c.1.1.1.2.1.4 0 .1 0 .2-.1.3-.1.2-.2.3-.3.5-.1.2-.2.4-.4.7-.1.2-.3.5-.4.7-.1.3-.2.5-.3.7s-.1.5-.1.7V177.8c.1 0 .2-.1.4-.2s.3-.3.5-.5.4-.5.6-.8l.6-.9.6-.9c.2-.3.3-.6.5-.8.1-.2.3-.4.4-.6.2-.1.2-.1.3-.1l.3.3.4.4.4.4c.1.1.3.2.4.2.2 0 .3 0 .5-.1s.4-.2.6-.4l.8 1.2z"/><path d="M101.6 175.3c-.1.2-.3.3-.5.5l-.7.7c-.3.3-.5.5-.8.7l-.9.6c-.3.2-.6.3-.8.4-.3.1-.5.2-.7.1 0 0-.1 0-.2-.1-.1 0-.2-.1-.3-.1-.1-.1-.3-.1-.4-.2-.1-.1-.3-.1-.4-.2-.1-.1-.3-.1-.4-.2-.1-.1-.2-.1-.3-.1-.2-.1-.4-.2-.5-.4-.2-.1-.3-.3-.4-.5s-.2-.4-.2-.6-.1-.4-.1-.7c0-.3.1-.7.2-1 .1-.3.3-.7.5-1 .2-.3.4-.6.7-.9.3-.3.5-.6.9-.8.3-.2.6-.4.9-.5.3-.1.7-.2 1-.2.5 0 .9.2 1.2.4.3.2.4.6.4 1.1 0 .3-.1.5-.2.8-.1.2-.2.4-.4.6-.2.2-.4.4-.6.5s-.5.3-.7.4c-.2.1-.5.2-.7.3-.2.1-.5.2-.7.3-.1.1-.1.3-.2.4 0 .1-.1.3-.1.4 0 .2 0 .4.1.5.1.1.3.2.6.2s.6-.1.9-.2c.3-.1.6-.3.9-.5.3-.2.6-.4.9-.7l.7-.7.2-.2.3-.3c.1-.1.2-.2.4-.2.1-.1.3-.1.4-.1h.2s.1 0 .1.1v.2c0 .2-.1.5-.1.7.1.1 0 .3-.2.5zm-4.4-1.9c.2 0 .3-.1.5-.1.1-.1.3-.2.4-.3l.4-.4c.1-.1.2-.3.3-.4h-.2c-.2 0-.3.1-.5.2-.1.1-.3.2-.4.3-.1.1-.2.3-.3.4-.1 0-.2.2-.2.3z"/><path d="M100.7 174.4c0-.1.1-.2.2-.3.1-.1.1-.2.2-.2.1-.1.1-.2.1-.3 0-.1 0-.3.1-.4v-.5-.5c0-.1 0-.3.1-.4 0-.1.1-.2.1-.3h.2c.1 0 .2 0 .3.1.1.1.2.1.2.2.1.1.2.1.2.2.1.1.2.1.3.1.5 0 .9 0 1.4-.1.4-.1.9-.2 1.3-.5.2-.1.4-.3.7-.4.2-.2.4-.3.6-.5 0 0 .1 0 .1-.1h.1c.1.1.2.1.2.3.1.1.2.2.2.4.1.1.1.3.1.4 0 .1.1.2 0 .3 0 .1-.1.2-.2.2s-.3.1-.4.2l-.4.4c-.1.2-.3.4-.4.6-.1.2-.3.4-.4.6-.1.2-.3.4-.4.6-.1.2-.2.3-.3.5-.2.3-.4.6-.5.9-.1.3-.2.6-.2 1v.5c0 .1.1.1.1.1.1 0 .3 0 .4-.1.2-.1.4-.2.6-.4.2-.2.4-.3.7-.5.2-.2.5-.4.7-.6.2-.2.4-.4.6-.5l.4-.4.4-.4.2-.2c.1-.1.1-.1.2-.1s.2.1.3.1.2.1.2.2c.1.1.1.1.1.2s0 .2-.1.3c0 .1-.1.2-.2.3s-.1.2-.2.3c-.1.1-.2.2-.3.4-.2.3-.4.5-.6.8-.2.3-.4.6-.7.9-.2.3-.5.6-.8.9-.3.3-.7.5-1.1.8-.2-.1-.5-.2-.7-.3-.2-.1-.5-.2-.7-.3-.2-.1-.5-.3-.7-.4-.2-.1-.4-.3-.6-.4-.3-.3-.5-.6-.5-1 0-.3.1-.6.2-.9.1-.3.2-.6.4-.9.1-.3.3-.6.5-.8.2-.3.3-.5.4-.6-.1.1-.2.1-.3.1h-.3c-.1 0-.3 0-.4-.1-.1 0-.2-.1-.3-.2 0 .2-.1.4-.2.6l-.3.6c-.1.2-.2.3-.4.4-.1.1-.3.2-.4.2-.1 0-.1 0-.2-.1l.1-1z"/></g><g fill="#FFF"><path d="M115.9 162.5c-2.1-2.4-17.2-3.3-19.7-3.4-6.6-.2-13.1-.2-19.7-.3v-.1c.3-2.2.3-4.7-1.1-6.6-1.1-1.5-3.3-2.5-5.1-1.8-1.9.1-3 1.1-3.4 3-.2.9-.2 1.8-.3 2.8 0 .8-.2 1.7-.2 2.5-6.9-.3-13.8-.2-20.7-.5-3.5-.2-7-.4-10.5-.9-2.7-.4-5.4-1.1-8.1-1.1-5.3 0-8.1 2.6-12.4 5.3-4.8 2.9-9.9 5.4-14.4 8.9-.3.2-.3.6-.2.8 0 .1-.1.2-.1.3.2 4.7 4.6 7.2 8.3 9.5 3 1.8 6.1 3.2 9.1 4.9 2.3 1.3 4.6 3.1 7.2 3.7 6.7 1.7 13.7 1.1 20.5 1.4 5.9.2 11.8.6 17.7 1.1-.1 1.6.2 3.3.1 4.9-.2 3.4-.4 6.8-.7 10.2-.6 7.1-1.1 14.4-2.5 21.4-.8 4.1-4.3 34.5-3 41.8-.8-.8-1.7-1.5-2.8-2-.3-.1-.9-.2-.8.3.2 1.8.6 3.5 1.2 5.2-2.8-3.1-5.8-5.5-10.1-6.7-.3-.1-.5.2-.4.5 1.3 3 1.8 6.3 3.1 9.3.2.4.9.4.7-.1-1.2-2.8-1.7-5.8-2.8-8.6 4.6 1.6 7.6 4.7 10.7 8.5.3.4 1.3.4.9-.3-1-2.1-1.7-4.2-2-6.4 1.6 1.1 2.8 2.5 3.7 4.3.2.4 1 .8 1.2.2 0-.1.2-.6.3-1.1.4.1.9.1 1.3.1.3.5.6 1.1.6 1.2.2.3 1 .8 1.1.2.1-.6.4-1.2.7-1.7v.5c0 .5.9 1.1 1.2.5 1.2-2.8 2.7-5.4 4.5-7.8-.8 2.6-1.4 5.2-1.8 7.8-.1.5.5 1.1 1 .8.7-.4 1.3-.9 1.9-1.4 0 .8 0 1.5.1 2.3 0 .4.5.9.9.7l.9-.3c0 .7-.2 1.3-.5 1.9-.2.6.9 1.3 1.2.6.5-1.3.6-2.3.3-3.7-.1-.4-.8-.8-1.1-.5-.2.1-.4.2-.5.3 0-.9 0-1.9.1-2.8 0-.5-.8-1-1.1-.6-.5.6-1.1 1.1-1.6 1.5.6-3.3 1.5-6.5 2.7-9.6.2-.5-.7-1.2-1.1-.7-1.2 1.4-2.4 2.8-3.4 4.3.1-1 .1-1.9.3-2.7 1-5.7 3.6-39.6 4.1-45.3.5-6.5.7-13.1 1.3-19.6.2-2.2.6-4.4.3-6.4.4 0 .8 0 1.2-.1.2.1.3.1.6.1 4.1-.6 8.4.1 12.5.3 4.1.2 17.5 1 21.6 1.1 3.1.1 9.1.9 10.2-3.3.9-3.3.3-6.7.7-10 .3-2.7.7-5.4.8-8-.1-4.3-.7-8.6-4.7-10.6zm-41-9.2c.8 1.7.9 3.6.9 5.4v.1h-1.5c.9-2 .7-5.2-.8-7 .6.3 1.1.8 1.4 1.5zm-5.1-1.6c3.9-.6 4.3 4.3 4 7.1v.1c-2.1 0-4.2-.1-6.2-.2.7-2.1-.7-6.6 2.2-7zm-54.5 10.9c2-1.3 3.9-2.9 6-3.9 2.5-1.2 5.2-1.2 8-1 5.4.6 10.8 1.4 16.3 1.6 5.7.2 11.4.1 17.1.3 9.6.4 19.3.7 29 .6 3.4 0 23.5-.4 24.5 4.3v.1c-.7 5.3-.6 10.7-.9 16-.1 1.8-.1 3.9-.6 5.6-1.1 3.5-13.4 2.5-16.5 2.3-11.5-.7-22.8-1.8-34.3-2.1-11.7-.3-23.6-.8-35.2-2-5.4-.6-10-3-14.7-5.5-4.3-2.3-8.5-4.7-12-8.2 4.1-2.8 8.8-5.3 13.3-8.1zm43.1 99c.8-4.5 3.5-37.1 4-41.6.6-5.2.9-10.4 1.2-15.7.3-4.1.1-8.3.5-12.4.1-1.8 1.4-2.9 3.2-2.8 1 0 3.1-.1 3.3 1.5.2 2.1-.3 4.4-.4 6.5-.3 5.1-.6 10.1-1 15.2-.3 5.2-.7 10.4-1.2 15.6-.5 5.1-3.7 37.9-3.9 43.3-.2-.3-.6-.4-.9-.2-.2.3-.4.5-.6.8-.3.1-.7.1-1 .1-.4-.6-.9-1.1-1.4-1.2-.4-.1-.7.1-1 .3-.8-.7-1.3-1.8-1.3-3.3-.1-2 .1-4 .5-6.1zm12.8-57.3c-.3 4.8-.4 9.6-.8 14.4-.3 4.6-2.6 37.3-3.3 41.8-.4 2.4-.5 5.4-1.3 8-.5.7-.9 1.5-1.3 2.3 1.1-7.9 4.2-42.2 4.8-49.4.7-7.2 1.1-14.5 1.6-21.7.2-2.4.7-5.1.7-7.6 1.1 3.7-.2 8.9-.4 12.2zm47.9-27.3c-.3 2.4-.6 4.7-.6 7.2 0 2.8.6 7.9-3.1 8.7-4.7 1-19.7-.6-24.4-1-5.3-.5-11.4-1.7-16.6-.7-.6-.1-1.4-.4-1.9-.1-.3-.7-.7-1.4-1.3-2-.1-.1-.2-.1-.3-.1-.2-.2-.4-.3-.7-.4-2.3-.8-6.2-1.1-7.1 1.7 0 .1-.1.3-.1.4-1.4-.3-3.1-.8-4.6-.6-3.5-.5-7.3-.4-10.7-.6-5.8-.2-11.8.2-17.6-.4-6.4-.7-11.4-4.2-17-7.1-3.7-1.9-9.7-4.7-11.3-9 3.4 3 7.3 5.4 11.4 7.4 4.5 2.2 9.1 4.9 14.2 5.4 13.7 1.5 27.7 1.9 41.5 2.2 6.8.2 13.5.6 20.3 1.2 3.4.3 16.1 1.2 19.5 1.4 1.5 0 3.5.4 4.8-.6 2.6-1.9 2.6-5.6 2.7-8.4l.6-16.8c0-.1-.1-.2-.1-.3 0-.3-.1-.5-.1-.8 3.5 3.5 3.1 8.5 2.5 13.3z"/><path d="M49 272.4c-.2-.1-.7-.2-.6.1.1.9.4 1.8.8 2.6.2.4.9.4.7-.1-.2-.5-.4-1-.5-1.5 1.1.9 2.2 1.8 3.4 2.7.5.4 1-.2.5-.6-1.5-1-2.9-2.1-4.3-3.2z"/></g></svg>