<svg xmlns="http://www.w3.org/2000/svg" width="887.4" height="498.7" viewBox="0 0 887.4 498.7"><path fill="#FFF" d="M587 157l-37.4-25.6c-2.2-1.5-6.2-2.2-8.8-1.4l-43.6 12.3c-2 .6-2.5 1.7-2.6 2.3-.1.6 0 1.8 1.7 3l7 4.8-1.3 8.2c-1.2.2-2.2 1.1-2.4 2.3-.3 1.6.8 3.1 2.4 3.3 1.6.3 3.1-.8 3.3-2.4.2-1.3-.5-2.4-1.5-3l1.2-7.3 12.9 8.8-.4 2.1c-.1.7.1 1.4.5 2.1.2-.3.4-.5.7-.7l.1-.1c.1-.2.3-.3.4-.5l.2-.2v-.1c0-.1-.1-.2-.1-.3 0-.2.2-.4.4-.7.2-.2.6-.4 1-.7 1.8-.9 5.3-1.6 10.2-1.6 1.1 0 2.2.1 3.4.2 1.7.1 3.6.3 5.6.7 2.1.3 3.9.8 5.6 1.2 1.2.3 2.3.6 3.3 1 4.6 1.5 7.6 3.3 9.1 4.7.3.3.6.7.8 1 .2.3.2.6.2.8 0 .1-.1.2-.1.2 0 .1-.1.2-.2.3.5.4 1 .8 1.4 1.2.4-.4.7-.9.8-1.5l.3-2.1 25.2-7.1c2-.6 2.5-1.7 2.6-2.3 0-.5-.1-1.7-1.9-2.9zm-83.5 6.5c-.1.6-.7 1-1.2.9-.6-.1-1-.7-.9-1.3.1-.6.6-.9 1.2-.9h.2c.4.3.8.8.7 1.3zm55.8 4.9c-1.5-1.6-4.1-3.1-7.5-4.5-.9-.4-1.9-.7-2.9-1-2.6-.8-5.5-1.5-8.7-2.1-3.1-.5-6-.8-8.8-.8h-3.1c-3.7.2-6.7.8-8.6 1.8l1.2-7.6c.3-.3.5-.6.9-.9 4.2-3.5 11.9-5.1 20.2-3.8 8.4 1.4 15.1 5.4 18 10.1v.1c.2.3.3.7.5 1l-1.2 7.7zm26.4-7.8l-24.4 6.9 1.1-6.9c-.1-.2-.1-.3-.2-.5-.1-.3-.3-.6-.5-.8-3-5.3-10.3-9.9-19.4-11.4-9.1-1.5-17.4.5-22 4.5-.3.2-.6.4-.8.7-.1.1-.2.3-.4.4l-1.1 6.8-12.9-8.8.8-5.1c.1-.5-.3-1-.7-1-.5-.1-1 .2-1 .7l-.7 4.3-6.3-4.3c-.8-.5-1-1-1-1.3 0-.3.4-.6 1.3-.9l43.6-12.3c1-.3 2.4-.3 3.8-.1 1.4.2 2.7.7 3.5 1.3l37.4 25.6c.8.5 1 1 1 1.3.2.3-.2.7-1.1.9z"/><g fill="none" stroke="#FFF" stroke-width="1.406" stroke-linecap="round" stroke-linejoin="round" stroke-miterlimit="10"><ellipse transform="rotate(-20.149 177.227 186.668)" cx="177.3" cy="186.7" rx="1.9" ry="1.9"/><path d="M186 195.2s4.4 1.1 4.4 4c.8-1.4 2-2.9 5.7-2.3-.8-.1-5-1.4-4.6-4-.9 1.9-1.9 2.5-5.5 2.3zM218.6 168.1s-2.9-11.6-12.2-5c.2.8 1.7 3.5 1.7 3.5s5.3-5.1 6.7 3.5c1.8-.7 3.8-2 3.8-2zM198.6 181.2c-1.6-1.1-3.1.8-4.8-.3-1.7-1.2-.4-3.1-2.1-4.3-1.7-1.2-3.1.8-4.8-.3-1.7-1.2-1.3-2.2-2.1-4.3l-2.4 3.6c.2 2.1.2 3.4 2.1 4.3 1.9.9 3.1-.8 4.8.3 1.7 1.2.4 3.1 2.1 4.3 1.4.9 3.7-.4 4.8.3 1.7 1.2 1.4 1.8 2.1 4.3l2.9-3.3c-.4-1.8-.9-3.5-2.6-4.6zM207.6 182.6l3.7 2.1 2.4-3.4-3.7-2.7zM219.5 185.7c.6-2.2 3.1-1.4 3.7-3.6.6-2.2-1.8-2.9-1.1-5.1s3.1-1.4 3.7-3.6c.6-2.2-1.8-2.9-1.1-5.1.6-2.2 3.1-1.4 3.7-3.6M176.5 207.7l5.4-1-3.3-4.9zM232.9 176.4l-3.7 6.4 6.1-.8zM229.9 192.5s7.8 1.9 12.5-4.8M197.1 168l3.9 4.4M192.6 208.3s-5-1.2-5.6 5.3c-.6 6.5-6.6 4.9-6.6 4.9"/></g><g fill="none" stroke="#FFF" stroke-width="2" stroke-miterlimit="10"><path stroke-linecap="round" stroke-linejoin="round" d="M228 250.1c3 9 5.1 15.3 5.8 17.5 0-1.4 1.6-3.1 4.1-4.1 2.6-1 5.1-.8 5.9.3-2.6-5-6-11.2-8.4-18.5M228.4 225.7c-5.6-14.5-8.9-26.9-8.9-26.9-6.5-3-9.6 3.1-9.6 3.1 3.1 6.8 6.6 15.7 10 24.9"/><path d="M233.8 267.6c0 .2 0 .3.1.5.6 1.5 3.3 1.8 6 .7 2.8-1.1 4.7-3.2 4.1-4.6 0-.1-.1-.2-.2-.3"/></g><path fill="none" stroke="#FFF" stroke-width="2" stroke-linecap="round" stroke-linejoin="round" stroke-miterlimit="10" d="M225.9 251.9c1.6 5.7 3 11.7 4.1 18 0 0 2.1-2 3.6-3.3M210 201.9s-2.1-.9-4.4.5c0 0 6.1 10 12.6 26.2"/><path fill="#FFF" stroke="#FFF" stroke-linecap="round" stroke-linejoin="round" stroke-miterlimit="10" d="M225.2 216.8l-6 2-1.6 1.6 1.5 4.1 2.1.3 6.2-1.7zM214.8 220.7h-.9l-5-3.2 4.2 6.7-2.4 1.8 5.2.8 1.1-1z"/><path fill="#FFF" d="M378.6 311.8l2.2-1c-2.6-5.5-1.6-9.7-.7-11.7.1-.2.2-.5.3-.6.4 0 .8.1 1.2.1 4.1 0 8-1.9 9.6-4.7 1-1.7.9-3.6-.1-5.3-.8-1.3-2.1-2-3.6-2-3.3 0-6.1 2.9-7.7 6.5-1.6-3.6-4.4-6.5-7.7-6.5-1.5 0-2.8.7-3.6 2-1 1.7-1.1 3.6-.1 5.3 1.5 2.7 5.4 4.7 9.4 4.7-.1.2-.1.4-.2.6-1 2.5-1.7 7 1 12.6zm8.8-23c.7 0 1.2.3 1.6.9.6.9.6 1.9.1 2.9-1.2 2.1-4.6 3.6-7.9 3.5 1.1-5 4.3-7.3 6.2-7.3zm-17 3.8c-.5-1-.5-1.9.1-2.9.4-.6.9-.9 1.6-.9 1.9 0 5 2.3 6.3 7.2-3.5.2-6.9-1.3-8-3.4z"/><path fill="none" d="M0 0h887.4v498.7H0z"/></svg>