<svg xmlns="http://www.w3.org/2000/svg" width="417" height="302" viewBox="0 0 417 302"><path fill-rule="evenodd" clip-rule="evenodd" fill="#FFF" d="M361.5 37.6c-2.4-3.9-6.1-6-10.6-6-9.7 0-17.9 8.6-22.6 19.3-4.7-10.6-12.9-19.3-22.6-19.3-4.5 0-8.3 2.1-10.6 6-3.1 5-3.2 10.5-.4 15.6 4 7.2 13.5 12.6 23.8 13.7-5.2 5.4-12.4 13.9-7.9 27 1.3 3.7 2.6 7 3.8 9.9 3.9 9.4 5.3 13.5 1.8 18.8l5.9 3.9c5.8-8.7 2.7-16.1-1.1-25.5-1.2-2.8-2.5-5.9-3.7-9.5-3.4-9.8 2.3-15.6 7.3-20.8l.5-.5c2.3 2.4 6.1 7.4 4.5 12.7-3.7 12.5-1.6 25 5.8 34.3l5.5-4.4c-5.9-7.4-7.6-17.6-4.5-27.8 2.3-7.6-1.4-14.1-4.7-18 .7 0 1.3.1 2 .1 12 0 23.6-5.8 28.2-14 2.7-5 2.6-10.6-.4-15.5m-60.7 12.1c-1.6-2.8-1.5-5.7.2-8.4 1.1-1.7 2.6-2.6 4.6-2.6 5.6 0 14.8 6.8 18.4 21.4-9.8.3-19.8-4.1-23.2-10.4m54.8 0c-3.3 6-12.6 10.4-22 10.4h-1.2c3.6-14.5 12.8-21.4 18.4-21.4 2 0 3.5.9 4.6 2.6 1.7 2.8 1.8 5.6.2 8.4"/><path clip-rule="evenodd" fill="none" d="M0 0h417v302H0z"/></svg>