<svg xmlns="http://www.w3.org/2000/svg" width="409.2" height="792" viewBox="0 0 409.2 792"><g fill="#FFF"><path d="M45.9 737.3c-.6.3-1.3.6-2.3.8-1 .3-1.9.5-3 .7-1 .2-2 .4-2.9.6-.9.2-1.6.3-2.1.4-.6.1-1.1.2-1.5.2s-.7.1-1 .1c-.3 0-.5.1-.7.2-.2.1-.4.2-.5.4-.2.2-.3.5-.5.8-.2.3-.4.8-.7 1.3-.3.6-.6 1.3-1.1 2.3-.5 1-.9 2.1-1.3 3.2-.4 1.2-.8 2.3-1.1 3.5-.3 1.2-.5 2.3-.5 3.2 0 .4 0 .8.1 1.2.1.4.2.7.4.9.6 0 1.2-.2 2-.5s1.6-.8 2.6-1.3c.9-.5 1.9-1.2 2.8-1.9 1-.7 1.9-1.5 2.8-2.3.9-.8 1.7-1.6 2.5-2.4.8-.8 1.4-1.6 1.9-2.3l3.6 2.2c-.4.9-1 1.8-1.7 2.9-.7 1.1-1.5 2.2-2.4 3.2-.9 1.1-1.8 2.2-2.8 3.2-1 1-2 2-3.1 2.8-1 .8-2 1.4-3 1.9s-1.9.7-2.8.7c-.6-.2-1.3-.4-2.1-.7-.8-.2-1.7-.5-2.5-.8s-1.7-.6-2.6-1c-.8-.4-1.6-.8-2.3-1.3-.7-.5-1.2-1-1.6-1.7s-.6-1.4-.6-2.2c0-2.3.3-4.6 1-7.1s1.7-4.8 3.2-7.1c-.4.1-1 .1-1.6.2-.6.1-1.3.2-2 .3-.7.1-1.4.2-2.1.4-.7.1-1.4.2-2 .3s-1.2.1-1.6.2c-.5 0-.8 0-1-.1-.7-.2-1-.5-1-.7 0-.3.2-.6.6-.9s1-.6 1.7-.9c.7-.3 1.5-.6 2.3-.8.8-.3 1.6-.5 2.4-.7.8-.2 1.4-.4 1.9-.5 1.1-.2 1.9-.4 2.5-.5.6-.1 1.1-.3 1.4-.5s.7-.5.9-.9c.3-.4.6-.8 1.1-1.5.3-.4.6-.8.9-1.4.4-.6.8-1.3 1.2-1.9.4-.7.9-1.4 1.4-2.1.5-.7 1-1.3 1.5-1.9.5-.6 1-1 1.5-1.4.5-.4 1-.5 1.5-.5 1.1 0 2 .2 2.9.5.9.4 1.7.9 2.5 1.5l-3 4.2c-1 1.4-1.9 2.9-2.7 4.5.5 0 1.1-.1 1.8-.2s1.5-.2 2.3-.3c.8-.1 1.6-.2 2.5-.4.9-.1 1.7-.3 2.5-.4.8-.1 1.6-.2 2.3-.4.7-.1 1.3-.2 1.9-.2l-.7 2.9z"/><path d="M74.8 749.6c-.3.5-.6.9-1 1.4-.3.5-.7 1-1 1.4-1.1 1.5-2.2 2.9-3.4 4.3-1.2 1.4-2.3 2.6-3.5 3.6-1.2 1.1-2.3 1.9-3.4 2.5-1.1.6-2.1 1-3 1-.7 0-1.4 0-2.2-.1-.8-.1-1.4-.3-2.1-.5-.6-.3-1.1-.7-1.5-1.2-.4-.5-.6-1.2-.6-2.1v-.3-.3c.2-1.1.5-2.1.9-3.1s.9-2 1.5-3 1.1-2 1.7-2.9c.6-1 1.1-2 1.5-2.9-.6 0-1.2.2-1.8.5-.7.3-1.3.7-2 1.2s-1.4 1-2 1.7c-.7.6-1.3 1.2-1.9 1.8-.6.6-1.2 1.2-1.7 1.8-.5.6-.9 1.1-1.2 1.5-.6.8-1.1 1.6-1.6 2.4-.5.8-1 1.6-1.6 2.3-.5.7-1.2 1.3-1.8 1.7-.7.5-1.5.7-2.5.7H40c-.1 0-.2 0-.3-.1-.1 0-.3-.1-.5-.2-.4-.1-.6-.3-.7-.5-.1-.2-.2-.5-.1-.8.1-.4.1-.9.3-1.6.1-.7.3-1.5.5-2.4.2-.9.4-1.8.6-2.8.2-1 .4-1.9.6-2.9.2-.9.4-1.8.6-2.6.2-.8.4-1.5.6-2 .7-2.1 1.5-4.2 2.4-6.3.9-2.1 1.6-4.1 2.3-6 .3-.8.7-1.8 1.3-3 .5-1.2 1.2-2.5 1.9-3.8.7-1.3 1.5-2.7 2.4-4s1.8-2.6 2.8-3.6c1-1.1 2-1.9 3.1-2.6 1.1-.7 2.2-1 3.3-1 .5 0 1.1.2 1.6.5.6.3 1.1.7 1.7 1.2.5.5.9 1 1.3 1.5s.5 1.1.6 1.5c0 1.5-.3 3.1-.8 4.8-.5 1.7-1.2 3.3-2 5s-1.7 3.2-2.7 4.7c-1 1.5-1.8 2.8-2.7 3.9-.2.3-.5.6-.9 1l-1.4 1.4c-.5.5-1.1 1.1-1.7 1.6l-1.6 1.6c-.5.5-.9 1-1.3 1.4-.3.4-.5.8-.6 1 0 0 .1 0 .1.1h.2c.3-.1.8-.4 1.3-.9.5-.4 1.2-.9 1.9-1.5s1.5-1.2 2.3-1.8c.8-.6 1.7-1.2 2.5-1.8.9-.5 1.7-1 2.6-1.3.9-.4 1.7-.5 2.5-.5.3 0 .6.1.9.4.2.3.4.6.6 1.1.2.4.3.9.3 1.4.1.5.1 1 .1 1.5 0 .8-.1 1.6-.4 2.4-.2.8-.6 1.6-.9 2.4s-.8 1.6-1.3 2.4c-.5.8-.9 1.6-1.4 2.4-.5.8-.9 1.6-1.3 2.3-.4.8-.7 1.5-.9 2.3.7-.5 1.6-1.1 2.6-2s2.1-1.9 3.3-3 2.4-2.3 3.6-3.6 2.4-2.5 3.6-3.8l.8 1.1 1.2 2.1zm-14-24c-.3 0-.5 0-.5.1-.5.6-1 1.3-1.6 2.1-.6.8-1.2 1.7-1.9 2.7s-1.3 2-1.9 3-1.2 2-1.7 3-.9 1.9-1.2 2.8c-.3.9-.5 1.6-.5 2.3v.2c1-1.2 1.9-2.3 2.6-3.3.8-1 1.4-2 2-2.8s1.1-1.7 1.6-2.5c.4-.8.9-1.6 1.2-2.4.4-.8.7-1.6 1-2.4.4-1 .7-1.9.9-2.8z"/><path d="M90 746.5c.3.4.5.7.8 1l.7.7.5.5.2.2c-.3.6-.7 1.3-1.3 2.3-.6.9-1.3 1.9-2 2.9-.8 1-1.6 2.1-2.5 3.1s-1.7 2-2.6 2.9c-.8.9-1.7 1.5-2.4 2.1-.8.5-1.4.8-2 .8-.3 0-.8-.1-1.3-.2-.5-.2-1.1-.4-1.7-.6-.6-.2-1.2-.5-1.8-.8-.6-.3-1.2-.6-1.7-.9-.5-.3-1-.6-1.4-.9-.4-.3-.6-.5-.8-.6-.3-.5-.6-1-.7-1.6-.1-.6-.2-1.3-.2-2 0-.9.1-2 .4-3.3.3-1.3.6-2.5 1.1-3.8.5-1.3 1-2.6 1.6-3.9s1.2-2.4 1.8-3.4c.6-1 1.3-1.8 1.9-2.4.6-.6 1.2-.9 1.7-.9.3 0 .6.1.9.3.5.4.9.7 1.3 1.1.4.4.7.8.9 1.3.3.5.5.9.6 1.4s.4 1 .5 1.6c-.3.3-.6.8-1 1.4-.4.6-.7 1.2-1.1 1.9-.4.7-.7 1.4-1 2.2s-.6 1.6-.9 2.3c-.3.8-.5 1.5-.6 2.3-.2.7-.2 1.4-.2 2 0 .5.1.9.2 1.2.9-.4 1.9-1.1 3-1.9 1.1-.8 2.2-1.7 3.2-2.7s2.1-2 3.1-3c1.1-1 2-1.9 2.8-2.6zm-9.9-18.2c.4 0 .7 0 1.1-.1.3 0 .6 0 1-.1h1c.4 0 .8.1 1.2.4.4.3.8.7 1.2 1.2.4.5.7 1.1.9 1.8.2.7.4 1.5.4 2.3 0 .6-.2 1.1-.5 1.5-.3.4-.9.6-1.7.6-.8 0-1.5-.1-2.2-.3-.7-.2-1.3-.5-1.8-.9s-.9-.9-1.2-1.4c-.3-.6-.4-1.2-.4-1.8 0-.6.1-1.1.3-1.6.1-.6.3-1.1.7-1.6z"/><path d="M88.2 748.8c.3-.5.7-1 1.1-1.7.5-.6 1-1.2 1.6-1.8.6-.6 1.2-1.1 1.8-1.5.6-.4 1.2-.6 1.9-.6.4 0 .8.1 1.2.4.4.2.7.5 1 .9.3.4.5.7.7 1.1.2.4.3.8.4 1.2.4-.6.8-1.2 1.4-1.8s1.2-1.2 1.9-1.7 1.3-.9 2-1.3c.6-.3 1.2-.5 1.6-.5.8 0 1.6.2 2.3.7s1.3 1 1.9 1.7 1 1.4 1.3 2.2c.3.8.5 1.5.5 2.2 0 .7-.1 1.3-.2 2s-.3 1.3-.4 2c-.2.7-.3 1.4-.4 2.1s-.2 1.4-.2 2.2c0 .6.1 1 .2 1.2.1.2.3.4.6.4.4 0 .8-.2 1.4-.6.6-.4 1.3-.9 2-1.6.7-.6 1.5-1.4 2.3-2.2.8-.8 1.6-1.6 2.4-2.5.8-.8 1.5-1.6 2.2-2.4.7-.8 1.3-1.4 1.7-1.9l2.2 3.2c-.4.6-1 1.4-1.6 2.3-.6.9-1.4 1.9-2.2 2.9-.8 1-1.7 2.1-2.7 3.1-1 1-2 1.9-3.2 2.8-1.1.8-2.3 1.5-3.6 2-1.3.5-2.6.8-4 .8-.9 0-1.7-.3-2.2-.8-.5-.5-1-1.2-1.3-2.1-.3-.8-.5-1.8-.6-2.8-.1-1-.1-2-.1-3v-1.8-1.5c0-.5 0-.8-.1-1.1s-.1-.4-.2-.4c-.6.1-1.1.6-1.6 1.3-.5.7-.9 1.5-1.4 2.4s-.9 1.9-1.3 3-.9 2-1.3 2.9c-.4.9-.9 1.6-1.4 2.2-.5.6-1 .9-1.5.9-.4 0-.9 0-1.4-.1-.5-.1-.9-.2-1.3-.4s-.8-.3-1.1-.5c-.3-.2-.5-.4-.7-.6.1-.3.2-.6.4-1.1s.4-1 .6-1.6c.2-.6.5-1.2.7-1.9s.5-1.3.7-1.9.4-1.2.5-1.7c.1-.5.2-1 .2-1.3 0-.8-.1-1.3-.2-1.5-.2-.2-.3-.4-.3-.4-.1 0-.2.1-.5.2-.2.2-.5.3-.7.5s-.5.4-.7.6-.3.3-.4.3l-1.9-3.1z"/><path d="M138.2 715.2c-.8 2.4-1.7 4.9-2.5 7.4s-1.5 4.9-2.2 7.2c-.7 2.3-1.3 4.6-1.8 6.7-.5 2.1-.9 4.1-1.3 5.8.5-.7 1.1-1.3 1.6-1.8.5-.6 1.1-1.1 1.7-1.5s1.3-.8 2.1-1 1.7-.4 2.7-.4c.6 0 1.1.1 1.6.3.5.2 1 .5 1.4.9.4.4.7.9.9 1.5.2.6.3 1.3.3 2.1 0 1.2-.3 2.3-.8 3.3s-1.2 1.8-2 2.5-1.7 1.3-2.7 1.8c-1 .5-2 .8-2.9 1 .7.9 1.3 1.7 1.8 2.5s1.1 1.4 1.6 1.9 1 .9 1.5 1.2 1.1.4 1.6.4c.8 0 1.5-.2 2.3-.7s1.6-1 2.3-1.7c.8-.7 1.5-1.5 2.3-2.3.7-.9 1.4-1.7 2-2.5.6-.8 1.2-1.6 1.7-2.2.5-.7.9-1.2 1.2-1.6l2 2.7c-.5.9-1.1 1.9-1.7 2.9s-1.3 2.2-2 3.3c-.7 1.1-1.5 2.2-2.3 3.2s-1.7 2-2.6 2.8c-.9.8-1.9 1.5-2.9 2s-2.1.7-3.1.7c-1.3 0-2.4-.1-3.4-.4-1-.2-1.9-.6-2.6-1-.8-.4-1.4-.9-2-1.4s-1.1-1.2-1.6-1.8c-.5-.6-.9-1.3-1.3-2s-.8-1.3-1.2-2c-.5.4-.8.9-1.1 1.5-.3.6-.5 1.3-.8 1.9-.2.7-.5 1.4-.7 2.1-.2.7-.5 1.3-.8 1.8s-.7 1-1.2 1.3c-.5.3-1.1.5-1.8.5-.4 0-.7 0-1-.1-.3 0-.5-.1-.7-.3-.2-.2-.3-.4-.4-.7-.1-.3-.1-.7-.1-1.2 0-.8.1-2.1.3-3.9.2-1.7.5-3.8 1-6.2s1-5 1.7-7.9c.7-2.9 1.5-5.9 2.5-9 1-3.1 2.1-6.2 3.4-9.4s2.7-6.3 4.3-9.3l5.7-.9zm-5.7 32.7c.7-.2 1.3-.4 1.8-.6.5-.2.9-.5 1.2-.8.4-.3.6-.7.6-1.1 0-.2-.1-.4-.4-.5-.3-.1-.5-.2-.7-.2-.3 0-.6.1-.9.2l-.9.6c-.3.2-.5.4-.8.7l-.5.5.6 1.2z"/><path d="M169.8 746.5c.3.4.5.7.8 1l.7.7.5.5.2.2c-.3.6-.7 1.3-1.3 2.3-.6.9-1.3 1.9-2 2.9-.8 1-1.6 2.1-2.5 3.1s-1.7 2-2.6 2.9c-.8.9-1.7 1.5-2.4 2.1-.8.5-1.4.8-2 .8-.3 0-.8-.1-1.3-.2-.5-.2-1.1-.4-1.7-.6-.6-.2-1.2-.5-1.8-.8-.6-.3-1.2-.6-1.7-.9-.5-.3-1-.6-1.4-.9-.4-.3-.6-.5-.8-.6-.3-.5-.6-1-.7-1.6-.1-.6-.2-1.3-.2-2 0-.9.1-2 .4-3.3.3-1.3.6-2.5 1.1-3.8.5-1.3 1-2.6 1.6-3.9s1.2-2.4 1.8-3.4c.6-1 1.3-1.8 1.9-2.4.6-.6 1.2-.9 1.7-.9.3 0 .6.1.9.3.5.4.9.7 1.3 1.1.4.4.7.8.9 1.3.3.5.5.9.6 1.4s.4 1 .5 1.6c-.3.3-.6.8-1 1.4-.4.6-.7 1.2-1.1 1.9-.4.7-.7 1.4-1 2.2s-.6 1.6-.9 2.3c-.3.8-.5 1.5-.6 2.3-.2.7-.2 1.4-.2 2 0 .5.1.9.2 1.2.9-.4 1.9-1.1 3-1.9 1.1-.8 2.2-1.7 3.2-2.7s2.1-2 3.1-3c1.1-1 2-1.9 2.8-2.6zm-9.9-18.2c.4 0 .7 0 1.1-.1.3 0 .6 0 1-.1h1c.4 0 .8.1 1.2.4.4.3.8.7 1.2 1.2.4.5.7 1.1.9 1.8.2.7.4 1.5.4 2.3 0 .6-.2 1.1-.5 1.5-.3.4-.9.6-1.7.6-.8 0-1.5-.1-2.2-.3-.7-.2-1.3-.5-1.8-.9s-.9-.9-1.2-1.4c-.3-.6-.4-1.2-.4-1.8 0-.6.1-1.1.3-1.6.1-.6.3-1.1.7-1.6z"/><path d="M168 748.8c.3-.5.7-1 1.1-1.7.5-.6 1-1.2 1.6-1.8.6-.6 1.2-1.1 1.8-1.5.6-.4 1.2-.6 1.9-.6.4 0 .8.1 1.2.4.4.2.7.5 1 .9.3.4.5.7.7 1.1.2.4.3.8.4 1.2.4-.6.8-1.2 1.4-1.8s1.2-1.2 1.9-1.7 1.3-.9 2-1.3c.6-.3 1.2-.5 1.6-.5.8 0 1.6.2 2.3.7s1.3 1 1.9 1.7 1 1.4 1.3 2.2c.3.8.5 1.5.5 2.2 0 .7-.1 1.3-.2 2s-.3 1.3-.4 2c-.2.7-.3 1.4-.4 2.1s-.2 1.4-.2 2.2c0 .6.1 1 .2 1.2.1.2.3.4.6.4.4 0 .8-.2 1.4-.6.6-.4 1.3-.9 2-1.6.7-.6 1.5-1.4 2.3-2.2.8-.8 1.6-1.6 2.4-2.5.8-.8 1.5-1.6 2.2-2.4.7-.8 1.3-1.4 1.7-1.9l2.2 3.2c-.4.6-1 1.4-1.6 2.3-.6.9-1.4 1.9-2.2 2.9-.8 1-1.7 2.1-2.7 3.1-1 1-2 1.9-3.2 2.8-1.1.8-2.3 1.5-3.6 2-1.3.5-2.6.8-4 .8-.9 0-1.7-.3-2.2-.8-.5-.5-1-1.2-1.3-2.1-.3-.8-.5-1.8-.6-2.8-.1-1-.1-2-.1-3v-1.8-1.5c0-.5 0-.8-.1-1.1s-.1-.4-.2-.4c-.6.1-1.1.6-1.6 1.3-.5.7-.9 1.5-1.4 2.4s-.9 1.9-1.3 3-.9 2-1.3 2.9c-.4.9-.9 1.6-1.4 2.2-.5.6-1 .9-1.5.9-.4 0-.9 0-1.4-.1-.5-.1-.9-.2-1.3-.4s-.8-.3-1.1-.5c-.3-.2-.5-.4-.7-.6.1-.3.2-.6.4-1.1s.4-1 .6-1.6c.2-.6.5-1.2.7-1.9s.5-1.3.7-1.9.4-1.2.5-1.7c.1-.5.2-1 .2-1.3 0-.8-.1-1.3-.2-1.5-.2-.2-.3-.4-.3-.4-.1 0-.2.1-.5.2-.2.2-.5.3-.7.5s-.5.4-.7.6-.3.3-.4.3l-1.9-3.1z"/><path d="M232.2 747.9c.2.5.3 1.1.3 1.7s-.1 1.2-.3 1.7c-.2.5-.4 1-.7 1.5-.3.4-.5.8-.7 1-.7.8-1.5 1.5-2.3 2.2-.8.7-1.7 1.4-2.5 2s-1.7 1.2-2.5 1.7-1.6 1-2.2 1.4c-.7.4-1.3.7-1.8 1-.5.3-.9.5-1.1.6-.6.9-1.2 2.1-1.9 3.4-.7 1.4-1.4 2.9-2.3 4.5-.9 1.6-1.9 3.3-3.1 5-1.2 1.7-2.5 3.4-4.1 5-.9.9-2 1.6-3.3 2.2s-2.7.9-4.2.9c-1.2 0-2.4-.1-3.6-.4-1.2-.3-2.2-.7-3.1-1.2s-1.7-1.1-2.2-1.9c-.6-.7-.8-1.6-.8-2.5 0-1.1.3-2.2.8-3.2s1.3-2 2.2-2.9c.9-.9 2-1.8 3.1-2.6s2.4-1.6 3.7-2.4l3.9-2.1c1.3-.6 2.5-1.2 3.7-1.8 1.1-.5 2.2-1 3.1-1.5.9-.5 1.6-.8 2-1.2-.7.3-1.4.5-2 .6-.6.1-1.2.2-1.8.2-1 0-2-.2-3-.5-1-.4-1.9-.9-2.7-1.5-.8-.6-1.5-1.4-2-2.2-.5-.9-.8-1.8-.8-2.7 0-.8.1-1.7.2-2.6.1-1 .4-2 .7-3 .3-1 .7-2 1.2-3s1.1-1.9 1.8-2.7c.7-.8 1.6-1.4 2.6-2 1-.5 2.1-.8 3.3-.9.5 0 .9 0 1.1.1.3.1.5.2.7.3.2.1.3.3.5.4.1.1.3.2.5.3.2-.4.4-.7.6-.9.2-.2.4-.3.6-.3h.8c.3 0 .7.1 1.1.1 1 0 1.9.3 2.8.9s1.6 1.4 2.3 2.3c.6.9 1.2 1.9 1.5 2.9.4 1 .6 1.9.6 2.8 0 .7-.1 1.3-.2 1.9-.1.6-.2 1.2-.4 1.7s-.4 1-.5 1.4c-.2.4-.4.8-.5 1.1l10.3-7.8.6 1zm-33.9 30.6c0 .3.1.5.4.6.3.1.7.2 1.1.2.5 0 1-.1 1.6-.2s1-.4 1.4-.8c.9-.8 1.8-1.6 2.5-2.5s1.4-1.8 2.1-2.8c.7-1 1.3-2 1.9-3.1.6-1.1 1.3-2.2 1.9-3.3-.4.3-1 .7-1.8 1.2s-1.7 1.2-2.6 1.9-2 1.4-3 2.2-1.9 1.6-2.8 2.3c-.8.8-1.5 1.5-2.1 2.2-.3.9-.6 1.6-.6 2.1zm12.4-31.4c-.9 1-1.6 2.2-2.1 3.6s-.7 2.8-.7 4.3c0 .5.1 1 .2 1.3.1.4.4.6.8.6.5 0 1-.1 1.5-.3.6-.2 1.1-.5 1.7-.9.6-.4 1.2-.8 1.7-1.3.6-.5 1.1-1 1.5-1.6.4-.5.8-1.1 1.1-1.7.3-.6.4-1.1.4-1.6 0-.8-.1-1.5-.4-2.1-.2-.6-.5-1.1-.9-1.4-.4-.4-.8-.6-1.2-.8-.4-.2-.8-.3-1.2-.3-.1 0-.4.1-.6.3-.3.2-.5.4-.8.7l-.7.7c-.1.3-.3.4-.3.5zM275.1 749.1c-.3.7-.7 1.3-1.1 1.9-.5.6-1.1 1.1-1.7 1.5-.6.4-1.3.7-2 1-.7.2-1.3.3-2 .3-.8 0-1.6-.2-2.2-.6-.5 1.2-1.1 2.4-1.8 3.3-.7 1-1.4 1.9-2.3 2.7-.8.8-1.7 1.5-2.7 2.2-1 .7-2 1.3-3.1 1.9-.2.1-.4.1-.6.1-.4 0-.9-.1-1.5-.4s-1.1-.6-1.8-1c-.6-.4-1.2-.8-1.9-1.3-.6-.5-1.2-1-1.8-1.4-.6-.5-1.1-.9-1.5-1.3-.5-.4-.8-.7-1.1-.9-.1-.3-.1-.6-.2-.9-.1-.3-.1-.7-.1-1 0-.3-.1-.6-.1-.9v-.7c0-.9.2-1.9.5-2.8.3-1 .7-1.9 1.2-2.8.5-.9 1-1.8 1.6-2.7.6-.9 1.2-1.6 1.7-2.3.5-.6 1.1-1.2 1.8-1.8.8-.6 1.6-1.2 2.5-1.7.9-.5 1.8-.9 2.8-1.3s1.9-.5 2.7-.5c.9 0 1.8.3 2.7.8.9.5 1.6 1.2 2.3 2s1.2 1.7 1.6 2.6c.4.9.6 1.8.6 2.5v.6c0 .2 0 .4-.1.6 0 .2-.1.4-.1.6s-.1.4-.1.5c.1.1.1.1.2.1s.1.1.2.1.2 0 .3.1h1.4c.3 0 .6-.1.9-.2.3-.1.6-.3 1-.6s.7-.6 1-1l2.8 2.7zm-14.8-3.9c-.3-.2-.5-.2-.8-.2-.2 0-.4.1-.6.2-.2.1-.4.2-.6.4-.7.7-1.3 1.4-1.9 2.2-.6.8-1.1 1.6-1.5 2.4-.4.8-.8 1.6-1 2.4-.3.8-.4 1.6-.4 2.3 0 .2.1.4.2.5.1.1.3.2.5.2.3 0 .6-.1 1.1-.4.4-.3.9-.6 1.3-.9.4-.4.9-.8 1.3-1.2.4-.4.8-.8 1-1.1.5-.6.9-1.1 1.2-1.7.4-.6.7-1.2 1-1.8-.3-.2-.5-.5-.6-.7-.1-.3-.2-.5-.3-.8-.1-.3-.1-.6-.1-.9s.3-.6.2-.9z"/><path d="M295 747.5c.2.3.3.5.4.8.1.3.1.6.1.9 0 .6-.1 1.2-.4 1.7-.3.5-.5 1-.8 1.3-1.1 1.3-2.3 2.3-3.4 3s-2.3 1.3-3.5 1.7c-1.2.4-2.3.7-3.5.8-1.1.1-2.3.2-3.3.2h-.4c-.8 2.2-1.5 4.3-2.2 6.3-.7 2-1.4 4-2.2 5.9-.7 1.9-1.5 3.8-2.2 5.6-.8 1.8-1.6 3.6-2.5 5.4-.9 1.8-1.8 3.6-2.8 5.4-1 1.8-2.1 3.7-3.4 5.6-.1 0-.3-.1-.7-.2s-.7-.3-1.2-.5-.9-.5-1.5-.7c-.5-.3-1-.5-1.4-.8s-.8-.5-1.2-.7-.5-.3-.6-.4c.5-1.2 1.1-2.5 1.8-4.1.7-1.5 1.5-3.2 2.3-4.9.8-1.8 1.7-3.7 2.7-5.7.9-2 1.8-4.2 2.8-6.4.9-2.2 1.8-4.6 2.6-7 .8-2.4 1.6-4.9 2.2-7.5 0 0-.1-.2-.4-.5-.2-.3-.5-.7-.8-1.1-.3-.4-.6-.8-.9-1.1l-.6-.6v-.3-.3c0-.3 0-.5.1-.7.1-.2.2-.4.4-.7.5-.6 1-1.2 1.7-1.8.7-.5 1.3-1 1.9-1.4s1.2-.8 1.7-1.2c.5-.4.8-.7.9-1 .8-2 1.8-4.1 2.9-6.4 1.1-2.3 2.3-4.6 3.6-6.9 1.3-2.3 2.8-4.4 4.4-6.5 1.6-2.1 3.3-3.8 5-5.3l2.8-.2c-1 2-2 4-3.1 5.9s-2.2 3.8-3.3 5.8c-1.1 1.9-2.2 4-3.2 6-1 2.1-1.9 4.3-2.6 6.6-.3.8-.5 1.7-.8 2.5-.3.8-.5 1.6-.8 2.4-.2.8-.4 1.5-.6 2.2-.2.7-.2 1.4-.3 2 .7.1 1.4.2 2.3.2.8 0 1.6-.1 2.4-.2.9-.1 1.8-.4 2.7-.7s1.9-.8 2.9-1.3 2-1.3 3-2.2l1 1.1zM328.2 753.9c.4-.3 1-.8 1.7-1.4.7-.6 1.5-1.3 2.3-2 .8-.7 1.6-1.5 2.5-2.2.8-.8 1.5-1.4 2.1-2l2.8 2.9c-.6.9-1.3 1.8-2.1 2.7s-1.7 1.8-2.7 2.7c-.9.9-1.9 1.7-2.9 2.5s-1.9 1.5-2.8 2.2-1.6 1.2-2.3 1.6-1.2.8-1.5 1c-.3.5-.7 1.1-1.1 1.9-.4.8-1 1.7-1.5 2.7-.6 1-1.2 2.1-2 3.2s-1.5 2.2-2.3 3.3c-.8 1.1-1.7 2.1-2.7 3.1s-2 1.9-3 2.6c-1.1.8-2.2 1.4-3.3 1.8-1.2.4-2.3.7-3.6.7-1 0-2-.1-3-.3s-1.8-.5-2.5-1c-.7-.4-1.3-1-1.8-1.6-.4-.6-.7-1.4-.7-2.3 0-.9.2-1.8.7-2.7.5-.9 1.1-1.8 1.9-2.6s1.7-1.7 2.8-2.5l3.3-2.4c1.2-.8 2.3-1.5 3.5-2.2 1.2-.7 2.3-1.3 3.3-1.9 1-.6 2-1.1 2.8-1.6.8-.5 1.5-.9 2-1.2-1.1.5-2.1.8-2.9 1-.8.2-1.6.3-2.2.3-.6 0-1.2-.1-1.8-.3s-1.2-.5-1.8-.9c-.5-.4-1-.9-1.4-1.5-.4-.6-.5-1.2-.5-2 0-.7.1-1.4.2-2.3.1-.9.4-1.8.6-2.8.3-1 .7-1.9 1.1-2.9.4-1 1-1.9 1.6-2.8.6-.9 1.3-1.7 2.1-2.5s1.7-1.4 2.6-1.8l4.5 4.2c-.7.7-1.4 1.5-2 2.5-.6 1-1.1 2-1.5 3s-.7 1.9-.9 2.8c-.2.9-.3 1.6-.3 2.2 0 .7.2 1.1.5 1.1.5 0 1.1-.3 1.7-.8.6-.5 1.3-1.2 2-2s1.4-1.7 2.1-2.8 1.4-2.1 2-3.1l1.8-3c.6-1 1-1.8 1.3-2.4.3-.5.7-.9 1.2-1.2.5-.3 1.1-.4 1.7-.4.5 0 .9.1 1.2.2.3.1.6.3.8.6.2.2.4.5.5.8.1.3.1.5.1.8 0 .2-.1.6-.3 1.1-.2.5-.4 1.2-.7 1.9-.3.7-.6 1.5-1 2.3-.4.8-.7 1.6-1 2.3-.3.7-.6 1.4-.9 2 0 .8-.2 1.2-.3 1.4zm-22.5 22.7c0 .1.1.2.3.2.2 0 .4 0 .6-.1s.5-.2.8-.3.6-.3.9-.5l.9-.6c.9-.8 1.8-1.5 2.6-2.2.8-.7 1.5-1.5 2.2-2.3.7-.8 1.4-1.6 2-2.5s1.3-1.9 1.9-2.9c-.7.5-1.5 1.1-2.4 1.8-.9.7-1.8 1.4-2.7 2.2-.9.7-1.8 1.5-2.6 2.3-.9.8-1.6 1.5-2.3 2.1-.7.7-1.2 1.2-1.6 1.8-.4.4-.6.8-.6 1z"/><path d="M363.1 749.1c-.3.7-.7 1.3-1.1 1.9-.5.6-1.1 1.1-1.7 1.5-.6.4-1.3.7-2 1-.7.2-1.3.3-2 .3-.8 0-1.6-.2-2.2-.6-.5 1.2-1.1 2.4-1.8 3.3-.7 1-1.4 1.9-2.3 2.7-.8.8-1.7 1.5-2.7 2.2-1 .7-2 1.3-3.1 1.9-.2.1-.4.1-.6.1-.4 0-.9-.1-1.5-.4s-1.1-.6-1.8-1c-.6-.4-1.2-.8-1.9-1.3-.6-.5-1.2-1-1.8-1.4-.6-.5-1.1-.9-1.5-1.3-.5-.4-.8-.7-1.1-.9-.1-.3-.1-.6-.2-.9-.1-.3-.1-.7-.1-1 0-.3-.1-.6-.1-.9v-.7c0-.9.2-1.9.5-2.8.3-1 .7-1.9 1.2-2.8.5-.9 1-1.8 1.6-2.7.6-.9 1.2-1.6 1.7-2.3.5-.6 1.1-1.2 1.8-1.8.8-.6 1.6-1.2 2.5-1.7.9-.5 1.8-.9 2.8-1.3s1.9-.5 2.7-.5c.9 0 1.8.3 2.7.8.9.5 1.6 1.2 2.3 2s1.2 1.7 1.6 2.6c.4.9.6 1.8.6 2.5v.6c0 .2 0 .4-.1.6 0 .2-.1.4-.1.6s-.1.4-.1.5c.1.1.1.1.2.1s.1.1.2.1.2 0 .3.1h1.4c.3 0 .6-.1.9-.2.3-.1.6-.3 1-.6s.7-.6 1-1l2.8 2.7zm-14.7-3.9c-.3-.2-.5-.2-.8-.2-.2 0-.4.1-.6.2-.2.1-.4.2-.6.4-.7.7-1.3 1.4-1.9 2.2s-1.1 1.6-1.5 2.4c-.4.8-.8 1.6-1 2.4-.3.8-.4 1.6-.4 2.3 0 .2.1.4.2.5.1.1.3.2.5.2.3 0 .6-.1 1.1-.4.4-.3.9-.6 1.3-.9.4-.4.9-.8 1.3-1.2.4-.4.8-.8 1-1.1.5-.6.9-1.1 1.2-1.7.4-.6.7-1.2 1-1.8-.3-.2-.5-.5-.6-.7-.1-.3-.2-.5-.3-.8-.1-.3-.1-.6-.1-.9s.2-.6.2-.9z"/><path d="M392.6 749c-1.2 1.7-2.3 3.3-3.3 4.7-.4.6-.9 1.3-1.3 1.9s-.9 1.2-1.3 1.8c-.4.5-.8 1-1.1 1.5-.3.4-.6.7-.8 1-.3.4-.7.7-1.2 1.1s-.9.8-1.5 1.1c-.5.4-1 .6-1.6.9-.5.2-1 .4-1.5.4-.9 0-1.7-.1-2.5-.4s-1.5-.6-2.1-1.1c-.6-.5-1.2-1.1-1.6-1.8-.4-.7-.7-1.5-.8-2.4-.3.4-.6.8-1 1.3-.4.4-.9.8-1.3 1.2-.5.4-1 .7-1.6.9-.5.2-1.1.4-1.7.4-.6 0-1.1-.1-1.7-.2s-1.2-.4-1.8-.6c-.6-.2-1.1-.5-1.6-.7-.5-.2-1-.4-1.4-.6-1.2-.4-2-1.2-2.5-2.1s-.8-2-.8-3.2c0-.9.2-1.8.5-2.7s.7-1.7 1.2-2.6c.5-.9.9-1.7 1.4-2.6.5-.9.9-1.7 1.1-2.7.1-.3.2-.6.4-.9.2-.2.3-.4.5-.6.2-.1.4-.3.6-.3.2-.1.4-.1.5-.2l4.7 4.2c-.1.5-.4 1.1-.6 1.8-.3.7-.5 1.5-.8 2.3-.3.8-.5 1.5-.7 2.2-.2.7-.3 1.2-.3 1.5V754.8c0 .2.1.4.1.5.1.2.1.2.3.3.5-.2 1-.5 1.5-1.1.5-.6 1-1.3 1.5-2.1s1-1.6 1.5-2.6c.5-.9 1-1.8 1.4-2.6s.9-1.6 1.3-2.3c.4-.7.7-1.2 1-1.5.2-.2.5-.4.9-.4s.7.1 1 .4c.3.2.5.5.6.9.2.4.4.8.5 1.1s.3.6.5.9c.2.3.4.6.6.8.2.3.5.6.9.9.2.2.4.5.4.7 0 .5-.1 1-.2 1.6-.1.6-.3 1.2-.4 1.8-.2.6-.3 1.2-.4 1.8-.1.6-.2 1.1-.2 1.6 0 .2.1.4.2.6.1.2.3.3.6.3.2 0 .6-.2 1-.5s1-.7 1.5-1.1c.6-.5 1.2-1 1.8-1.6.7-.6 1.3-1.2 1.9-1.8.6-.6 1.3-1.2 1.8-1.8l1.6-1.6 1.1-1.1.4-.4 2.8 2.5zM398.2 760.1c0 .6-.1 1.1-.4 1.5-.2.4-.5.8-.9 1.1-.4.3-.8.5-1.2.6-.4.1-.9.2-1.3.2s-.8-.1-1.3-.4-1-.5-1.4-.9-.8-.8-1.1-1.3c-.3-.5-.5-1-.5-1.6 0-.5.1-1.1.2-1.6s.3-1 .5-1.4c.3-.4.6-.7 1-1 .4-.3.9-.4 1.6-.4.7 0 1.4.1 2 .4s1.1.7 1.5 1.1c.4.5.7 1 .9 1.6s.4 1.4.4 2.1z"/></g><g fill="#FFF"><path d="M28.5 519.3c-.6.7-1.4 1.4-2.2 2.1-.8.7-1.6 1.3-2.4 1.9s-1.6 1.1-2.3 1.5c-.7.5-1.3.8-1.7 1.1-.3.2-.8.5-1.3.9s-1.1.7-1.7 1.1c-.6.4-1.3.8-2 1.2-.7.4-1.4.8-2.1 1-.7.3-1.4.5-2.1.6-.7.1-1.3.1-1.8 0-.7-.2-1.5-.4-2.3-.9-.8-.4-1.6-.8-2.3-1.3-.8-.5-1.4-1-2-1.4-.5-.4-1-.9-1.3-1.3s-.6-1-.8-1.5-.2-1.2-.2-2c0-1.5.2-3 .5-4.3.3-1.3.8-2.6 1.3-3.8.6-1.2 1.3-2.4 2.2-3.5.9-1.1 1.9-2.2 3-3.2.5-.5 1.2-1 1.9-1.6.7-.6 1.5-1.1 2.3-1.6.8-.5 1.6-.9 2.4-1.2.8-.3 1.6-.5 2.4-.5.9 0 1.7.2 2.4.5s1.3.8 1.8 1.4c.5.6.9 1.2 1.1 2 .3.7.4 1.5.4 2.3 0 .8-.1 1.5-.3 2.1-.2.6-.5 1.2-.9 1.7s-.8 1-1.3 1.5l-1.5 1.5c-.3 0-.4-.1-.6-.3-.1-.2-.2-.3-.4-.5l-2.7-3.9c-.7.4-1.4.9-2.1 1.6-.7.7-1.3 1.4-1.8 2.2-.5.8-.9 1.6-1.3 2.5-.3.9-.5 1.7-.5 2.5 0 .4 0 .8.1 1.3 0 .5.1.9.2 1.3s.3.8.4 1.2c.2.4.4.7.7 1 1-.3 2-.6 3-1s2.2-.9 3.5-1.6 2.7-1.5 4.4-2.6c1.6-1 3.6-2.4 5.8-4 .3-.1.5-.1.8-.2h.8c.2 0 .5.1.6.2s.3.2.4.3c.2.3.3.5.4.9s.1.7.1 1c0 .4-.1.7-.3 1.1s-.4.4-.7.7z"/><path d="M53.9 516.8c-.3.7-.7 1.3-1.1 1.9-.5.6-1.1 1.1-1.7 1.5-.6.4-1.3.7-2 1-.7.2-1.3.3-2 .3-.8 0-1.6-.2-2.2-.6-.5 1.2-1.1 2.4-1.8 3.3-.7 1-1.4 1.9-2.3 2.7-.8.8-1.7 1.5-2.7 2.2-1 .7-2 1.3-3.1 1.9-.2.1-.4.1-.6.1-.4 0-.9-.1-1.5-.4s-1.1-.6-1.8-1c-.6-.4-1.2-.8-1.9-1.3-.6-.5-1.2-1-1.8-1.4-.6-.5-1.1-.9-1.5-1.3-.5-.4-.8-.7-1.1-.9-.1-.3-.1-.6-.2-.9-.1-.3-.1-.7-.1-1 0-.3-.1-.6-.1-.9v-.7c0-.9.2-1.9.5-2.8.3-1 .7-1.9 1.2-2.8.5-.9 1-1.8 1.6-2.7.6-.9 1.2-1.6 1.7-2.3.5-.6 1.1-1.2 1.8-1.8.8-.6 1.6-1.2 2.5-1.7.9-.5 1.8-.9 2.8-1.3s1.9-.5 2.7-.5c.9 0 1.8.3 2.7.8.9.5 1.6 1.2 2.3 2s1.2 1.7 1.6 2.6c.4.9.6 1.8.6 2.5v.6c0 .2 0 .4-.1.6 0 .2-.1.4-.1.6s-.1.4-.1.5c.1.1.1.1.2.1s.1.1.2.1.2 0 .3.1h1.4c.3 0 .6-.1.9-.2.3-.1.6-.3 1-.6s.7-.6 1-1l2.8 2.7zm-14.7-4c-.3-.2-.5-.2-.8-.2-.2 0-.4.1-.6.2-.2.1-.4.2-.6.4-.7.7-1.3 1.4-1.9 2.2s-1.1 1.6-1.5 2.4c-.4.8-.8 1.6-1 2.4-.3.8-.4 1.6-.4 2.3 0 .2.1.4.2.5.1.1.3.2.5.2.3 0 .6-.1 1.1-.4.4-.3.9-.6 1.3-.9.4-.4.9-.8 1.3-1.2.4-.4.8-.8 1-1.1.5-.6.9-1.1 1.2-1.7.4-.6.7-1.2 1-1.8-.3-.2-.5-.5-.6-.7-.1-.3-.2-.5-.3-.8-.1-.3-.1-.6-.1-.9s.2-.5.2-.9z"/><path d="M49 516.5c.3-.5.7-1 1.1-1.7.5-.6 1-1.2 1.6-1.8.6-.6 1.2-1.1 1.8-1.5.6-.4 1.2-.6 1.9-.6.4 0 .8.1 1.2.4.4.2.7.5 1 .9.3.4.5.7.7 1.1.2.4.3.8.4 1.2.4-.6.8-1.2 1.4-1.8s1.2-1.2 1.9-1.7 1.3-.9 2-1.3c.6-.3 1.2-.5 1.6-.5.8 0 1.6.2 2.3.7s1.3 1 1.9 1.7c.5.7 1 1.4 1.3 2.2.3.8.5 1.5.5 2.2 0 .7-.1 1.3-.2 2s-.3 1.3-.4 2c-.2.7-.3 1.4-.4 2.1s-.2 1.4-.2 2.2c0 .6.1 1 .2 1.2.1.2.3.4.6.4.4 0 .8-.2 1.4-.6.6-.4 1.3-.9 2-1.6.7-.6 1.5-1.4 2.3-2.2.8-.8 1.6-1.6 2.4-2.5.8-.8 1.5-1.6 2.2-2.4.7-.8 1.3-1.4 1.7-1.9l2.2 3.2c-.4.6-1 1.4-1.6 2.3-.6.9-1.4 1.9-2.2 2.9-.8 1-1.7 2.1-2.7 3.1-1 1-2 1.9-3.2 2.8-1.1.8-2.3 1.5-3.6 2-1.3.5-2.6.8-4 .8-.9 0-1.7-.3-2.2-.8-.5-.5-1-1.2-1.3-2.1-.3-.8-.5-1.8-.6-2.8-.1-1-.1-2-.1-3v-1.8-1.5c0-.5 0-.8-.1-1.1s-.1-.4-.2-.4c-.6.1-1.1.6-1.6 1.3-.5.7-.9 1.5-1.4 2.4s-.9 1.9-1.3 3-.9 2-1.3 2.9c-.4.9-.9 1.6-1.4 2.2-.5.6-1 .9-1.5.9-.4 0-.9 0-1.4-.1-.5-.1-.9-.2-1.3-.4s-.8-.3-1.1-.5c-.3-.2-.5-.4-.7-.6.1-.3.2-.6.4-1.1s.4-1 .6-1.6c.2-.6.5-1.2.7-1.9s.5-1.3.7-1.9.4-1.2.5-1.7c.1-.5.2-1 .2-1.3 0-.8-.1-1.3-.2-1.5-.2-.2-.3-.4-.3-.4-.1 0-.2.1-.5.2-.2.2-.5.3-.7.5s-.5.4-.7.6-.3.3-.4.3l-1.9-3.1z"/><path d="M113.2 515.6c.2.5.3 1.1.3 1.7s-.1 1.2-.3 1.7c-.2.5-.4 1-.7 1.5-.3.4-.5.8-.7 1-.7.8-1.5 1.5-2.3 2.2-.8.7-1.7 1.4-2.5 2s-1.7 1.2-2.5 1.7-1.6 1-2.2 1.4c-.7.4-1.3.7-1.8 1-.5.3-.9.5-1.1.6-.6.9-1.2 2.1-1.9 3.4-.7 1.4-1.4 2.9-2.3 4.5-.9 1.6-1.9 3.3-3.1 5-1.2 1.7-2.5 3.4-4.1 5-.9.9-2 1.6-3.3 2.2s-2.7.9-4.2.9c-1.2 0-2.4-.1-3.6-.4-1.2-.3-2.2-.7-3.1-1.2s-1.7-1.1-2.2-1.9c-.6-.7-.8-1.6-.8-2.5 0-1.1.3-2.2.8-3.2s1.3-2 2.2-2.9c.9-.9 2-1.8 3.1-2.6s2.4-1.6 3.7-2.4l3.9-2.1c1.3-.6 2.5-1.2 3.7-1.8 1.1-.5 2.2-1 3.1-1.5.9-.5 1.6-.8 2-1.2-.7.3-1.4.5-2 .6-.6.1-1.2.2-1.8.2-1 0-2-.2-3-.5-1-.4-1.9-.9-2.7-1.5-.8-.6-1.5-1.4-2-2.2-.5-.9-.8-1.8-.8-2.7 0-.8.1-1.7.2-2.6.1-1 .4-2 .7-3 .3-1 .7-2 1.2-3s1.1-1.9 1.8-2.7c.7-.8 1.6-1.4 2.6-2 1-.5 2.1-.8 3.3-.9.5 0 .9 0 1.1.1.3.1.5.2.7.3.2.1.3.3.5.4.1.1.3.2.5.3.2-.4.4-.7.6-.9.2-.2.4-.3.6-.3h.8c.3 0 .7.1 1.1.1 1 0 1.9.3 2.8.9s1.6 1.4 2.3 2.3c.6.9 1.2 1.9 1.5 2.9.4 1 .6 1.9.6 2.8 0 .7-.1 1.3-.2 1.9-.1.6-.2 1.2-.4 1.7s-.4 1-.5 1.4c-.2.4-.4.8-.5 1.1l10.3-7.8.6 1zm-33.9 30.6c0 .3.1.5.4.6.3.1.7.2 1.1.2.5 0 1-.1 1.6-.2s1-.4 1.4-.8c.9-.8 1.8-1.6 2.5-2.5s1.4-1.8 2.1-2.8c.7-1 1.3-2 1.9-3.1.6-1.1 1.3-2.2 1.9-3.3-.4.3-1 .7-1.8 1.2s-1.7 1.2-2.6 1.9-2 1.4-3 2.2-1.9 1.6-2.8 2.3c-.8.8-1.5 1.5-2.1 2.2-.4.9-.6 1.5-.6 2.1zm12.4-31.4c-.9 1-1.6 2.2-2.1 3.6s-.7 2.8-.7 4.3c0 .5.1 1 .2 1.3.1.4.4.6.8.6.5 0 1-.1 1.5-.3.6-.2 1.1-.5 1.7-.9.6-.4 1.2-.8 1.7-1.3.6-.5 1.1-1 1.5-1.6.4-.5.8-1.1 1.1-1.7.3-.6.4-1.1.4-1.6 0-.8-.1-1.5-.4-2.1-.2-.6-.5-1.1-.9-1.4-.4-.4-.8-.6-1.2-.8-.4-.2-.8-.3-1.2-.3-.1 0-.4.1-.6.3-.3.2-.5.4-.8.7l-.7.7c-.1.3-.3.4-.3.5z"/><path d="M111.2 515.8c.1-.3.3-.6.6-.9.3-.3.5-.6.7-.9.2-.3.3-.7.4-1.1s.1-.9.2-1.5.1-1.1.1-1.7.1-1.1.1-1.6.1-1 .2-1.4c.1-.4.3-.7.5-.9.3-.1.6-.2.9-.2.4 0 .7.1 1 .3s.6.4.9.7.6.5.9.7c.3.2.7.3 1.2.3 1.7 0 3.3-.2 4.9-.6s3.1-1 4.4-1.8c.8-.5 1.5-1 2.3-1.7.8-.7 1.5-1.3 2.2-1.8.1-.1.3-.2.5-.2s.4-.1.5-.1c.3.2.6.5.9.9.3.4.6.8.8 1.3.2.5.4.9.6 1.4.1.4.2.8.2 1.1 0 .3-.2.5-.7.7-.4.1-.9.4-1.4.9-.5.4-1 1-1.5 1.6-.5.6-1 1.3-1.5 2.1-.5.7-1 1.5-1.5 2.2-.5.7-.9 1.4-1.3 2.1-.4.7-.8 1.2-1 1.7-.7 1.1-1.3 2.2-1.8 3.3-.5 1.1-.7 2.3-.7 3.5 0 .9.1 1.5.2 1.8.1.3.3.5.5.5.4 0 .9-.2 1.6-.5.6-.4 1.3-.8 2.1-1.4.7-.6 1.5-1.2 2.3-1.9s1.6-1.4 2.3-2.1c.7-.7 1.4-1.4 2.1-2s1.1-1.2 1.5-1.6c.6-.6 1.1-1.2 1.5-1.7s.6-.7.6-.8c.2-.2.5-.3.8-.2.3.1.6.2.9.4s.6.4.8.7.3.5.3.7c0 .3-.1.7-.2 1-.1.4-.3.8-.5 1.2-.2.4-.5.8-.8 1.3s-.6.9-.9 1.3c-.7 1-1.4 2-2.1 3.1-.7 1.1-1.5 2.2-2.3 3.3-.9 1.1-1.8 2.2-2.9 3.2-1.1 1-2.4 2-3.9 2.9-.8-.2-1.7-.5-2.6-.8-.9-.3-1.8-.7-2.7-1.1s-1.7-.9-2.5-1.4-1.6-1-2.3-1.5c-1.2-.9-1.8-2.1-1.8-3.7 0-1 .2-2.1.5-3.3.4-1.2.8-2.3 1.3-3.4s1-2.1 1.6-3.1 1-1.7 1.3-2.2c-.3.2-.7.4-1.1.5-.4.1-.8.1-1.1.1-.5 0-.9-.1-1.3-.2s-.7-.4-1-.6c-.1.6-.3 1.4-.6 2.1s-.6 1.5-1 2.1c-.4.6-.8 1.2-1.3 1.6-.5.4-1 .6-1.5.6-.3 0-.5-.1-.6-.3l-.8-3z"/><path d="M139.5 527.3c-.8-1.6-1.4-3.2-1.7-4.6-.3-1.4-.3-2.8-.1-4.1.2-1.3.6-2.5 1.1-3.6.6-1.1 1.3-2.1 2.2-3.1 1.3-1.4 2.6-2.5 4-3.3 1.3-.8 2.7-1.3 4.1-1.4 1.4-.1 2.8.1 4.3.7s3 1.7 4.6 3.2c.2-.2.4-.4.7-.6s.6-.3.9-.3.7 0 1 .2c.4.1.7.4 1 .8.6.7 1 1.2 1.3 1.7s.5.8.5 1.2c0 .4-.1.9-.4 1.3s-.7 1.2-1.2 2c-1 1.5-1.8 2.9-2.4 4.2-.6 1.3-1.1 2.8-1.4 4.2-.1.7 0 1 .6.9s1.2-.4 2.1-.9 2-1.3 3.2-2.2c1.2-.9 2.4-1.9 3.6-2.9 1.2-1 2.4-2.1 3.5-3.1s2.1-2 2.9-2.8c.5.6.9 1.1 1.2 1.7s.4 1.1.4 1.6 0 1-.2 1.4c-.1.4-.3.8-.5 1-1.4 2.2-3.1 4.1-5.1 5.8-1.9 1.7-4 3.1-6.3 4.3-1 .5-1.9.9-2.9 1.1s-2 .4-2.9.4c-1 0-1.9-.1-2.7-.4s-1.7-.6-2.4-1.2c-.4-.3-.7-.7-.9-1s-.3-.7-.3-1.1.1-.7.2-1.1c.1-.4.2-.7.4-1.1-1.3.8-2.6 1.4-4 1.8s-2.7.5-3.8.4c-1.2 0-2.2-.2-3-.4-.9-.1-1.4-.4-1.6-.7zm12.8-15.2c-.3.1-.7.3-1.2.6-.5.4-.9.8-1.4 1.3-.5.5-1 1.1-1.5 1.8-.5.6-.9 1.3-1.4 2s-.8 1.3-1.1 2c-.3.6-.5 1.2-.6 1.7-.1.5 0 .9.1 1.3s.5.5 1 .6c1.1.1 2.2-.1 3.2-.7s1.9-1.3 2.8-2.2c.8-.9 1.6-1.9 2.3-3.1.7-1.1 1.3-2.2 1.8-3.3.1-.2 0-.4-.2-.7-.2-.3-.6-.5-1-.8-.4-.2-.9-.4-1.4-.5-.5-.1-1-.1-1.4 0z"/><path d="M200.1 505c-.6.3-1.3.6-2.3.8-1 .3-1.9.5-3 .7-1 .2-2 .4-2.9.6-.9.2-1.6.3-2.1.4-.6.1-1.1.2-1.5.2s-.7.1-1 .1c-.3 0-.5.1-.7.2-.2.1-.4.2-.5.4-.2.2-.3.5-.5.8-.2.3-.4.8-.7 1.3-.3.6-.6 1.3-1.1 2.3-.5 1-.9 2.1-1.3 3.2-.4 1.2-.8 2.3-1.1 3.5-.3 1.2-.5 2.3-.5 3.2 0 .4 0 .8.1 1.2.1.4.2.7.4.9.6 0 1.2-.2 2-.5s1.6-.8 2.6-1.3c.9-.5 1.9-1.2 2.8-1.9 1-.7 1.9-1.5 2.8-2.3.9-.8 1.7-1.6 2.5-2.4.8-.8 1.4-1.6 1.9-2.3l3.6 2.2c-.4.9-1 1.8-1.7 2.9-.7 1.1-1.5 2.2-2.4 3.2-.9 1.1-1.8 2.2-2.8 3.2-1 1-2 2-3.1 2.8-1 .8-2 1.4-3 1.9s-1.9.7-2.8.7c-.6-.2-1.3-.4-2.1-.7-.8-.2-1.7-.5-2.5-.8s-1.7-.6-2.6-1c-.8-.4-1.6-.8-2.3-1.3-.7-.5-1.2-1-1.6-1.7s-.6-1.4-.6-2.2c0-2.3.3-4.6 1-7.1s1.7-4.8 3.2-7.1c-.4.1-1 .1-1.6.2-.6.1-1.3.2-2 .3-.7.1-1.4.2-2.1.4-.7.1-1.4.2-2 .3s-1.2.1-1.6.2c-.5 0-.8 0-1-.1-.7-.2-1-.5-1-.7 0-.3.2-.6.6-.9s1-.6 1.7-.9c.7-.3 1.5-.6 2.3-.8.8-.3 1.6-.5 2.4-.7.8-.2 1.4-.4 1.9-.5 1.1-.2 1.9-.4 2.5-.5.6-.1 1.1-.3 1.4-.5s.7-.5.9-.9c.3-.4.6-.8 1.1-1.5.3-.4.6-.8.9-1.4.4-.6.8-1.3 1.2-1.9.4-.7.9-1.4 1.4-2.1.5-.7 1-1.3 1.5-1.9.5-.6 1-1 1.5-1.4.5-.4 1-.5 1.5-.5 1.1 0 2 .2 2.9.5.9.4 1.7.9 2.5 1.5l-3 4.2c-1 1.4-1.9 2.9-2.7 4.5.5 0 1.1-.1 1.8-.2s1.5-.2 2.3-.3c.8-.1 1.6-.2 2.5-.4.9-.1 1.7-.3 2.5-.4.8-.1 1.6-.2 2.3-.4.7-.1 1.3-.2 1.9-.2l-.7 2.9z"/><path d="M229.1 516.7c-1.2 1.7-2.3 3.3-3.3 4.7-.4.6-.9 1.3-1.3 1.9s-.9 1.2-1.3 1.8c-.4.5-.8 1-1.1 1.5-.3.4-.6.7-.8 1-.3.4-.7.7-1.2 1.1s-.9.8-1.5 1.1c-.5.4-1 .6-1.6.9-.5.2-1 .4-1.5.4-.9 0-1.7-.1-2.5-.4s-1.5-.6-2.1-1.1c-.6-.5-1.2-1.1-1.6-1.8-.4-.7-.7-1.5-.8-2.4-.3.4-.6.8-1 1.3-.4.4-.9.8-1.3 1.2-.5.4-1 .7-1.6.9-.5.2-1.1.4-1.7.4-.6 0-1.1-.1-1.7-.2s-1.2-.4-1.8-.6c-.6-.2-1.1-.5-1.6-.7-.5-.2-1-.4-1.4-.6-1.2-.4-2-1.2-2.5-2.1s-.8-2-.8-3.2c0-.9.2-1.8.5-2.7s.7-1.7 1.2-2.6c.5-.9.9-1.7 1.4-2.6.5-.9.9-1.7 1.1-2.7.1-.3.2-.6.4-.9.2-.2.3-.4.5-.6.2-.1.4-.3.6-.3.2-.1.4-.1.5-.2l4.7 4.2c-.1.5-.4 1.1-.6 1.8-.3.7-.5 1.5-.8 2.3-.3.8-.5 1.5-.7 2.2-.2.7-.3 1.2-.3 1.5V522.5c0 .2.1.4.1.5.1.2.1.2.3.3.5-.2 1-.5 1.5-1.1.5-.6 1-1.3 1.5-2.1s1-1.6 1.5-2.6c.5-.9 1-1.8 1.4-2.6s.9-1.6 1.3-2.3c.4-.7.7-1.2 1-1.5.2-.2.5-.4.9-.4s.7.1 1 .4c.3.2.5.5.6.9.2.4.4.8.5 1.1s.3.6.5.9c.2.3.4.6.6.8.2.3.5.6.9.9.2.2.4.5.4.7 0 .5-.1 1-.2 1.6-.1.6-.3 1.2-.4 1.8-.2.6-.3 1.2-.4 1.8-.1.6-.2 1.1-.2 1.6 0 .2.1.4.2.6.1.2.3.3.6.3.2 0 .6-.2 1-.5s1-.7 1.5-1.1c.6-.5 1.2-1 1.8-1.6.7-.6 1.3-1.2 1.9-1.8.6-.6 1.3-1.2 1.8-1.8l1.6-1.6 1.1-1.1.4-.4 2.8 2.5z"/><path d="M235.3 530.9c-.5 0-1.1-.1-1.8-.4-.7-.3-1.5-.6-2.3-1.1-.8-.4-1.6-.9-2.4-1.4-.8-.5-1.5-1-2.2-1.6-.6-.5-1.2-1-1.6-1.5s-.6-.8-.6-1.1c0-2 .2-3.9.5-5.9.4-1.9.8-3.9 1.4-5.8.6-1.9 1.3-3.8 2.1-5.6.8-1.9 1.7-3.7 2.6-5.5.9-1.8 1.8-3.6 2.8-5.3.9-1.7 1.9-3.4 2.7-5 .5-.9 1.1-1.9 1.9-3s1.6-2.2 2.6-3.2 2-1.8 3.1-2.5 2.2-1 3.4-1c.5 0 1 .2 1.5.5s1 .8 1.4 1.3.9 1.1 1.3 1.7.8 1.2 1.1 1.8c.3.6.5 1.1.7 1.5s.3.7.3.8c0 1.9-.4 3.8-1.1 5.9-.7 2-1.6 4-2.7 6s-2.4 4-3.9 5.9c-1.5 1.9-3 3.7-4.6 5.4-1.6 1.7-3.1 3.2-4.7 4.5s-3 2.4-4.4 3.3c0 .1 0 .5.1.9.1.5.2 1 .4 1.5s.4 1 .6 1.4c.3.4.6.6 1 .6.5 0 1.1-.2 1.7-.5.6-.3 1.3-.7 2-1.2s1.4-1.1 2.2-1.8 1.5-1.3 2.3-2.1 1.5-1.4 2.2-2.1 1.4-1.3 2.1-1.9c.2-.2.4-.3.6-.4.2-.1.4-.1.6-.1.4 0 .6.1.8.4.2.3.3.6.3 1 0 .5-.1 1-.4 1.7-.3.7-.7 1.4-1.1 2.2-.5.8-1 1.7-1.7 2.5-.6.9-1.3 1.7-2.1 2.6s-1.5 1.6-2.3 2.4c-.8.8-1.6 1.4-2.3 2-.8.6-1.5 1-2.2 1.4-.7.6-1.4.8-1.9.8zm-.5-19.4c.7-.4 1.4-.9 2.1-1.6.7-.6 1.4-1.3 2.1-2.1.7-.8 1.4-1.6 2-2.4.7-.9 1.3-1.7 1.9-2.6.6-.9 1.1-1.7 1.6-2.5s.9-1.6 1.2-2.3c.4-.9.8-1.8 1.3-2.8.5-1 .9-1.9 1.3-2.8s.8-1.9 1.1-2.8c.3-.9.5-1.8.5-2.6-.2.1-.4.1-.5.2-.2 0-.3.1-.4.2-1.2 1.5-2.4 3.1-3.6 4.8-1.2 1.7-2.3 3.5-3.5 5.4-1.2 1.9-2.3 4-3.5 6.3s-2.5 4.7-3.8 7.3c0 .2.1.3.2.3z"/><path d="M247 527.3c-.8-1.6-1.4-3.2-1.7-4.6-.3-1.4-.3-2.8-.1-4.1.2-1.3.6-2.5 1.1-3.6.6-1.1 1.3-2.1 2.2-3.1 1.3-1.4 2.6-2.5 4-3.3 1.3-.8 2.7-1.3 4.1-1.4 1.4-.1 2.8.1 4.3.7s3 1.7 4.6 3.2c.2-.2.4-.4.7-.6s.6-.3.9-.3.7 0 1 .2c.4.1.7.4 1 .8.6.7 1 1.2 1.3 1.7s.5.8.5 1.2c0 .4-.1.9-.4 1.3s-.7 1.2-1.2 2c-1 1.5-1.8 2.9-2.4 4.2-.6 1.3-1.1 2.8-1.4 4.2-.1.7 0 1 .6.9s1.2-.4 2.1-.9 2-1.3 3.2-2.2c1.2-.9 2.4-1.9 3.6-2.9 1.2-1 2.4-2.1 3.5-3.1s2.1-2 2.9-2.8c.5.6.9 1.1 1.2 1.7s.4 1.1.4 1.6 0 1-.2 1.4c-.1.4-.3.8-.5 1-1.4 2.2-3.1 4.1-5.1 5.8-1.9 1.7-4 3.1-6.3 4.3-1 .5-1.9.9-2.9 1.1s-2 .4-2.9.4c-1 0-1.9-.1-2.7-.4s-1.7-.6-2.4-1.2c-.4-.3-.7-.7-.9-1s-.3-.7-.3-1.1.1-.7.2-1.1c.1-.4.2-.7.4-1.1-1.3.8-2.6 1.4-4 1.8s-2.7.5-3.8.4c-1.2 0-2.2-.2-3-.4-.9-.1-1.4-.4-1.6-.7zm12.8-15.2c-.3.1-.7.3-1.2.6-.5.4-.9.8-1.4 1.3-.5.5-1 1.1-1.5 1.8-.5.6-.9 1.3-1.4 2s-.8 1.3-1.1 2c-.3.6-.5 1.2-.6 1.7-.1.5 0 .9.1 1.3s.5.5 1 .6c1.1.1 2.2-.1 3.2-.7s1.9-1.3 2.8-2.2c.8-.9 1.6-1.9 2.3-3.1.7-1.1 1.3-2.2 1.8-3.3.1-.2 0-.4-.2-.7-.2-.3-.6-.5-1-.8-.4-.2-.9-.4-1.4-.5-.5-.1-1-.1-1.4 0z"/><path d="M307.6 505c-.6.3-1.3.6-2.3.8-1 .3-1.9.5-3 .7-1 .2-2 .4-2.9.6-.9.2-1.6.3-2.1.4-.6.1-1.1.2-1.5.2s-.7.1-1 .1c-.3 0-.5.1-.7.2-.2.1-.4.2-.5.4-.2.2-.3.5-.5.8-.2.3-.4.8-.7 1.3-.3.6-.6 1.3-1.1 2.3-.5 1-.9 2.1-1.3 3.2-.4 1.2-.8 2.3-1.1 3.5-.3 1.2-.5 2.3-.5 3.2 0 .4 0 .8.1 1.2.1.4.2.7.4.9.6 0 1.2-.2 2-.5s1.6-.8 2.6-1.3c.9-.5 1.9-1.2 2.8-1.9 1-.7 1.9-1.5 2.8-2.3.9-.8 1.7-1.6 2.5-2.4.8-.8 1.4-1.6 1.9-2.3l3.6 2.2c-.4.9-1 1.8-1.7 2.9-.7 1.1-1.5 2.2-2.4 3.2-.9 1.1-1.8 2.2-2.8 3.2-1 1-2 2-3.1 2.8-1 .8-2 1.4-3 1.9s-1.9.7-2.8.7c-.6-.2-1.3-.4-2.1-.7-.8-.2-1.7-.5-2.5-.8s-1.7-.6-2.6-1c-.8-.4-1.6-.8-2.3-1.3-.7-.5-1.2-1-1.6-1.7s-.6-1.4-.6-2.2c0-2.3.3-4.6 1-7.1s1.7-4.8 3.2-7.1c-.4.1-1 .1-1.6.2-.6.1-1.3.2-2 .3-.7.1-1.4.2-2.1.4-.7.1-1.4.2-2 .3s-1.2.1-1.6.2c-.5 0-.8 0-1-.1-.7-.2-1-.5-1-.7 0-.3.2-.6.6-.9s1-.6 1.7-.9c.7-.3 1.5-.6 2.3-.8.8-.3 1.6-.5 2.4-.7.8-.2 1.4-.4 1.9-.5 1.1-.2 1.9-.4 2.5-.5.6-.1 1.1-.3 1.4-.5s.7-.5.9-.9c.3-.4.6-.8 1.1-1.5.3-.4.6-.8.9-1.4.4-.6.8-1.3 1.2-1.9.4-.7.9-1.4 1.4-2.1.5-.7 1-1.3 1.5-1.9.5-.6 1-1 1.5-1.4.5-.4 1-.5 1.5-.5 1.1 0 2 .2 2.9.5.9.4 1.7.9 2.5 1.5l-3 4.2c-1 1.4-1.9 2.9-2.7 4.5.5 0 1.1-.1 1.8-.2s1.5-.2 2.3-.3c.8-.1 1.6-.2 2.5-.4.9-.1 1.7-.3 2.5-.4.8-.1 1.6-.2 2.3-.4.7-.1 1.3-.2 1.9-.2l-.7 2.9z"/><path d="M321.3 514.2c.3.4.5.7.8 1l.7.7.5.5.2.2c-.3.6-.7 1.3-1.3 2.3-.6.9-1.3 1.9-2 2.9-.8 1-1.6 2.1-2.5 3.1s-1.7 2-2.6 2.9c-.8.9-1.7 1.5-2.4 2.1-.8.5-1.4.8-2 .8-.3 0-.8-.1-1.3-.2-.5-.2-1.1-.4-1.7-.6-.6-.2-1.2-.5-1.8-.8-.6-.3-1.2-.6-1.7-.9-.5-.3-1-.6-1.4-.9-.4-.3-.6-.5-.8-.6-.3-.5-.6-1-.7-1.6-.1-.6-.2-1.3-.2-2 0-.9.1-2 .4-3.3.3-1.3.6-2.5 1.1-3.8.5-1.3 1-2.6 1.6-3.9.6-1.3 1.2-2.4 1.8-3.4.6-1 1.3-1.8 1.9-2.4.6-.6 1.2-.9 1.7-.9.3 0 .6.1.9.3.5.4.9.7 1.3 1.1.4.4.7.8.9 1.3.3.5.5.9.6 1.4s.4 1 .5 1.6c-.3.3-.6.8-1 1.4-.4.6-.7 1.2-1.1 1.9-.4.7-.7 1.4-1 2.2s-.6 1.6-.9 2.3c-.3.8-.5 1.5-.6 2.3-.2.7-.2 1.4-.2 2 0 .5.1.9.2 1.2.9-.4 1.9-1.1 3-1.9 1.1-.8 2.2-1.7 3.2-2.7s2.1-2 3.1-3c1.2-1 2.1-1.9 2.8-2.6zm-9.9-18.3c.4 0 .7 0 1.1-.1.3 0 .6 0 1-.1h1c.4 0 .8.1 1.2.4.4.3.8.7 1.2 1.2.4.5.7 1.1.9 1.8.2.7.4 1.5.4 2.3 0 .6-.2 1.1-.5 1.5-.3.4-.9.6-1.7.6-.8 0-1.5-.1-2.2-.3-.7-.2-1.3-.5-1.8-.9s-.9-.9-1.2-1.4c-.3-.6-.4-1.2-.4-1.8 0-.6.1-1.1.3-1.6.1-.5.4-1 .7-1.6z"/><path d="M347.9 516.8c-.3.7-.7 1.3-1.1 1.9-.5.6-1.1 1.1-1.7 1.5-.6.4-1.3.7-2 1-.7.2-1.3.3-2 .3-.8 0-1.6-.2-2.2-.6-.5 1.2-1.1 2.4-1.8 3.3-.7 1-1.4 1.9-2.3 2.7-.8.8-1.7 1.5-2.7 2.2-1 .7-2 1.3-3.1 1.9-.2.1-.4.1-.6.1-.4 0-.9-.1-1.5-.4s-1.1-.6-1.8-1c-.6-.4-1.2-.8-1.9-1.3-.6-.5-1.2-1-1.8-1.4-.6-.5-1.1-.9-1.5-1.3-.5-.4-.8-.7-1.1-.9-.1-.3-.1-.6-.2-.9-.1-.3-.1-.7-.1-1 0-.3-.1-.6-.1-.9v-.7c0-.9.2-1.9.5-2.8.3-1 .7-1.9 1.2-2.8.5-.9 1-1.8 1.6-2.7.6-.9 1.2-1.6 1.7-2.3.5-.6 1.1-1.2 1.8-1.8.8-.6 1.6-1.2 2.5-1.7.9-.5 1.8-.9 2.8-1.3s1.9-.5 2.7-.5c.9 0 1.8.3 2.7.8.9.5 1.6 1.2 2.3 2s1.2 1.7 1.6 2.6c.4.9.6 1.8.6 2.5v.6c0 .2 0 .4-.1.6 0 .2-.1.4-.1.6s-.1.4-.1.5c.1.1.1.1.2.1s.1.1.2.1.2 0 .3.1h1.4c.3 0 .6-.1.9-.2.3-.1.6-.3 1-.6s.7-.6 1-1l2.8 2.7zm-14.7-4c-.3-.2-.5-.2-.8-.2-.2 0-.4.1-.6.2-.2.1-.4.2-.6.4-.7.7-1.3 1.4-1.9 2.2s-1.1 1.6-1.5 2.4c-.4.8-.8 1.6-1 2.4-.3.8-.4 1.6-.4 2.3 0 .2.1.4.2.5.1.1.3.2.5.2.3 0 .6-.1 1.1-.4.4-.3.9-.6 1.3-.9.4-.4.9-.8 1.3-1.2.4-.4.8-.8 1-1.1.5-.6.9-1.1 1.2-1.7.4-.6.7-1.2 1-1.8-.3-.2-.5-.5-.6-.7-.1-.3-.2-.5-.3-.8-.1-.3-.1-.6-.1-.9s.2-.5.2-.9z"/><path d="M343 516.5c.3-.5.7-1 1.1-1.7.5-.6 1-1.2 1.6-1.8.6-.6 1.2-1.1 1.8-1.5.6-.4 1.2-.6 1.9-.6.4 0 .8.1 1.2.4.4.2.7.5 1 .9.3.4.5.7.7 1.1.2.4.3.8.4 1.2.4-.6.8-1.2 1.4-1.8s1.2-1.2 1.9-1.7 1.3-.9 2-1.3c.6-.3 1.2-.5 1.6-.5.8 0 1.6.2 2.3.7s1.3 1 1.9 1.7c.5.7 1 1.4 1.3 2.2.3.8.5 1.5.5 2.2 0 .7-.1 1.3-.2 2s-.3 1.3-.4 2c-.2.7-.3 1.4-.4 2.1s-.2 1.4-.2 2.2c0 .6.1 1 .2 1.2.1.2.3.4.6.4.4 0 .8-.2 1.4-.6.6-.4 1.3-.9 2-1.6.7-.6 1.5-1.4 2.3-2.2.8-.8 1.6-1.6 2.4-2.5.8-.8 1.5-1.6 2.2-2.4.7-.8 1.3-1.4 1.7-1.9l2.2 3.2c-.4.6-1 1.4-1.6 2.3-.6.9-1.4 1.9-2.2 2.9-.8 1-1.7 2.1-2.7 3.1-1 1-2 1.9-3.2 2.8-1.1.8-2.3 1.5-3.6 2-1.3.5-2.6.8-4 .8-.9 0-1.7-.3-2.2-.8-.5-.5-1-1.2-1.3-2.1-.3-.8-.5-1.8-.6-2.8-.1-1-.1-2-.1-3v-1.8-1.5c0-.5 0-.8-.1-1.1s-.1-.4-.2-.4c-.6.1-1.1.6-1.6 1.3-.5.7-.9 1.5-1.4 2.4s-.9 1.9-1.3 3-.9 2-1.3 2.9c-.4.9-.9 1.6-1.4 2.2-.5.6-1 .9-1.5.9-.4 0-.9 0-1.4-.1-.5-.1-.9-.2-1.3-.4s-.8-.3-1.1-.5c-.3-.2-.5-.4-.7-.6.1-.3.2-.6.4-1.1s.4-1 .6-1.6c.2-.6.5-1.2.7-1.9s.5-1.3.7-1.9.4-1.2.5-1.7c.1-.5.2-1 .2-1.3 0-.8-.1-1.3-.2-1.5-.2-.2-.3-.4-.3-.4-.1 0-.2.1-.5.2-.2.2-.5.3-.7.5s-.5.4-.7.6-.3.3-.4.3l-1.9-3.1z"/><path d="M371.1 520c.6-.7 1.2-1.3 1.7-1.8s1-1 1.5-1.4.9-.8 1.3-1.2.9-.8 1.3-1.2c.5-.4.9-.9 1.4-1.4s1.1-1.1 1.7-1.8c1-1 1.9-2.1 2.7-3.3.8-1.1 1.6-2.4 2.2-3.7.3-.6.5-1.2.5-1.9.1-.7.1-1.3.2-2 0-.7.1-1.3.2-1.9.1-.6.3-1.2.7-1.8h.2c.3 0 .7.1 1.2.4.5.3 1 .6 1.6 1.1.6.4 1.1.9 1.7 1.5l1.6 1.6c.5.5.9 1 1.2 1.5.3.5.5.8.6 1.1v.6c0 .5 0 .9-.1 1.5-.1.5-.1 1-.1 1.5 0 .2.1.7.4 1.4s.5 1.6.8 2.7c.3 1 .5 2.2.7 3.4s.2 2.4.1 3.6l-.4.9 1.2-1.6c.3-.3.7-.5.9-.8.3-.2.6-.5.9-.8.3-.3.6-.6 1-.9s.8-.8 1.3-1.2c0 .1.1.2.4.5.2.3.5.6.8.9.3.3.6.6.8.9.2.3.3.4.3.4-.5.8-1.1 1.6-1.8 2.6-.7.9-1.5 1.9-2.3 2.8-.9 1-1.8 1.9-2.9 2.8-1 .9-2.1 1.7-3.3 2.4-1.2.7-2.4 1.3-3.8 1.7s-2.7.6-4.1.6c-.8 0-1.6-.2-2.6-.6-.9-.4-1.8-.9-2.7-1.6-.9-.6-1.7-1.4-2.4-2.2-.7-.8-1.3-1.7-1.8-2.5-.4.4-.9.6-1.4.8-.5.2-.9.3-1.1.3-.2 0-.6 0-1-.1s-.8-.1-1.2-.3c-.4-.1-.7-.3-1-.6-.3-.2-.4-.6-.4-.9 0-.3.1-.5.3-.8.3-.5.6-.8 1-1.2zm18-10.2c-.5 1.1-1 2.1-1.7 3-.6.9-1.3 1.8-2.1 2.6s-1.5 1.6-2.3 2.3l-2.4 2.1c.2.4.4.7.6.9.3.3.5.5.8.7.3.2.6.3.9.4.3.1.6.1.9.1.9 0 1.8-.2 2.6-.6.8-.4 1.5-.9 2-1.5.6-.6 1-1.3 1.3-2.1.3-.8.5-1.5.5-2.3 0-.5 0-1.1-.1-1.6s-.1-1.1-.2-1.6-.2-1-.4-1.5c-.1-.2-.3-.6-.4-.9zM409.2 527.7c0 .6-.1 1.1-.4 1.5-.2.4-.5.8-.9 1.1-.4.3-.8.5-1.2.6-.4.1-.9.2-1.3.2s-.8-.1-1.3-.4-1-.5-1.4-.9-.8-.8-1.1-1.3c-.3-.5-.5-1-.5-1.6 0-.5.1-1.1.2-1.6s.3-1 .5-1.4c.3-.4.6-.7 1-1 .4-.3.9-.4 1.6-.4.7 0 1.4.1 2 .4s1.1.7 1.5 1.1c.4.5.7 1 .9 1.6s.4 1.5.4 2.1z"/></g><g fill="#FFF"><path d="M122.4 34.5c.2.5.3 1.1.3 1.7s-.1 1.2-.3 1.7c-.2.5-.4 1-.7 1.5-.3.4-.5.8-.7 1-.7.8-1.5 1.5-2.3 2.2-.8.7-1.7 1.4-2.5 2s-1.7 1.2-2.5 1.7-1.6 1-2.2 1.4c-.7.4-1.3.7-1.8 1-.5.3-.9.5-1.1.6-.6.9-1.2 2.1-1.9 3.4-.7 1.4-1.4 2.9-2.3 4.5-.9 1.6-1.9 3.3-3.1 5-1.2 1.7-2.5 3.4-4.1 5-.9.9-2 1.6-3.3 2.2s-2.7.9-4.2.9c-1.2 0-2.4-.1-3.6-.4-1.2-.3-2.2-.7-3.1-1.2s-1.7-1.1-2.2-1.9c-.6-.7-.8-1.6-.8-2.5 0-1.1.3-2.2.8-3.2s1.3-2 2.2-2.9c.9-.9 2-1.8 3.1-2.6s2.4-1.6 3.7-2.4l3.9-2.1c1.3-.6 2.5-1.2 3.7-1.8 1.1-.5 2.2-1 3.1-1.5.9-.5 1.6-.8 2-1.2-.7.3-1.4.5-2 .6-.6.1-1.2.2-1.8.2-1 0-2-.2-3-.5-1-.4-1.9-.9-2.7-1.5-.8-.6-1.5-1.4-2-2.2-.5-.9-.8-1.8-.8-2.7 0-.8.1-1.7.2-2.6.1-1 .4-2 .7-3 .3-1 .7-2 1.2-3s1.1-1.9 1.8-2.7c.7-.8 1.6-1.4 2.6-2 1-.5 2.1-.8 3.3-.9.5 0 .9 0 1.1.1.3.1.5.2.7.3.2.1.3.3.5.4.1.1.3.2.5.3.2-.4.4-.7.6-.9.2-.2.4-.3.6-.3h.8c.3 0 .7.1 1.1.1 1 0 1.9.3 2.8.9s1.6 1.4 2.3 2.3c.6.9 1.2 1.9 1.5 2.9.4 1 .6 1.9.6 2.8 0 .7-.1 1.3-.2 1.9-.1.6-.2 1.2-.4 1.7s-.4 1-.5 1.4c-.2.4-.4.8-.5 1.1l10.3-7.8.6 1zM88.4 65c0 .3.1.5.4.6.3.1.7.2 1.1.2.5 0 1-.1 1.6-.2s1-.4 1.4-.8c.9-.8 1.8-1.6 2.5-2.5s1.4-1.8 2.1-2.8c.7-1 1.3-2 1.9-3.1.6-1.1 1.3-2.2 1.9-3.3-.4.3-1 .7-1.8 1.2S98 55.7 97 56.4s-2 1.4-3 2.2-1.9 1.6-2.8 2.3c-.8.8-1.5 1.5-2.1 2.2-.4.8-.7 1.4-.7 1.9zm12.4-31.4c-.9 1-1.6 2.2-2.1 3.6S98 40 98 41.5c0 .5.1 1 .2 1.3.1.4.4.6.8.6.5 0 1-.1 1.5-.3.6-.2 1.1-.5 1.7-.9.6-.4 1.2-.8 1.7-1.3.6-.5 1.1-1 1.5-1.6.4-.5.8-1.1 1.1-1.7.3-.6.4-1.1.4-1.6 0-.8-.1-1.5-.4-2.1-.2-.6-.5-1.1-.9-1.4-.4-.4-.8-.6-1.2-.8-.4-.2-.8-.3-1.2-.3-.1 0-.4.1-.6.3-.3.2-.5.4-.8.7l-.7.7c-.1.3-.2.5-.3.5z"/><path d="M148.3 35.6c-.3.7-.7 1.3-1.1 1.9-.5.6-1.1 1.1-1.7 1.5-.6.4-1.3.7-2 1-.7.2-1.3.3-2 .3-.8 0-1.6-.2-2.2-.6-.5 1.2-1.1 2.4-1.8 3.3-.7 1-1.4 1.9-2.3 2.7-.8.8-1.7 1.5-2.7 2.2-1 .7-2 1.3-3.1 1.9-.2.1-.4.1-.6.1-.4 0-.9-.1-1.5-.4s-1.1-.6-1.8-1c-.6-.4-1.2-.8-1.9-1.3-.6-.5-1.2-1-1.8-1.4-.6-.5-1.1-.9-1.5-1.3-.5-.4-.8-.7-1.1-.9-.1-.3-.1-.6-.2-.9-.1-.3-.1-.7-.1-1 0-.3-.1-.6-.1-.9v-.7c0-.9.2-1.9.5-2.8.3-1 .7-1.9 1.2-2.8.5-.9 1-1.8 1.6-2.7.6-.9 1.2-1.6 1.7-2.3.5-.6 1.1-1.2 1.8-1.8.8-.6 1.6-1.2 2.5-1.7.9-.5 1.8-.9 2.8-1.3s1.9-.5 2.7-.5c.9 0 1.8.3 2.7.8.9.5 1.6 1.2 2.3 2s1.2 1.7 1.6 2.6c.4.9.6 1.8.6 2.5v.6c0 .2 0 .4-.1.6 0 .2-.1.4-.1.6s-.1.4-.1.5c.1.1.1.1.2.1s.1.1.2.1.2 0 .3.1h1.4c.3 0 .6-.1.9-.2.3-.1.6-.3 1-.6s.7-.6 1-1l2.8 2.7zm-14.7-3.9c-.3-.2-.5-.2-.8-.2-.2 0-.4.1-.6.2-.2.1-.4.2-.6.4-.7.7-1.3 1.4-1.9 2.2s-1.1 1.6-1.5 2.4c-.4.8-.8 1.6-1 2.4-.3.8-.4 1.6-.4 2.3 0 .2.1.4.2.5.1.1.3.2.5.2.3 0 .6-.1 1.1-.4.4-.3.9-.6 1.3-.9.4-.4.9-.8 1.3-1.2.4-.4.8-.8 1-1.1.5-.6.9-1.1 1.2-1.7.4-.6.7-1.2 1-1.8-.3-.2-.5-.5-.6-.7-.1-.3-.2-.5-.3-.8-.1-.3-.1-.6-.1-.9s.2-.6.2-.9z"/><path d="M171.7 35.6c-.3.7-.7 1.3-1.1 1.9-.5.6-1.1 1.1-1.7 1.5-.6.4-1.3.7-2 1-.7.2-1.3.3-2 .3-.8 0-1.6-.2-2.2-.6-.5 1.2-1.1 2.4-1.8 3.3-.7 1-1.4 1.9-2.3 2.7-.8.8-1.7 1.5-2.7 2.2-1 .7-2 1.3-3.1 1.9-.2.1-.4.1-.6.1-.4 0-.9-.1-1.5-.4s-1.1-.6-1.8-1c-.6-.4-1.2-.8-1.9-1.3-.6-.5-1.2-1-1.8-1.4-.6-.5-1.1-.9-1.5-1.3-.5-.4-.8-.7-1.1-.9-.1-.3-.1-.6-.2-.9-.1-.3-.1-.7-.1-1 0-.3-.1-.6-.1-.9v-.7c0-.9.2-1.9.5-2.8.3-1 .7-1.9 1.2-2.8.5-.9 1-1.8 1.6-2.7.6-.9 1.2-1.6 1.7-2.3.5-.6 1.1-1.2 1.8-1.8.8-.6 1.6-1.2 2.5-1.7.9-.5 1.8-.9 2.8-1.3s1.9-.5 2.7-.5c.9 0 1.8.3 2.7.8.9.5 1.6 1.2 2.3 2s1.2 1.7 1.6 2.6c.4.9.6 1.8.6 2.5v.6c0 .2 0 .4-.1.6 0 .2-.1.4-.1.6s-.1.4-.1.5c.1.1.1.1.2.1s.1.1.2.1.2 0 .3.1h1.4c.3 0 .6-.1.9-.2.3-.1.6-.3 1-.6s.7-.6 1-1l2.8 2.7zM157 31.7c-.3-.2-.5-.2-.8-.2-.2 0-.4.1-.6.2-.2.1-.4.2-.6.4-.7.7-1.3 1.4-1.9 2.2s-1.1 1.6-1.5 2.4c-.4.8-.8 1.6-1 2.4-.3.8-.4 1.6-.4 2.3 0 .2.1.4.2.5.1.1.3.2.5.2.3 0 .6-.1 1.1-.4.4-.3.9-.6 1.3-.9.4-.4.9-.8 1.3-1.2.4-.4.8-.8 1-1.1.5-.6.9-1.1 1.2-1.7.4-.6.7-1.2 1-1.8-.3-.2-.5-.5-.6-.7-.1-.3-.2-.5-.3-.8-.1-.3-.1-.6-.1-.9s.2-.6.2-.9z"/><path d="M198.8 34c.3.4.5.8.6 1.2s.1.9 0 1.3l-.3 1.2c-.2.4-.3.6-.4.9-.8 1.3-1.7 2.5-2.7 3.5s-1.9 2-2.9 2.8c-1 .8-1.9 1.5-2.8 2.1-.9.6-1.7 1-2.5 1.4-.7.4-1.4.6-1.9.7-.5.1-.9.2-1 .1-.5-.2-1-.4-1.4-.6-.4-.2-.8-.4-1.2-.7-.4-.2-.8-.5-1.1-.8-.4-.3-.7-.7-1-1.1-.1 0-.1.1-.1.1s0 .1.1.1h.1s0-.1-.1-.2c-.5.3-1.1.6-1.6 1s-1 .8-1.6 1.2c-.5.4-1.1.7-1.6.9-.6.2-1.2.3-1.8.3-.3 0-.6-.1-1.1-.3-.5-.2-.9-.4-1.5-.7-.5-.3-1.1-.6-1.6-.9-.6-.3-1.1-.7-1.6-1-.5-.4-.9-.7-1.2-1-.4-.3-.6-.6-.7-.8-.5-.9-.7-1.8-.8-2.7s.1-1.9.3-2.9c.3-1 .6-2 1.1-2.9.5-1 1.1-1.9 1.7-2.8.6-.9 1.2-1.7 1.9-2.5s1.3-1.5 1.8-2.1c1-1.1 2-1.9 3.2-2.6s2.2-1.1 3.4-1.2c1.1-.2 2.2 0 3.3.4 1.1.4 2.1 1.1 3.1 2.2.3-.7.7-1.5 1-2.4.4-.9.7-1.9 1.1-2.9.4-1 .7-2 1-2.9s.5-1.8.7-2.5c.1-.3.1-.6.3-1.2.1-.5.3-1.1.4-1.8.2-.6.3-1.3.5-2s.4-1.3.6-1.9c.2-.6.5-1.1.7-1.5.3-.4.5-.6.8-.7.4.3.9.6 1.4 1.1.5.5 1 .9 1.5 1.5.5.5.9 1 1.3 1.6.4.5.7 1 1 1.4-.4 1.2-.8 2.5-1.3 3.9s-1.1 3-1.8 4.6-1.3 3.3-2.1 5c-.7 1.7-1.4 3.5-2.1 5.2-.7 1.8-1.4 3.5-2 5.3-.6 1.7-1.2 3.4-1.7 5 .4.2.8.1 1.4-.1.6-.2 1.2-.6 1.9-1.1.7-.5 1.4-1.1 2.2-1.7s1.5-1.4 2.3-2.1l2.1-2.1 1.7-1.7 1 .4zm-15.9-4.1c-1 .5-2 1.1-2.9 1.9-1 .8-1.9 1.7-2.7 2.7-.9 1-1.6 2.1-2.3 3.2-.7 1.1-1.2 2.2-1.6 3.3-.1.3-.2.7-.3 1-.1.4 0 .7.3 1 .7-.3 1.4-.7 2.3-1.2.8-.5 1.6-1.1 2.4-1.8.8-.7 1.6-1.5 2.3-2.3.7-.8 1.3-1.7 1.8-2.6.5-.9.8-1.8 1-2.7 0-.8 0-1.7-.3-2.5zM223.8 49.7c-.5 0-1.1-.1-1.8-.4-.7-.3-1.5-.6-2.3-1.1-.8-.4-1.6-.9-2.4-1.4-.8-.5-1.5-1-2.2-1.6-.6-.5-1.2-1-1.6-1.5s-.5-.7-.5-1c0-2 .2-3.9.5-5.9.4-1.9.8-3.9 1.4-5.8.6-1.9 1.3-3.8 2.1-5.6.8-1.9 1.7-3.7 2.6-5.5.9-1.8 1.8-3.6 2.8-5.3.9-1.7 1.9-3.4 2.7-5 .5-.9 1.1-1.9 1.9-3s1.6-2.2 2.6-3.2 2-1.8 3.1-2.5 2.2-1 3.4-1c.5 0 1 .2 1.5.5s1 .8 1.4 1.3.9 1.1 1.3 1.7.8 1.2 1.1 1.8c.3.6.5 1.1.7 1.5s.3.7.3.8c0 1.9-.4 3.8-1.1 5.9-.7 2-1.6 4-2.7 6s-2.4 4-3.9 5.9c-1.5 1.9-3 3.7-4.6 5.4s-3.1 3.2-4.7 4.5-3 2.4-4.4 3.3c0 .1 0 .5.1.9.1.5.2 1 .4 1.5s.4 1 .6 1.4c.3.4.6.6 1 .6.5 0 1.1-.2 1.7-.5.6-.3 1.3-.7 2-1.2s1.4-1.1 2.2-1.8 1.5-1.3 2.3-2.1 1.5-1.4 2.2-2.1 1.4-1.3 2.1-1.9c.2-.2.4-.3.6-.4.2-.1.4-.1.6-.1.4 0 .6.1.8.4.2.3.3.6.3 1 0 .5-.1 1-.4 1.7-.3.7-.7 1.4-1.1 2.2-.5.8-1 1.7-1.7 2.5-.6.9-1.3 1.7-2.1 2.6s-1.5 1.6-2.3 2.4c-.8.8-1.6 1.4-2.3 2-.8.6-1.5 1-2.2 1.4-.8.6-1.4.7-2 .7zm-.4-19.3c.7-.4 1.4-.9 2.1-1.6.7-.6 1.4-1.3 2.1-2.1.7-.8 1.4-1.6 2-2.4.7-.9 1.3-1.7 1.9-2.6.6-.9 1.1-1.7 1.6-2.5s.9-1.6 1.2-2.3c.4-.9.8-1.8 1.3-2.8.5-1 .9-1.9 1.3-2.8s.8-1.9 1.1-2.8c.3-.9.5-1.8.5-2.6-.2.1-.4.1-.5.2-.2 0-.3.1-.4.2-1.2 1.5-2.4 3.1-3.6 4.8-1.2 1.7-2.3 3.5-3.5 5.4-1.2 1.9-2.3 4-3.5 6.3s-2.5 4.7-3.8 7.3c0 .2 0 .3.2.3z"/><path d="M268.4 35.5c-1.2 1.7-2.3 3.3-3.3 4.7-.4.6-.9 1.3-1.3 1.9s-.9 1.2-1.3 1.8c-.4.5-.8 1-1.1 1.5-.3.4-.6.7-.8 1-.3.4-.7.7-1.2 1.1s-.9.8-1.5 1.1c-.5.4-1 .6-1.6.9-.5.2-1 .4-1.5.4-.9 0-1.7-.1-2.5-.4s-1.5-.6-2.1-1.1c-.6-.5-1.2-1.1-1.6-1.8-.4-.7-.7-1.5-.8-2.4-.3.4-.6.8-1 1.3-.4.4-.9.8-1.3 1.2-.5.4-1 .7-1.6.9-.5.2-1.1.4-1.7.4-.6 0-1.1-.1-1.7-.2s-1.2-.4-1.8-.6c-.6-.2-1.1-.5-1.6-.7-.5-.2-1-.4-1.4-.6-1.2-.4-2-1.2-2.5-2.1s-.8-2-.8-3.2c0-.9.2-1.8.5-2.7s.7-1.7 1.2-2.6c.5-.9.9-1.7 1.4-2.6.5-.9.9-1.7 1.1-2.7.1-.3.2-.6.4-.9.2-.2.3-.4.5-.6.2-.1.4-.3.6-.3.2-.1.4-.1.5-.2l4.7 4.2c-.1.5-.4 1.1-.6 1.8-.3.7-.5 1.5-.8 2.3-.3.8-.5 1.5-.7 2.2-.2.7-.3 1.2-.3 1.5V41.3c0 .2.1.4.1.5.1.2.1.2.3.3.5-.2 1-.5 1.5-1.1.5-.6 1-1.3 1.5-2.1s1-1.6 1.5-2.6c.5-.9 1-1.8 1.4-2.6s.9-1.6 1.3-2.3c.4-.7.7-1.2 1-1.5.2-.2.5-.4.9-.4s.7.1 1 .4c.3.2.5.5.6.9.2.4.4.8.5 1.1s.3.6.5.9c.2.3.4.6.6.8.2.3.5.6.9.9.2.2.4.5.4.7 0 .5-.1 1-.2 1.6-.1.6-.3 1.2-.4 1.8-.2.6-.3 1.2-.4 1.8-.1.6-.2 1.1-.2 1.6 0 .2.1.4.2.6.1.2.3.3.6.3.2 0 .6-.2 1-.5s1-.7 1.5-1.1c.6-.5 1.2-1 1.8-1.6.7-.6 1.3-1.2 1.9-1.8.6-.6 1.3-1.2 1.8-1.8l1.6-1.6 1.1-1.1.4-.4 2.8 2.5z"/><path d="M292 38.1c-.6.7-1.4 1.4-2.2 2.1-.8.7-1.6 1.3-2.4 1.9s-1.6 1.1-2.3 1.5c-.7.5-1.3.8-1.7 1.1-.3.2-.8.5-1.3.9s-1.1.7-1.7 1.1c-.6.4-1.3.8-2 1.2-.7.4-1.4.8-2.1 1-.7.3-1.4.5-2.1.6-.7.1-1.3.1-1.8 0-.7-.2-1.5-.4-2.3-.9-.8-.4-1.6-.8-2.3-1.3-.8-.5-1.4-1-2-1.4-.5-.4-1-.9-1.3-1.3s-.6-1-.8-1.5-.2-1.2-.2-1.9c0-1.5.2-3 .5-4.3.3-1.3.8-2.6 1.3-3.8.6-1.2 1.3-2.4 2.2-3.5.9-1.1 1.9-2.2 3-3.2.5-.5 1.2-1 1.9-1.6.7-.6 1.5-1.1 2.3-1.6.8-.5 1.6-.9 2.4-1.2.8-.3 1.6-.5 2.4-.5.9 0 1.7.2 2.4.5s1.3.8 1.8 1.4c.5.6.9 1.2 1.1 2 .3.7.4 1.5.4 2.3 0 .8-.1 1.5-.3 2.1-.2.6-.5 1.2-.9 1.7s-.8 1-1.3 1.5l-1.5 1.5c-.3 0-.4-.1-.6-.3-.1-.2-.2-.3-.4-.5l-2.7-3.9c-.7.4-1.4.9-2.1 1.6-.7.7-1.3 1.4-1.8 2.2-.5.8-.9 1.6-1.3 2.5-.3.9-.5 1.7-.5 2.5 0 .4 0 .8.1 1.3 0 .5.1.9.2 1.3s.3.8.4 1.2c.2.4.4.7.7 1 1-.3 2-.6 3-1s2.2-.9 3.5-1.6 2.7-1.5 4.4-2.6c1.6-1 3.6-2.4 5.8-4 .3-.1.5-.1.8-.2h.8c.2 0 .5.1.6.2s.3.2.4.3c.2.3.3.5.4.9s.1.7.1 1c0 .4-.1.7-.3 1.1s-.4.3-.7.6z"/><path d="M306.8 1.7c-.8 2.4-1.7 4.9-2.5 7.4s-1.5 4.9-2.2 7.2c-.7 2.3-1.3 4.6-1.8 6.7-.5 2.1-.9 4.1-1.3 5.8.5-.7 1.1-1.3 1.6-1.8.5-.6 1.1-1.1 1.7-1.5s1.3-.8 2.1-1 1.7-.4 2.7-.4c.6 0 1.1.1 1.6.3.5.2 1 .5 1.4.9.4.4.7.9.9 1.5.2.6.3 1.3.3 2.1 0 1.2-.3 2.3-.8 3.3s-1.2 1.8-2 2.5-1.7 1.3-2.7 1.8c-1 .5-2 .8-2.9 1 .7.9 1.3 1.7 1.8 2.5s1.1 1.4 1.6 1.9 1 .9 1.5 1.2 1.1.4 1.6.4c.8 0 1.5-.2 2.3-.7s1.6-1 2.3-1.7c.8-.7 1.5-1.5 2.3-2.3.7-.9 1.4-1.7 2-2.5.6-.8 1.2-1.6 1.7-2.2.5-.7.9-1.2 1.2-1.6l2 2.7c-.5.9-1.1 1.9-1.7 2.9s-1.3 2.2-2 3.3c-.7 1.1-1.5 2.2-2.3 3.2s-1.7 2-2.6 2.8c-.9.8-1.9 1.5-2.9 2s-2.1.7-3.1.7c-1.3 0-2.4-.1-3.4-.4-1-.2-1.9-.6-2.6-1-.8-.4-1.4-.9-2-1.4s-1.1-1.2-1.6-1.8c-.5-.6-.9-1.3-1.3-2s-.8-1.3-1.2-2c-.5.4-.8.9-1.1 1.5-.3.6-.5 1.3-.8 1.9-.2.7-.5 1.4-.7 2.1-.2.7-.5 1.3-.8 1.8s-.7 1-1.2 1.3c-.5.3-1.1.5-1.8.5-.4 0-.7 0-1-.1-.3 0-.5-.1-.7-.3-.2-.2-.3-.4-.4-.7-.1-.3-.1-.7-.1-1.2 0-.8.1-2.1.3-3.9.2-1.7.5-3.8 1-6.2s1-5 1.7-7.9c.7-2.9 1.5-5.9 2.5-9 1-3.1 2.1-6.2 3.4-9.4s2.7-6.3 4.3-9.3l5.7-.9zm-5.7 32.8c.7-.2 1.3-.4 1.8-.6.5-.2.9-.5 1.2-.8.4-.3.6-.7.6-1.1 0-.2-.1-.4-.4-.5-.3-.1-.5-.2-.7-.2-.3 0-.6.1-.9.2l-.9.6c-.3.2-.5.4-.8.7l-.5.5.6 1.2zM329.2 46.6c0 .6-.1 1.1-.4 1.5-.2.4-.5.8-.9 1.1-.4.3-.8.5-1.2.6-.4.1-.9.2-1.3.2s-.8-.1-1.3-.4-1-.5-1.4-.9-.8-.8-1.1-1.3c-.3-.5-.5-1-.5-1.6 0-.5.1-1.1.2-1.6s.3-1 .5-1.4c.3-.4.6-.7 1-1 .4-.3.9-.4 1.6-.4.7 0 1.4.1 2 .4s1.1.7 1.5 1.1c.4.5.7 1 .9 1.6s.4 1.4.4 2.1z"/></g><g fill="#FFF"><path d="M107.6 280.7c-.3.3-.7.7-1.3 1.1-.6.5-1.2.9-1.9 1.3s-1.5.8-2.3 1.1c-.8.3-1.6.4-2.4.4-.4 0-.8 0-1.1-.1-.3-.1-.6-.2-.8-.4-.2-.1-.4-.3-.6-.5l-.6-.6c-.1.5-.4 1.3-.8 2.2-.4.9-.8 2-1.3 3.1s-1.2 2.2-1.8 3.3c-.7 1.1-1.5 2.1-2.3 3.1-.8.9-1.7 1.7-2.6 2.3-.9.6-1.9.9-2.9.9-.6 0-1.4-.2-2.1-.6s-1.6-.9-2.3-1.4c-.8-.6-1.5-1.2-2.1-1.8-.6-.6-1.2-1.2-1.5-1.8-.7.5-1.4 1.1-2.1 1.6-.7.5-1.5.9-2.3 1.3s-1.6.6-2.4.9c-.8.2-1.7.3-2.5.3-1 0-1.9-.1-2.8-.4-.9-.3-1.7-.7-2.3-1.2s-1.2-1.2-1.6-2c-.4-.8-.6-1.7-.6-2.7 0-.9.1-2.1.4-3.4.2-1.3.6-2.7 1-4.1.5-1.4 1-2.8 1.7-4.3.7-1.4 1.4-2.7 2.3-3.8s1.8-2 2.9-2.7c1.1-.7 2.2-1 3.4-1 .4 0 .7 0 1 .1l.9.3c.3.1.6.3.9.6.3.2.6.6 1 .9-1 1-1.9 2.1-2.7 3.4-.8 1.3-1.5 2.5-2.1 3.8-.6 1.3-1 2.6-1.3 3.9-.3 1.3-.5 2.4-.5 3.4 0 .8.1 1.4.3 2 1-.3 2.1-.9 3.2-1.8s2.1-2.1 3.2-3.4c1.1-1.3 2.1-2.9 3.1-4.6 1-1.7 1.9-3.5 2.8-5.3.3-.1.8-.2 1.3-.2.4 0 .9.1 1.5.2.5.1 1 .3 1.5.5.4.2.8.5 1.1.9s.4.8.4 1.3c0 .3-.1.7-.4 1.2s-.6 1.2-1 2-.8 1.6-1.3 2.5-.9 1.8-1.3 2.7c-.4.9-.7 1.8-1 2.7s-.4 1.7-.4 2.4v.7c0 .1 0 .3.1.4s.1.2.1.2c.4 0 .8-.3 1.3-.8s1.1-1.2 1.7-2 1.3-1.8 2-2.9l2.1-3.3c.7-1.1 1.3-2.2 1.9-3.3s1.2-2 1.7-2.9.9-1.5 1.3-2c.3-.5.6-.8.7-.8l1.2 1.2c.5.5.9 1 1.5 1.5.5.5 1 .9 1.5 1.3s1 .6 1.4.6c.6 0 1.2-.1 1.8-.4s1.3-.8 2.1-1.5l3 4.4z"/><path d="M129.6 281c-.4.6-.9 1.2-1.6 2-.7.8-1.5 1.6-2.4 2.4-.9.8-1.8 1.7-2.8 2.5-1 .8-2 1.6-3 2.2-1 .7-2 1.2-2.9 1.6-.9.4-1.7.6-2.4.6-.2 0-.4-.1-.8-.2s-.8-.2-1.2-.4-.9-.4-1.5-.6l-1.5-.6c-.5-.2-.9-.4-1.3-.6-.4-.2-.7-.4-.9-.5-.7-.4-1.3-.8-1.9-1.3s-1.1-1.1-1.5-1.7-.7-1.3-.9-2c-.2-.7-.3-1.6-.3-2.5 0-1.2.2-2.4.6-3.6.4-1.3.9-2.5 1.6-3.7.7-1.2 1.5-2.4 2.4-3.5s1.9-2.1 3-2.9c1.1-.8 2.2-1.5 3.3-2 1.2-.5 2.3-.7 3.5-.7 1.9 0 3.3.4 4.2 1.3 1 .9 1.4 2.1 1.4 3.8 0 1-.2 1.9-.5 2.8-.4.8-.8 1.6-1.4 2.3-.6.7-1.3 1.3-2.1 1.9-.8.5-1.6 1.1-2.5 1.5-.9.5-1.7.9-2.6 1.2-.9.4-1.7.7-2.5 1-.3.5-.5.9-.6 1.3-.1.4-.2.9-.2 1.6 0 .7.2 1.3.5 1.7.3.4 1 .6 2 .6s2.1-.3 3.2-.8 2.2-1.2 3.3-2c1.1-.8 2.1-1.7 3.1-2.6 1-.9 1.9-1.7 2.6-2.5l.8-.8c.3-.4.7-.7 1.1-1.1.4-.4.9-.7 1.3-.9.5-.3.9-.4 1.4-.4h.5c.2 0 .4 0 .5.1s.3.2.4.3c.1.2.1.4.1.7 0 .9-.1 1.7-.4 2.4-.2.7-.6 1.4-1.1 2.1zm-16.3-6.3c.6-.1 1.1-.2 1.6-.5s1-.7 1.5-1.1c.5-.5.9-.9 1.2-1.5s.7-1.1.9-1.6c-.1 0-.2-.1-.2-.1s-.1-.1-.2-.1c-.6.1-1.2.3-1.7.6-.5.4-1 .8-1.4 1.3s-.8 1-1.1 1.5-.4 1-.6 1.5zM153.2 292.8c-.5 0-1.1-.1-1.8-.4-.7-.3-1.5-.6-2.3-1.1-.8-.4-1.6-.9-2.4-1.4-.8-.5-1.5-1-2.2-1.6-.6-.5-1.2-1-1.6-1.5s-.6-.8-.6-1.1c0-2 .2-3.9.5-5.9.4-1.9.8-3.9 1.4-5.8.6-1.9 1.3-3.8 2.1-5.6.8-1.9 1.7-3.7 2.6-5.5.9-1.8 1.8-3.6 2.8-5.3.9-1.7 1.9-3.4 2.7-5 .5-.9 1.1-1.9 1.9-3s1.6-2.2 2.6-3.2 2-1.8 3.1-2.5 2.2-1 3.4-1c.5 0 1 .2 1.5.5s1 .8 1.4 1.3.9 1.1 1.3 1.7.8 1.2 1.1 1.8c.3.6.5 1.1.7 1.5s.3.7.3.8c0 1.9-.4 3.8-1.1 5.9-.7 2-1.6 4-2.7 6s-2.4 4-3.9 5.9c-1.5 1.9-3 3.7-4.6 5.4s-3.1 3.2-4.7 4.5-3 2.4-4.4 3.3c0 .1 0 .5.1.9.1.5.2 1 .4 1.5s.4 1 .6 1.4c.3.4.6.6 1 .6.5 0 1.1-.2 1.7-.5.6-.3 1.3-.7 2-1.2s1.4-1.1 2.2-1.8 1.5-1.3 2.3-2.1 1.5-1.4 2.2-2.1 1.4-1.3 2.1-1.9c.2-.2.4-.3.6-.4.2-.1.4-.1.6-.1.4 0 .6.1.8.4.2.3.3.6.3 1 0 .5-.1 1-.4 1.7-.3.7-.7 1.4-1.1 2.2-.5.8-1 1.7-1.7 2.5-.6.9-1.3 1.7-2.1 2.6s-1.5 1.6-2.3 2.4c-.8.8-1.6 1.4-2.3 2-.8.6-1.5 1-2.2 1.4-.7.6-1.3.8-1.9.8zm-.4-19.4c.7-.4 1.4-.9 2.1-1.6.7-.6 1.4-1.3 2.1-2.1.7-.8 1.4-1.6 2-2.4.7-.9 1.3-1.7 1.9-2.6.6-.9 1.1-1.7 1.6-2.5s.9-1.6 1.2-2.3c.4-.9.8-1.8 1.3-2.8.5-1 .9-1.9 1.3-2.8s.8-1.9 1.1-2.8c.3-.9.5-1.8.5-2.6-.2.1-.4.1-.5.2-.2 0-.3.1-.4.2-1.2 1.5-2.4 3.1-3.6 4.8-1.2 1.7-2.3 3.5-3.5 5.4-1.2 1.9-2.3 4-3.5 6.3s-2.5 4.7-3.8 7.3c-.1.2 0 .3.2.3z"/><path d="M191.7 278.6c-.3.7-.7 1.3-1.1 1.9-.5.6-1.1 1.1-1.7 1.5-.6.4-1.3.7-2 1-.7.2-1.3.3-2 .3-.8 0-1.6-.2-2.2-.6-.5 1.2-1.1 2.4-1.8 3.3-.7 1-1.4 1.9-2.3 2.7-.8.8-1.7 1.5-2.7 2.2-1 .7-2 1.3-3.1 1.9-.2.1-.4.1-.6.1-.4 0-.9-.1-1.5-.4s-1.1-.6-1.8-1c-.6-.4-1.2-.8-1.9-1.3-.6-.5-1.2-1-1.8-1.4-.6-.5-1.1-.9-1.5-1.3-.5-.4-.8-.7-1.1-.9-.1-.3-.1-.6-.2-.9-.1-.3-.1-.7-.1-1 0-.3-.1-.6-.1-.9v-.7c0-.9.2-1.9.5-2.8.3-1 .7-1.9 1.2-2.8.5-.9 1-1.8 1.6-2.7.6-.9 1.2-1.6 1.7-2.3.5-.6 1.1-1.2 1.8-1.8.8-.6 1.6-1.2 2.5-1.7.9-.5 1.8-.9 2.8-1.3s1.9-.5 2.7-.5c.9 0 1.8.3 2.7.8.9.5 1.6 1.2 2.3 2s1.2 1.7 1.6 2.6c.4.9.6 1.8.6 2.5v.6c0 .2 0 .4-.1.6 0 .2-.1.4-.1.6s-.1.4-.1.5c.1.1.1.1.2.1s.1.1.2.1.2 0 .3.1h1.4c.3 0 .6-.1.9-.2.3-.1.6-.3 1-.6s.7-.6 1-1l2.8 2.7zm-14.7-3.9c-.3-.2-.5-.2-.8-.2-.2 0-.4.1-.6.2-.2.1-.4.2-.6.4-.7.7-1.3 1.4-1.9 2.2s-1.1 1.6-1.5 2.4c-.4.8-.8 1.6-1 2.4-.3.8-.4 1.6-.4 2.3 0 .2.1.4.2.5.1.1.3.2.5.2.3 0 .6-.1 1.1-.4.4-.3.9-.6 1.3-.9.4-.4.9-.8 1.3-1.2.4-.4.8-.8 1-1.1.5-.6.9-1.1 1.2-1.7.4-.6.7-1.2 1-1.8-.3-.2-.5-.5-.6-.7-.1-.3-.2-.5-.3-.8-.1-.3-.1-.6-.1-.9s.2-.6.2-.9z"/><path d="M197.7 271.5c.8 0 1.5.1 2.2.4.6.3 1.2.7 1.7 1.2.5.6.9 1.3 1.3 2.2.4.9.7 2 .9 3.3-.5 1.2-1.1 2.2-1.6 3.2-.6.9-1.1 1.8-1.6 2.6s-.9 1.7-1.3 2.5c-.3.8-.5 1.7-.5 2.7 0 .4 0 .8.1 1.3.1.4.2.9.4 1.4 1-.1 1.9-.5 2.8-1.1.8-.6 1.5-1.4 2.2-2.3s1.2-2 1.7-3.2.9-2.3 1.2-3.5c.3-1.2.6-2.3.8-3.4.2-1.1.4-2.1.6-2.9-.2-.3-.4-.7-.6-1.3-.2-.5-.3-1.1-.3-1.6 0-.3.1-.6.2-.9.1-.2.4-.4.7-.4.2 0 .5.1.6.2.2.1.4.2.6.4.2.2.5.4.9.7s.8.7 1.3 1.1c.5.4 1 .8 1.6 1.2.6.4 1.2.8 1.8 1.1s1.2.6 1.8.8c.6.2 1.2.3 1.8.3.5 0 1-.1 1.4-.2.5-.1.9-.3 1.4-.5.5-.2 1-.3 1.5-.5.5-.1 1.1-.2 1.7-.2.6 0 1.1.1 1.5.3.4.2.6.6.6 1.2 0 .7-.2 1.3-.5 1.9-.3.6-.8 1.1-1.3 1.6-.6.5-1.2.9-1.9 1.2-.7.4-1.4.6-2.1.9s-1.4.4-2.1.6c-.7.1-1.3.2-1.8.2-.4 0-.7-.1-1.1-.2s-.7-.3-1-.5l-.9-.6c-.3-.2-.5-.5-.7-.7-.3 1.1-.6 2.2-1.1 3.4-.4 1.2-.9 2.4-1.5 3.5-.6 1.2-1.2 2.3-1.9 3.3s-1.5 2-2.4 2.7c-.9.8-1.8 1.4-2.8 1.9-1 .5-2.1.7-3.3.7-1 0-2.2-.1-3.3-.4-1.2-.3-2.2-.7-3.2-1.3-1-.6-1.8-1.3-2.4-2.2-.6-.9-1-1.9-1-3.1 0-1.2.2-2.3.6-3.4.4-1.1.9-2.2 1.4-3.3.6-1.1 1.2-2.1 1.9-3.1s1.3-2 1.9-3.1l-.1-.5c-.6 0-1.2.1-1.6.1-.4.1-.9.2-1.3.4s-.8.5-1.2.8c-.4.3-.9.7-1.4 1.2l-.6.6c-.2.2-.5.4-.7.6-.3.2-.5.3-.7.5-.2.1-.5.2-.6.2-.3 0-.5 0-.8-.1-.3-.1-.5-.2-.7-.3-.2-.1-.4-.3-.5-.5-.1-.2-.2-.4-.2-.7 0-.4.2-.9.6-1.4.4-.6.9-1.1 1.5-1.7.6-.6 1.3-1.2 2.1-1.8.8-.6 1.6-1.1 2.5-1.6.9-.5 1.7-.9 2.6-1.2.7-.6 1.5-.7 2.2-.7z"/><path d="M246.9 281c-.4.6-.9 1.2-1.6 2-.7.8-1.5 1.6-2.4 2.4-.9.8-1.8 1.7-2.8 2.5-1 .8-2 1.6-3 2.2-1 .7-2 1.2-2.9 1.6-.9.4-1.7.6-2.4.6-.2 0-.4-.1-.8-.2s-.8-.2-1.2-.4-.9-.4-1.5-.6l-1.5-.6c-.5-.2-.9-.4-1.3-.6-.4-.2-.7-.4-.9-.5-.7-.4-1.3-.8-1.9-1.3s-1.1-1.1-1.5-1.7-.7-1.3-.9-2c-.2-.7-.3-1.6-.3-2.5 0-1.2.2-2.4.6-3.6.4-1.3.9-2.5 1.6-3.7.7-1.2 1.5-2.4 2.4-3.5s1.9-2.1 3-2.9c1.1-.8 2.2-1.5 3.3-2 1.2-.5 2.3-.7 3.5-.7 1.9 0 3.3.4 4.2 1.3 1 .9 1.4 2.1 1.4 3.8 0 1-.2 1.9-.5 2.8-.4.8-.8 1.6-1.4 2.3-.6.7-1.3 1.3-2.1 1.9-.8.5-1.6 1.1-2.5 1.5-.9.5-1.7.9-2.6 1.2-.9.4-1.7.7-2.5 1-.3.5-.5.9-.6 1.3-.1.4-.2.9-.2 1.6 0 .7.2 1.3.5 1.7.3.4 1 .6 2 .6s2.1-.3 3.2-.8 2.2-1.2 3.3-2c1.1-.8 2.1-1.7 3.1-2.6 1-.9 1.9-1.7 2.6-2.5l.8-.8c.3-.4.7-.7 1.1-1.1.4-.4.9-.7 1.3-.9.5-.3.9-.4 1.4-.4h.5c.2 0 .4 0 .5.1s.3.2.4.3c.1.2.1.4.1.7 0 .9-.1 1.7-.4 2.4-.3.7-.7 1.4-1.1 2.1zm-16.3-6.3c.6-.1 1.1-.2 1.6-.5s1-.7 1.5-1.1c.5-.5.9-.9 1.2-1.5s.7-1.1.9-1.6c-.1 0-.2-.1-.2-.1s-.1-.1-.2-.1c-.6.1-1.2.3-1.7.6-.5.4-1 .8-1.4 1.3s-.8 1-1.1 1.5-.5 1-.6 1.5zM279.2 283.5c.4-.3 1-.8 1.7-1.4.7-.6 1.5-1.3 2.3-2 .8-.7 1.6-1.5 2.5-2.2.8-.8 1.5-1.4 2.1-2l2.8 2.9c-.6.9-1.3 1.8-2.1 2.7s-1.7 1.8-2.7 2.7c-.9.9-1.9 1.7-2.9 2.5s-1.9 1.5-2.8 2.2-1.6 1.2-2.3 1.6-1.2.8-1.5 1c-.3.5-.7 1.1-1.1 1.9-.4.8-1 1.7-1.5 2.7-.6 1-1.2 2.1-2 3.2s-1.5 2.2-2.3 3.3c-.8 1.1-1.7 2.1-2.7 3.1s-2 1.9-3 2.6c-1.1.8-2.2 1.4-3.3 1.8-1.2.4-2.3.7-3.6.7-1 0-2-.1-3-.3s-1.8-.5-2.5-1c-.7-.4-1.3-1-1.8-1.6-.4-.6-.7-1.4-.7-2.3 0-.9.2-1.8.7-2.7.5-.9 1.1-1.8 1.9-2.6s1.7-1.7 2.8-2.5l3.3-2.4c1.2-.8 2.3-1.5 3.5-2.2 1.2-.7 2.3-1.3 3.3-1.9 1-.6 2-1.1 2.8-1.6.8-.5 1.5-.9 2-1.2-1.1.5-2.1.8-2.9 1-.8.2-1.6.3-2.2.3-.6 0-1.2-.1-1.8-.3s-1.2-.5-1.8-.9c-.5-.4-1-.9-1.4-1.5-.4-.6-.5-1.2-.5-2 0-.7.1-1.4.2-2.3.1-.9.4-1.8.6-2.8.3-1 .7-1.9 1.1-2.9.4-1 1-1.9 1.6-2.8.6-.9 1.3-1.7 2.1-2.5s1.7-1.4 2.6-1.8l4.5 4.2c-.7.7-1.4 1.5-2 2.5-.6 1-1.1 2-1.5 3s-.7 1.9-.9 2.8c-.2.9-.3 1.6-.3 2.2 0 .7.2 1.1.5 1.1.5 0 1.1-.3 1.7-.8.6-.5 1.3-1.2 2-2s1.4-1.7 2.1-2.8 1.4-2.1 2-3.1l1.8-3c.6-1 1-1.8 1.3-2.4.3-.5.7-.9 1.2-1.2.5-.3 1.1-.4 1.7-.4.5 0 .9.1 1.2.2.3.1.6.3.8.6.2.2.4.5.5.8.1.3.1.5.1.8 0 .2-.1.6-.3 1.1-.2.5-.4 1.2-.7 1.9-.3.7-.6 1.5-1 2.3-.4.8-.7 1.6-1 2.3-.3.7-.6 1.4-.9 2-.1.8-.2 1.2-.3 1.4zm-22.6 22.7c0 .1.1.2.3.2.2 0 .4 0 .6-.1s.5-.2.8-.3.6-.3.9-.5l.9-.6c.9-.8 1.8-1.5 2.6-2.2.8-.7 1.5-1.5 2.2-2.3.7-.8 1.4-1.6 2-2.5s1.3-1.9 1.9-2.9c-.7.5-1.5 1.1-2.4 1.8-.9.7-1.8 1.4-2.7 2.2-.9.7-1.8 1.5-2.6 2.3-.9.8-1.6 1.5-2.3 2.1-.7.7-1.2 1.2-1.6 1.8-.4.3-.6.7-.6 1z"/><path d="M314.1 278.6c-.3.7-.7 1.3-1.1 1.9-.5.6-1.1 1.1-1.7 1.5-.6.4-1.3.7-2 1-.7.2-1.3.3-2 .3-.8 0-1.6-.2-2.2-.6-.5 1.2-1.1 2.4-1.8 3.3-.7 1-1.4 1.9-2.3 2.7-.8.8-1.7 1.5-2.7 2.2-1 .7-2 1.3-3.1 1.9-.2.1-.4.1-.6.1-.4 0-.9-.1-1.5-.4s-1.1-.6-1.8-1c-.6-.4-1.2-.8-1.9-1.3-.6-.5-1.2-1-1.8-1.4-.6-.5-1.1-.9-1.5-1.3-.5-.4-.8-.7-1.1-.9-.1-.3-.1-.6-.2-.9-.1-.3-.1-.7-.1-1 0-.3-.1-.6-.1-.9v-.7c0-.9.2-1.9.5-2.8.3-1 .7-1.9 1.2-2.8.5-.9 1-1.8 1.6-2.7.6-.9 1.2-1.6 1.7-2.3.5-.6 1.1-1.2 1.8-1.8.8-.6 1.6-1.2 2.5-1.7.9-.5 1.8-.9 2.8-1.3s1.9-.5 2.7-.5c.9 0 1.8.3 2.7.8.9.5 1.6 1.2 2.3 2s1.2 1.7 1.6 2.6c.4.9.6 1.8.6 2.5v.6c0 .2 0 .4-.1.6 0 .2-.1.4-.1.6s-.1.4-.1.5c.1.1.1.1.2.1s.1.1.2.1.2 0 .3.1h1.4c.3 0 .6-.1.9-.2.3-.1.6-.3 1-.6s.7-.6 1-1l2.8 2.7zm-14.7-3.9c-.3-.2-.5-.2-.8-.2-.2 0-.4.1-.6.2-.2.1-.4.2-.6.4-.7.7-1.3 1.4-1.9 2.2s-1.1 1.6-1.5 2.4c-.4.8-.8 1.6-1 2.4-.3.8-.4 1.6-.4 2.3 0 .2.1.4.2.5.1.1.3.2.5.2.3 0 .6-.1 1.1-.4.4-.3.9-.6 1.3-.9.4-.4.9-.8 1.3-1.2.4-.4.8-.8 1-1.1.5-.6.9-1.1 1.2-1.7.4-.6.7-1.2 1-1.8-.3-.2-.5-.5-.6-.7-.1-.3-.2-.5-.3-.8-.1-.3-.1-.6-.1-.9s.2-.6.2-.9z"/><path d="M343.6 278.5c-1.2 1.7-2.3 3.3-3.3 4.7-.4.6-.9 1.3-1.3 1.9s-.9 1.2-1.3 1.8c-.4.5-.8 1-1.1 1.5-.3.4-.6.7-.8 1-.3.4-.7.7-1.2 1.1s-.9.8-1.5 1.1c-.5.4-1 .6-1.6.9-.5.2-1 .4-1.5.4-.9 0-1.7-.1-2.5-.4s-1.5-.6-2.1-1.1c-.6-.5-1.2-1.1-1.6-1.8-.4-.7-.7-1.5-.8-2.4-.3.4-.6.8-1 1.3-.4.4-.9.8-1.3 1.2-.5.4-1 .7-1.6.9-.5.2-1.1.4-1.7.4-.6 0-1.1-.1-1.7-.2s-1.2-.4-1.8-.6c-.6-.2-1.1-.5-1.6-.7-.5-.2-1-.4-1.4-.6-1.2-.4-2-1.2-2.5-2.1s-.8-2-.8-3.2c0-.9.2-1.8.5-2.7s.7-1.7 1.2-2.6c.5-.9.9-1.7 1.4-2.6.5-.9.9-1.7 1.1-2.7.1-.3.2-.6.4-.9.2-.2.3-.4.5-.6.2-.1.4-.3.6-.3.2-.1.4-.1.5-.2l4.7 4.2c-.1.5-.4 1.1-.6 1.8-.3.7-.5 1.5-.8 2.3-.3.8-.5 1.5-.7 2.2-.2.7-.3 1.2-.3 1.5V284.3c0 .2.1.4.1.5.1.2.1.2.3.3.5-.2 1-.5 1.5-1.1.5-.6 1-1.3 1.5-2.1s1-1.6 1.5-2.6c.5-.9 1-1.8 1.4-2.6s.9-1.6 1.3-2.3c.4-.7.7-1.2 1-1.5.2-.2.5-.4.9-.4s.7.1 1 .4c.3.2.5.5.6.9.2.4.4.8.5 1.1s.3.6.5.9c.2.3.4.6.6.8.2.3.5.6.9.9.2.2.4.5.4.7 0 .5-.1 1-.2 1.6-.1.6-.3 1.2-.4 1.8-.2.6-.3 1.2-.4 1.8-.1.6-.2 1.1-.2 1.6 0 .2.1.4.2.6.1.2.3.3.6.3.2 0 .6-.2 1-.5s1-.7 1.5-1.1c.6-.5 1.2-1 1.8-1.6.7-.6 1.3-1.2 1.9-1.8.6-.6 1.3-1.2 1.8-1.8l1.6-1.6 1.1-1.1.4-.4 2.8 2.5zM349.1 289.6c0 .6-.1 1.1-.4 1.5-.2.4-.5.8-.9 1.1-.4.3-.8.5-1.2.6-.4.1-.9.2-1.3.2s-.8-.1-1.3-.4-1-.5-1.4-.9-.8-.8-1.1-1.3c-.3-.5-.5-1-.5-1.6 0-.5.1-1.1.2-1.6s.3-1 .5-1.4c.3-.4.6-.7 1-1 .4-.3.9-.4 1.6-.4.7 0 1.4.1 2 .4s1.1.7 1.5 1.1c.4.5.7 1 .9 1.6s.4 1.5.4 2.1z"/></g></svg>