<svg xmlns="http://www.w3.org/2000/svg" width="345" height="240" viewBox="0 0 345 240"><path fill-rule="evenodd" clip-rule="evenodd" fill="#FFF" d="M122 25.4c-5 5.7-14.1 6.5-21.6 6.1 5.1-2.3 9.2-5.6 11.5-9.7 2.7-4.7 2.5-9.8-.3-14.4-2.2-3.5-5.8-5.5-10-5.5-9.1 0-16.8 7.9-21.2 17.7C76 9.9 68.3 2 59.2 2c-4.2 0-7.7 1.9-10 5.5-2.9 4.6-3 9.7-.3 14.4 2.3 4 6.4 7.4 11.4 9.6-8.3.5-16.9-.7-21.7-6.1l-5 4.3c5.8 6.5 14.8 8.4 23.5 8.4 10.3 0 20-2.7 23.2-3.7 3.2 1 12.9 3.7 23.2 3.7 8.7 0 17.7-1.9 23.5-8.4l-5-4.3zM101.5 8.5c1.9 0 3.3.8 4.3 2.4 1.6 2.5 1.7 5.1.2 7.7-3.2 5.7-12.6 9.9-21.7 9.5 3.4-13.3 12-19.6 17.2-19.6zM54.7 18.7c-1.5-2.6-1.4-5.2.2-7.7 1-1.6 2.4-2.4 4.3-2.4 5.2 0 13.8 6.3 17.2 19.6-9.2.3-18.5-3.8-21.7-9.5z"/><path clip-rule="evenodd" fill="none" d="M0 0h345v240H0z"/></svg>