<svg id="Layer_1" xmlns="http://www.w3.org/2000/svg" width="444.7" height="156.1" viewBox="-83 318.9 444.7 156.1"><style>.st0{fill:#fff}</style><path class="st0" d="M349 423.5H-70.3c-1 0-1.9-.8-1.9-1.9 0-1.1.8-1.9 1.9-1.9H349c1 0 1.9.8 1.9 1.9 0 1.1-.9 1.9-1.9 1.9zM-34.4 338.7c0-13.6 4.2-19.7 11.5-19.7 6.1 0 9 4.2 10.2 13.3l-5.2.7c-.7-6.3-2.1-8.8-5-8.8-3.8 0-5.8 4.2-5.8 14.4s2 14.8 6 14.8c3.6 0 5.3-2.9 5.5-9.5h-5.1v-4.7h10v18.7h-4V353h-.1c-.9 3-3.4 5.3-7.1 5.3-7.5 0-10.9-6.2-10.9-19.6zM-5.8 319.5h5.7V358h-5.7v-38.5zM4.7 319.5h5.6l4 19.6c.7 3.6 1.4 6.9 2 11.5h.1c.6-4.5 1.2-7.5 2-11.4l4.1-19.7h5l-8.6 38.6h-5.6l-8.6-38.6zM32 319.5h16.8v5H37.7v10.8h8v4.8h-8v13h11.7v4.9H32v-38.5zM65.9 358h-5l8.7-38.6h5.6l8.7 38.6h-5.6l-2-9.7h-8.5l-1.9 9.7zm8.4-19.8c-.8-4-1.5-6.8-2.1-11.8H72c-.6 5.1-1.3 7.7-2.1 11.7l-1.2 5.7h6.7l-1.1-5.6zM95.7 338.7c0-13.6 4.2-19.7 11.5-19.7 6.1 0 9 4.2 10.2 13.3l-5.2.7c-.7-6.3-2.1-8.8-5-8.8-3.8 0-5.8 4.2-5.8 14.4s2 14.8 6 14.8c3.6 0 5.3-2.9 5.5-9.5h-5.1v-4.7h10v18.7h-4V353h-.1c-.9 3-3.4 5.3-7.1 5.3-7.5 0-10.9-6.2-10.9-19.6zM124.3 319.5h5.7V358h-5.7v-38.5zM136.9 319.5h16.8v5h-11.1v11.1h8v4.8h-8v17.5h-5.7v-38.4zM163.7 324.5h-7.3v-5h20.2v5h-7.2v33.4h-5.7v-33.4zM193.6 324.5h-7.3v-5h20.2v5h-7.2v33.4h-5.7v-33.4zM208.8 338.7c0-13.8 4.7-19.7 11.8-19.7 7 0 11.8 5.9 11.8 19.7 0 13.8-4.7 19.7-11.8 19.7-7.2 0-11.8-5.9-11.8-19.7zm17.8 0c0-9.7-1.9-14.5-6-14.5s-6 4.8-6 14.5 1.9 14.7 6 14.7 6-5 6-14.7zM245.9 347.6l5.2-1c.9 4.5 2.6 7 6 7 3 0 4.4-1.8 4.4-4.4 0-7.2-14.2-10.6-14.2-21 0-5.7 3.8-9.3 9.6-9.3 5.9 0 8.5 4 9.9 10l-5 1.3c-1-4.2-2.4-6.2-5.1-6.2-2.4 0-3.8 1.4-3.8 3.8 0 7.7 14.2 10.6 14.2 21.1 0 5.7-4.1 9.6-10 9.6-6.9 0-10-4.4-11.2-10.9zM274.9 358h-5l8.7-38.6h5.6l8.7 38.6h-5.6l-2-9.7h-8.5l-1.9 9.7zm8.4-19.8c-.8-4-1.5-6.8-2.1-11.8h-.2c-.6 5.1-1.3 7.7-2.1 11.7l-1.2 5.7h6.7l-1.1-5.6zM300.6 343.6l-8.4-24.1h5.8l5.6 17.8h.2l5.6-17.8h5.4l-8.4 24.1V358h-5.7v-14.4h-.1z"/></svg>