<?xml version="1.0" standalone="no"?>
<!DOCTYPE svg PUBLIC "-//W3C//DTD SVG 1.1//EN" "http://www.w3.org/Graphics/SVG/1.1/DTD/svg11.dtd" >
<svg xmlns="http://www.w3.org/2000/svg" width="120" height="28" viewBox="0 0 120 28">
  <title>sharing_sprites</title>
  <g fill="none" fill-rule="evenodd">
    <rect fill="#3B5999" width="40" height="28" rx="3"/>
    <rect fill="#55ACEE" x="40" width="40" height="28" rx="3"/>
    <rect fill="#BD081C" x="80" width="40" height="28" rx="3"/>
    <path d="M93 8h13v13H93z"/>
    <path
      d="M100.548 17.327c-.75 0-1.5-.463-1.8-.925 0 0-.449 1.773-.524 2.08-.3 1.157-1.2 2.39-1.275 2.467-.075.077-.15.077-.15-.077s-.225-1.618 0-2.852c.15-.616.9-4.085.9-4.085s-.225-.462-.225-1.156c0-1.08.6-1.927 1.425-1.927.675 0 .975.54.975 1.156 0 .694-.45 1.696-.675 2.698-.15.77.375 1.464 1.124 1.464 1.35 0 2.325-1.85 2.325-4.008 0-1.618-1.05-2.852-3-2.852-2.174 0-3.523 1.696-3.523 3.623 0 .694.15 1.156.45 1.465.15.154.15.23.074.385 0 .154-.15.462-.15.617-.074.154-.224.23-.374.154-.975-.463-1.5-1.619-1.5-2.852C94.625 10.544 96.35 8 99.799 8c2.774 0 4.573 2.081 4.573 4.316.075 2.852-1.5 5.01-3.824 5.01z"
      fill="#FFF"/>
    <path d="M14 8h13v13H14z"/>
    <path d="M14 8h13v13H14z"/>
    <path
      d="M21.587 10.28c-.285 0-.569.305-.569.533v1.52h1.92a36.193 36.193 0 0 1-.214 2.205h-1.706V21h-2.56v-6.538H17.25v-2.205h1.209V10.51c0-.304-.072-2.509 2.559-2.509h1.848c.071.912.071 1.977.071 2.28h-1.35z"
      fill="#FFF"/>
    <path d="M54 7.5h13v13H54z"/>
    <path d="M54 7.5h13v13H54z"/>
    <path
      d="M65.547 12.131c0 3.494-2.665 7.556-7.51 7.556-1.534 0-2.907-.406-4.037-1.218h.646c1.211 0 2.422-.407 3.31-1.138-1.13 0-2.099-.812-2.503-1.868.162 0 .323.08.485.08.242 0 .484 0 .727-.08-1.212-.244-2.1-1.3-2.1-2.6.323.162.727.325 1.211.325-.726-.488-1.21-1.3-1.21-2.194 0-.488.16-.975.322-1.381a7.278 7.278 0 0 0 5.49 2.762c-.08-.162-.08-.406-.08-.569 0-1.462 1.211-2.681 2.665-2.681a2.81 2.81 0 0 1 1.938.813 4.334 4.334 0 0 0 1.695-.65c-.161.65-.646 1.137-1.13 1.462.565-.081 1.05-.244 1.534-.406a12.371 12.371 0 0 1-1.453 1.462v.325z"
      fill="#FFF"/>
  </g>
</svg>
